<?xml version="1.0" encoding="UTF-8" standalone="no"?>
<!--
  Licensed to the Apache Software Foundation (ASF) under one
  or more contributor license agreements.  See the NOTICE file
  distributed with this work for additional information
  regarding copyright ownership.  The ASF licenses this file
  to you under the Apache License, Version 2.0 (the
  "License"); you may not use this file except in compliance
  with the License.  You may obtain a copy of the License at

   http://www.apache.org/licenses/LICENSE-2.0

  Unless required by applicable law or agreed to in writing,
  software distributed under the License is distributed on an
  "AS IS" BASIS, WITHOUT WARRANTIES OR CONDITIONS OF ANY
  KIND, either express or implied.  See the License for the
  specific language governing permissions and limitations
  under the License.
-->
<svg xmlns="http://www.w3.org/2000/svg" xmlns:xlink="http://www.w3.org/1999/xlink" xmlns:lucid="lucid" width="1839.18" height="960"><g transform="translate(336.1847961642019 58)" lucid:page-tab-id="mkSIvKSmCZzo"><path d="M-1708-863h3668v1978h-3668z" fill="#fff"/><path d="M-294-22a16 16 0 0 1 16-16h1722a16 16 0 0 1 16 16v888a16 16 0 0 1-16 16H-278a16 16 0 0 1-16-16z" fill="#f7f7f7"/><path d="M56 78a16 16 0 0 1 16-16h100.5a16 16 0 0 1 16 16v38.5a16 16 0 0 1-16 16H72a16 16 0 0 1-16-16z" stroke="#5d646f" stroke-width="2" fill="#e9ecf1"/><use xlink:href="#a" transform="matrix(1,0,0,1,61,67) translate(28.531250000000014 41.08333333333333)"/><path d="M1124 205a16 16 0 0 1 16-16h248a16 16 0 0 1 16 16v105a16 16 0 0 1-16 16h-248a16 16 0 0 1-16-16z" stroke="#5d646f" stroke-width="2" fill="#d6e6ff"/><path d="M-2 401a16 16 0 0 1 16-16h213a16 16 0 0 1 16 16v42a16 16 0 0 1-16 16H14a16 16 0 0 1-16-16z" stroke="#5d646f" stroke-width="2" fill="#bdc4d5"/><use xlink:href="#b" transform="matrix(1,0,0,1,3,390) translate(22.50000000000003 41.83333333333333)"/><use xlink:href="#c" transform="matrix(1,0,0,1,3,390) translate(128.22916666666666 41.83333333333333)"/><path d="M1142 237a16 16 0 0 1 16-16h213a16 16 0 0 1 16 16v42a16 16 0 0 1-16 16h-213a16 16 0 0 1-16-16z" stroke="#5d646f" stroke-width="2" fill="#d5dae4"/><use xlink:href="#d" transform="matrix(1,0,0,1,1147,226) translate(32.24609375000003 29.833333333333325)"/><use xlink:href="#e" transform="matrix(1,0,0,1,1147,226) translate(175.35807291666666 29.833333333333325)"/><use xlink:href="#f" transform="matrix(1,0,0,1,1147,226) translate(86.90604166666668 62.098958333333314)"/><path d="M560 401a16 16 0 0 1 16-16h213a16 16 0 0 1 16 16v42a16 16 0 0 1-16 16H576a16 16 0 0 1-16-16z" stroke="#5d646f" stroke-width="2" fill="#bdc4d5"/><use xlink:href="#g" transform="matrix(1,0,0,1,565,390) translate(23.19661458333337 41.83333333333333)"/><path d="M1142 401a16 16 0 0 1 16-16h213a16 16 0 0 1 16 16v42a16 16 0 0 1-16 16h-213a16 16 0 0 1-16-16z" stroke="#5d646f" stroke-width="2" fill="#bdc4d5"/><use xlink:href="#h" transform="matrix(1,0,0,1,1147,390) translate(25.07812500000003 41.83333333333333)"/><path d="M300 561a16 16 0 0 1 16-16h213a16 16 0 0 1 16 16v42a16 16 0 0 1-16 16H316a16 16 0 0 1-16-16z" stroke="#5d646f" stroke-width="2" fill="#f1f7ff"/><use xlink:href="#i" transform="matrix(1,0,0,1,305,550) translate(66.99218750000001 29.833333333333325)"/><use xlink:href="#j" transform="matrix(1,0,0,1,305,550) translate(44.09354166666669 62.098958333333314)"/><path d="M580 560.73a16 16 0 0 1 16-16h213a16 16 0 0 1 16 16v42.54a16 16 0 0 1-16 16H596a16 16 0 0 1-16-16z" stroke="#5d646f" stroke-width="2" fill="#f1f7ff"/><use xlink:href="#k" transform="matrix(1,0,0,1,585,549.734375) translate(87.44140625 27.864583333333325)"/><use xlink:href="#l" transform="matrix(1,0,0,1,585,549.734375) translate(29.965937500000017 60.130208333333314)"/><path d="M1140 561a16 16 0 0 1 16-16h213a16 16 0 0 1 16 16v42a16 16 0 0 1-16 16h-213a16 16 0 0 1-16-16z" stroke="#5d646f" stroke-width="2" fill="#f1f7ff"/><use xlink:href="#m" transform="matrix(1,0,0,1,1145,550) translate(21.1393229166667 41.83333333333333)"/><use xlink:href="#n" transform="matrix(1,0,0,1,1145,550) translate(128.47005208333331 41.83333333333333)"/><path d="M120 722a16 16 0 0 1 16-16h213a16 16 0 0 1 16 16v42a16 16 0 0 1-16 16H136a16 16 0 0 1-16-16z" stroke="#5d646f" stroke-width="2" fill="#d6e6ff"/><use xlink:href="#o" transform="matrix(1,0,0,1,125,711) translate(36.83593750000003 29.833333333333325)"/><use xlink:href="#p" transform="matrix(1,0,0,1,125,711) translate(134.58333333333331 29.833333333333325)"/><use xlink:href="#q" transform="matrix(1,0,0,1,125,711) translate(68.88520833333335 62.098958333333314)"/><path d="M400 722a16 16 0 0 1 16-16h213a16 16 0 0 1 16 16v42a16 16 0 0 1-16 16H416a16 16 0 0 1-16-16z" stroke="#5d646f" stroke-width="2" fill="#d6e6ff"/><use xlink:href="#r" transform="matrix(1,0,0,1,405,711) translate(45.33203125000003 29.833333333333325)"/><use xlink:href="#p" transform="matrix(1,0,0,1,405,711) translate(126.08723958333334 29.833333333333325)"/><use xlink:href="#q" transform="matrix(1,0,0,1,405,711) translate(68.88520833333335 62.098958333333314)"/><path d="M680 722a16 16 0 0 1 16-16h213a16 16 0 0 1 16 16v42a16 16 0 0 1-16 16H696a16 16 0 0 1-16-16z" stroke="#5d646f" stroke-width="2" fill="#d6e6ff"/><use xlink:href="#s" transform="matrix(1,0,0,1,685,711) translate(0.572916666666714 41.83333333333333)"/><use xlink:href="#t" transform="matrix(1,0,0,1,685,711) translate(67.29166666666669 41.83333333333333)"/><use xlink:href="#q" transform="matrix(1,0,0,1,685,711) translate(137.1875 41.83333333333333)"/><path d="M682.5 187.13l-.13-.27" stroke="#000" stroke-opacity="0" stroke-width="2" fill="none"/><path d="M678.95 180.72l12.95 7.57-13.35 7.4z" stroke="#000" stroke-opacity="0" stroke-width="2" fill-opacity="0"/><path d="M350.94 296.67l213.17-73.73M350.97 296.67l-.97.33" stroke="#000" stroke-opacity="0" stroke-width="2" fill="none"/><path d="M570.75 220.64l-9.7 11.44-5-14.43z" stroke="#000" stroke-opacity="0" stroke-width="2" fill-opacity="0"/><path d="M54.14 118.05L-284.58 221.5" stroke="#000" stroke-opacity="0" stroke-width="2" fill="none"/><path d="M-291.3 223.54l10.1-11.07 4.47 14.6z" stroke="#000" stroke-opacity="0" stroke-width="2" fill-opacity="0"/><path d="M190.47 111.03l358.84 95.65" stroke="#000" stroke-opacity="0" stroke-width="2" fill="none"/><path d="M556.1 208.5l-14.44 4.05 3.93-14.76z" stroke="#000" stroke-opacity="0" stroke-width="2" fill-opacity="0"/><path d="M678.97 239.23l772.27 180.72" stroke="#000" stroke-opacity="0" stroke-width="2" fill="none"/><path d="M1458.1 421.55l-14.32 4.5 3.48-14.87z" stroke="#000" stroke-opacity="0" stroke-width="2" fill-opacity="0"/><path d="M122.24 134.5l-1.6 231" stroke="#000" stroke-opacity="0" stroke-width="2" fill="none"/><path d="M120.52 380.76l-4.53-14.3 9.26.07z" stroke="#000" stroke-opacity="0" stroke-width="2" fill-opacity="0"/><path d="M190.34 117.03l210.1 135.72" stroke="#000" stroke-opacity="0" stroke-width="2" fill="none"/><path d="M406.35 256.56l-15-.6 8.3-12.82z" stroke="#000" stroke-opacity="0" stroke-width="2" fill-opacity="0"/><path d="M802.75 704.96l454.03-83.9" stroke="#000" stroke-opacity="0" stroke-width=".5" fill="none"/><path d="M1262.02 620.1l-11.3 9.84-2.8-15z" stroke="#000" stroke-opacity="0" stroke-width=".5" fill-opacity="0"/><path d="M122.24 134.5l-.55 79.62" stroke="#5d646f" stroke-width="2" fill="none"/><path d="M123.22 134.53h-1.95v-1.03h1.95z" stroke="#5d646f" stroke-width=".05" fill="#5d646f"/><path d="M121.64 221.15l-7.55-12.97 15.26.1z" stroke="#5d646f" stroke-width="2" fill="#5d646f"/><path d="M1264.48 297l-1.35 78" stroke="#5d646f" stroke-width="2" fill="none"/><path d="M1265.46 297.04l-1.95-.03.03-1h1.94z" stroke="#5d646f" stroke-width=".05" fill="#5d646f"/><path d="M1263 382.04l-7.4-13.05 15.27.26z" stroke="#5d646f" stroke-width="2" fill="#5d646f"/><path d="M1264.48 461l-1.77 74" stroke="#5d646f" stroke-width="2" fill="none"/><path d="M1265.45 461.05l-1.95-.05.03-1h1.94z" stroke="#5d646f" stroke-width=".05" fill="#5d646f"/><path d="M1262.55 542.04l-7.33-13.1 15.27.37z" stroke="#5d646f" stroke-width="2" fill="#5d646f"/><path d="M424.58 620.42l-173.92 80.8" stroke="#5d646f" stroke-width="2" fill="none"/><path d="M424.97 621.32l-.6-1.32h3.43z" stroke="#5d646f" stroke-width=".05" fill="#5d646f"/><path d="M244.28 704.17l8.5-12.36 6.43 13.86z" stroke="#5d646f" stroke-width="2" fill="#5d646f"/><path d="M701.6 620.7l-170.97 80.47" stroke="#5d646f" stroke-width="2" fill="none"/><path d="M702 621.6l-.63-1.33h3.42z" stroke="#5d646f" stroke-width=".05" fill="#5d646f"/><path d="M524.28 704.16l8.43-12.4 6.5 13.8z" stroke="#5d646f" stroke-width="2" fill="#5d646f"/><path d="M981.6 620.7l-170.97 80.47" stroke="#5d646f" stroke-width="2" fill="none"/><path d="M982 621.6l-.63-1.33h3.42z" stroke="#5d646f" stroke-width=".05" fill="#5d646f"/><path d="M804.28 704.16l8.43-12.4 6.5 13.8z" stroke="#5d646f" stroke-width="2" fill="#5d646f"/><path d="M1261.52 620.18l-450.18 83.2" stroke="#5d646f" stroke-width="2" fill="none"/><path d="M1265.63 620.4l-3.96.75-.2-1.15h4.08z" stroke="#5d646f" stroke-width=".05" fill="#5d646f"/><path d="M804.43 704.64l11.3-9.85 2.78 15z" stroke="#5d646f" stroke-width="2" fill="#5d646f"/><path d="M681.55 460.3l-250.5 80.94" stroke="#5d646f" stroke-width="2" fill="none"/><path d="M685.65 460l-3.83 1.24-.4-1.24h4.23z" stroke="#5d646f" stroke-width=".05" fill="#5d646f"/><path d="M424.37 543.4l9.94-11.24 4.7 14.53z" stroke="#5d646f" stroke-width="2" fill="#5d646f"/><path d="M679.78 460.96l20.34 74.1" stroke="#5d646f" stroke-width="2" fill="none"/><path d="M680.72 460.73l-1.88.52-.34-1.25h2.02z" stroke="#5d646f" stroke-width=".05" fill="#5d646f"/><path d="M701.98 541.84L691.2 531.4l14.72-4.03z" stroke="#5d646f" stroke-width="2" fill="#5d646f"/><path d="M409 205a16 16 0 0 1 16-16h516a16 16 0 0 1 16 16v105.25a16 16 0 0 1-16 16H425a16 16 0 0 1-16-16z" stroke="#5d646f" stroke-width="2" fill="#d6e6ff"/><path d="M-269 78.5a6 6 0 0 1 6-6h228a6 6 0 0 1 6 6v48a6 6 0 0 1-6 6h-228a6 6 0 0 1-6-6z" stroke="#000" stroke-opacity="0" stroke-width="2" fill="#fff" fill-opacity="0"/><use xlink:href="#u" transform="matrix(1,0,0,1,-264,77.5) translate(30.56640625000003 35.20833333333333)"/><use xlink:href="#v" transform="matrix(1,0,0,1,-264,77.5) translate(126.21744791666666 35.20833333333333)"/><path d="M-239.5 340.5h1659" stroke="#000" stroke-linecap="round" fill="none"/><path d="M-294 234.13a6 6 0 0 1 6-6h228a6 6 0 0 1 6 6v48a6 6 0 0 1-6 6h-228a6 6 0 0 1-6-6z" stroke="#000" stroke-opacity="0" stroke-width="2" fill="#fff" fill-opacity="0"/><use xlink:href="#w" transform="matrix(1,0,0,1,-289,233.125) translate(50.104166666666686 35.20833333333333)"/><path d="M-265 398a6 6 0 0 1 6-6h228a6 6 0 0 1 6 6v48a6 6 0 0 1-6 6h-228a6 6 0 0 1-6-6z" stroke="#000" stroke-opacity="0" stroke-width="2" fill="#fff" fill-opacity="0"/><use xlink:href="#x" transform="matrix(1,0,0,1,-260,397) translate(22.10937500000003 35.20833333333333)"/><use xlink:href="#y" transform="matrix(1,0,0,1,-260,397) translate(143.28125 35.20833333333333)"/><path d="M-272 558a6 6 0 0 1 6-6h228a6 6 0 0 1 6 6v48a6 6 0 0 1-6 6h-228a6 6 0 0 1-6-6z" stroke="#000" stroke-opacity="0" stroke-width="2" fill="#fff" fill-opacity="0"/><use xlink:href="#m" transform="matrix(1,0,0,1,-267,557) translate(29.029947916666686 35.20833333333333)"/><use xlink:href="#y" transform="matrix(1,0,0,1,-267,557) translate(136.36067708333331 35.20833333333333)"/><path d="M-298 726a6 6 0 0 1 6-6h228a6 6 0 0 1 6 6v48a6 6 0 0 1-6 6h-228a6 6 0 0 1-6-6z" stroke="#000" stroke-opacity="0" stroke-width="2" fill="#fff" fill-opacity="0"/><use xlink:href="#z" transform="matrix(1,0,0,1,-293,725) translate(57.02473958333335 35.20833333333333)"/><path d="M-239.5 175.75h1659M-239.5 500.5h1659M-239.5 661.5h1659" stroke="#000" stroke-linecap="round" fill="none"/><path d="M1140 185a6 6 0 0 1 6-6h228a6 6 0 0 1 6 6v48a6 6 0 0 1-6 6h-228a6 6 0 0 1-6-6z" stroke="#000" stroke-opacity="0" stroke-width="2" fill="#fff" fill-opacity="0"/><use xlink:href="#A" transform="matrix(1,0,0,1,1145,184) translate(81.46484375 35.20833333333333)"/><path d="M428 237a16 16 0 0 1 16-16h213a16 16 0 0 1 16 16v42a16 16 0 0 1-16 16H444a16 16 0 0 1-16-16z" stroke="#5d646f" stroke-width="2" fill="#d5dae4"/><use xlink:href="#B" transform="matrix(1,0,0,1,433,226) translate(18.470052083333357 29.833333333333325)"/><use xlink:href="#C" transform="matrix(1,0,0,1,433,226) translate(158.86067708333331 29.833333333333325)"/><use xlink:href="#D" transform="matrix(1,0,0,1,433,226) translate(76.06619791666668 62.098958333333314)"/><path d="M551.33 296.56L675.03 379" stroke="#5d646f" stroke-width="2" fill="none"/><path d="M550.8 297.38l-2.06-1.38h3z" stroke="#5d646f" stroke-width=".05" fill="#5d646f"/><path d="M680.87 382.9l-14.98-.8 8.46-12.7z" stroke="#5d646f" stroke-width="2" fill="#5d646f"/><path d="M688 237a16 16 0 0 1 16-16h213a16 16 0 0 1 16 16v42a16 16 0 0 1-16 16H704a16 16 0 0 1-16-16z" stroke="#5d646f" stroke-width="2" fill="#d5dae4"/><use xlink:href="#E" transform="matrix(1,0,0,1,693,226) translate(17.66927083333337 41.83333333333333)"/><use xlink:href="#F" transform="matrix(1,0,0,1,693,226) translate(100.7421875 41.83333333333333)"/><use xlink:href="#f" transform="matrix(1,0,0,1,693,226) translate(156.13281249999997 41.83333333333333)"/><path d="M806.7 296.58l-116.85 82.24" stroke="#5d646f" stroke-width="2" fill="none"/><path d="M807.24 297.4l-.98-1.4h2.95z" stroke="#5d646f" stroke-width=".05" fill="#5d646f"/><path d="M684.1 382.87l6.17-13.68 8.8 12.48z" stroke="#5d646f" stroke-width="2" fill="#5d646f"/><path d="M558 185a6 6 0 0 1 6-6h228a6 6 0 0 1 6 6v48a6 6 0 0 1-6 6H564a6 6 0 0 1-6-6z" stroke="#000" stroke-opacity="0" stroke-width="2" fill="#fff" fill-opacity="0"/><g><use xlink:href="#G" transform="matrix(1,0,0,1,563,184) translate(89.59635416666667 35.20833333333333)"/></g><path d="M860 560.73a16 16 0 0 1 16-16h213a16 16 0 0 1 16 16v42.54a16 16 0 0 1-16 16H876a16 16 0 0 1-16-16z" stroke="#5d646f" stroke-width="2" fill="#f1f7ff"/><g><use xlink:href="#k" transform="matrix(1,0,0,1,865,549.734375) translate(87.44140625 27.864583333333325)"/><use xlink:href="#l" transform="matrix(1,0,0,1,865,549.734375) translate(29.965937500000017 60.130208333333314)"/></g><path d="M683.46 460.27l290.38 81.05" stroke="#5d646f" stroke-width="2" fill="none"/><path d="M683.23 461.2l-3.88-1.07.03-.13h4.2z" stroke="#5d646f" stroke-width=".05" fill="#5d646f"/><path d="M980.6 543.2l-14.48 3.9 4.1-14.72z" stroke="#5d646f" stroke-width="2" fill="#5d646f"/><path d="M-2 561a16 16 0 0 1 16-16h213a16 16 0 0 1 16 16v42a16 16 0 0 1-16 16H14a16 16 0 0 1-16-16z" stroke="#5d646f" stroke-width="2" fill="#f1f7ff"/><g><use xlink:href="#H" transform="matrix(1,0,0,1,3,550) translate(1.861979166666714 41.83333333333333)"/></g><path d="M120.5 461v74" stroke="#5d646f" stroke-width="2" fill="none"/><path d="M121.47 461.03h-1.94V460h1.94z" stroke="#5d646f" stroke-width=".05" fill="#5d646f"/><path d="M120.5 542.04l-7.64-12.92h15.28z" stroke="#5d646f" stroke-width="2" fill="#5d646f"/><path d="M-2 237a16 16 0 0 1 16-16h213a16 16 0 0 1 16 16v42a16 16 0 0 1-16 16H14a16 16 0 0 1-16-16z" stroke="#5d646f" stroke-width="2" fill="#d5dae4"/><g><use xlink:href="#x" transform="matrix(1,0,0,1,3,226) translate(1.6536458333333712 41.83333333333333)"/><use xlink:href="#I" transform="matrix(1,0,0,1,3,226) translate(122.82552083333334 41.83333333333333)"/></g><path d="M121.13 295.2V375M121.13 295.23v-1.03" stroke="#5d646f" stroke-width="2" fill="none"/><path d="M121.13 382.04l-7.64-12.92h15.26z" stroke="#5d646f" stroke-width="2" fill="#5d646f"/><defs><path fill="#3a414a" d="M49 0l509-1490h400L1480 0h-339l-115-346H497L386 0H49zm524-585h374c-75-211-131-431-192-666-57 237-110 454-182 666" id="J"/><path fill="#3a414a" d="M428-1490V0H128v-1490h300" id="K"/><path fill="#3a414a" d="M128 0v-1118h300V0H128zm315-1418c0 84-79 154-165 154s-164-70-164-154 78-154 164-154 165 70 165 154" id="L"/><path fill="#3a414a" d="M1127-358C1089-128 896 24 628 22 277 14 81-203 81-554c0-353 196-570 547-578 265-2 459 147 497 372l-279 52c-23-107-91-188-215-188-173 0-245 159-244 341-1 180 72 341 244 341 125 0 196-85 217-195" id="M"/><path fill="#3a414a" d="M1126-285C1071-97 883 26 633 22 277 15 87-195 81-553c0-239 100-415 253-506 80-49 175-73 284-73 364 12 547 246 525 651H378c3 169 98 275 260 277 109 0 187-49 216-132zM854-669c-13-136-87-238-233-237-146-3-230 104-241 237h474" id="N"/><g id="a"><use transform="matrix(0.013020833333333329,0,0,0.013020833333333329,0,0)" xlink:href="#J"/><use transform="matrix(0.013020833333333329,0,0,0.013020833333333329,19.90885416666666,0)" xlink:href="#K"/><use transform="matrix(0.013020833333333329,0,0,0.013020833333333329,27.135416666666657,0)" xlink:href="#L"/><use transform="matrix(0.013020833333333329,0,0,0.013020833333333329,34.36197916666666,0)" xlink:href="#M"/><use transform="matrix(0.013020833333333329,0,0,0.013020833333333329,50.052083333333314,0)" xlink:href="#N"/></g><path fill="#3a414a" d="M1256-424c0 297-250 446-575 446C340 22 91-136 85-462h297c7 151 137 226 296 226 141 3 268-63 271-190 0-51-22-91-67-118-77-51-241-82-354-112-219-56-403-156-403-405 0-303 248-442 560-449 221-1 390 83 480 214 46 67 70 144 71 231H941c-11-126-117-188-259-188-134 0-244 56-244 172 0 126 131 162 238 188 280 69 580 136 580 469" id="O"/><path fill="#3a414a" d="M667-870c-135-3-239 98-239 234V0H128v-1118h290v195h12c38-150 180-242 367-200v268c-27-8-92-15-130-15" id="P"/><path fill="#3a414a" d="M443 0L31-1118h319c91 293 198 571 268 885 66-316 176-591 264-885h315L784 0H443" id="Q"/><g id="b"><use transform="matrix(0.013020833333333329,0,0,0.013020833333333329,0,0)" xlink:href="#O"/><use transform="matrix(0.013020833333333329,0,0,0.013020833333333329,17.460937499999993,0)" xlink:href="#N"/><use transform="matrix(0.013020833333333329,0,0,0.013020833333333329,33.34635416666666,0)" xlink:href="#P"/><use transform="matrix(0.013020833333333329,0,0,0.013020833333333329,44.622395833333314,0)" xlink:href="#Q"/><use transform="matrix(0.013020833333333329,0,0,0.013020833333333329,60.61197916666664,0)" xlink:href="#L"/><use transform="matrix(0.013020833333333329,0,0,0.013020833333333329,67.83854166666664,0)" xlink:href="#M"/><use transform="matrix(0.013020833333333329,0,0,0.013020833333333329,83.5286458333333,0)" xlink:href="#N"/></g><path fill="#3a414a" d="M853-179C799-71 705 25 537 19 227 8 84-226 81-557c-3-243 85-420 227-511 69-43 144-64 227-64 172-3 264 92 318 202h10v-560h300V0H868v-179h-15zM389-558c-1 177 71 336 240 336 167-2 242-156 240-336 2-181-72-332-240-334-169 0-241 157-240 334" id="R"/><path fill="#3a414a" d="M615-884c-113 1-187 84-187 208V0H128v-1118h278l12 217c47-140 157-234 319-234 141 0 237 84 288 251 50-151 180-251 359-251 213 0 357 153 357 381V0h-301v-697c4-117-71-185-177-187-113-2-184 82-184 196V0H789v-705c2-105-71-180-174-179" id="S"/><path fill="#3a414a" d="M645-881c-132 0-217 94-217 234V0H128v-1118h283l4 231c58-142 159-243 348-245 239-1 384 172 384 421V0H847v-659c2-133-72-223-202-222" id="T"/><g id="c"><use transform="matrix(0.013020833333333329,0,0,0.013020833333333329,0,0)" xlink:href="#J"/><use transform="matrix(0.013020833333333329,0,0,0.013020833333333329,19.296874999999993,0)" xlink:href="#R"/><use transform="matrix(0.013020833333333329,0,0,0.013020833333333329,36.10677083333332,0)" xlink:href="#S"/><use transform="matrix(0.013020833333333329,0,0,0.013020833333333329,60.442708333333314,0)" xlink:href="#L"/><use transform="matrix(0.013020833333333329,0,0,0.013020833333333329,67.66927083333331,0)" xlink:href="#T"/></g><path fill="#3a414a" d="M919-50c-156 94-426 94-582 0C183-143 81-315 81-554c0-353 196-578 547-578s547 226 547 578c0 239-102 411-256 504zM387-555c-1 177 70 342 241 341 171 2 243-164 242-341 1-178-71-342-242-341-171-1-242 163-241 341" id="U"/><path fill="#3a414a" d="M361 0L31-1118h315c65 282 132 549 188 845 58-297 131-562 199-845h276c68 283 137 551 196 846 51-300 122-563 186-846h319L1378 0h-305c-72-254-150-498-204-771C816-496 738-254 666 0H361" id="V"/><path fill="#3a414a" d="M641-1318c-119-7-132 82-125 200h234v229H516V0H217v-889H20v-229h197v-86c-17-307 290-418 578-325l-54 226c-26-7-65-16-100-15" id="W"/><path fill="#3a414a" d="M767-155C711-52 603 25 440 22 229 22 68-95 68-313c0-251 196-317 422-343 96-9 166-20 208-30 44-11 63-34 63-75-1-100-70-149-175-149-109 0-184 54-211 129l-275-46c54-191 240-310 487-305 262 5 474 109 474 379V0H777v-155h-10zM356-321c-1 90 77 132 169 132 129 5 239-89 238-211v-121c-128 71-401 13-407 200" id="X"/><path fill="#3a414a" d="M128 0v-1490h300v802h17l366-430h347L740-633 1179 0H826L514-456l-86 97V0H128" id="Y"/><g id="d"><use transform="matrix(0.013020833333333329,0,0,0.013020833333333329,0,0)" xlink:href="#O"/><use transform="matrix(0.013020833333333329,0,0,0.013020833333333329,17.460937499999993,0)" xlink:href="#T"/><use transform="matrix(0.013020833333333329,0,0,0.013020833333333329,34.062499999999986,0)" xlink:href="#U"/><use transform="matrix(0.013020833333333329,0,0,0.013020833333333329,50.052083333333314,0)" xlink:href="#V"/><use transform="matrix(0.013020833333333329,0,0,0.013020833333333329,72.72135416666664,0)" xlink:href="#W"/><use transform="matrix(0.013020833333333329,0,0,0.013020833333333329,83.3333333333333,0)" xlink:href="#K"/><use transform="matrix(0.013020833333333329,0,0,0.013020833333333329,90.5598958333333,0)" xlink:href="#X"/><use transform="matrix(0.013020833333333329,0,0,0.013020833333333329,106.04166666666663,0)" xlink:href="#Y"/><use transform="matrix(0.013020833333333329,0,0,0.013020833333333329,120.91145833333329,0)" xlink:href="#N"/></g><path fill="#3a414a" d="M440-1490V0H135v-1490h305" id="Z"/><g id="e"><use transform="matrix(0.013020833333333329,0,0,0.013020833333333329,0,0)" xlink:href="#J"/><use transform="matrix(0.013020833333333329,0,0,0.013020833333333329,19.90885416666666,0)" xlink:href="#Z"/></g><path fill="#3a414a" d="M750-249c179 0 309-125 309-299v-942h306v967c-1 236-127 392-293 476-175 88-471 88-646 0-167-84-291-240-291-476v-967h305v942c-2 174 130 299 310 299" id="aa"/><path fill="#3a414a" d="M581-917c-84-2-174 38-174 113 0 78 60 100 144 117l201 40c213 43 320 144 320 302 0 257-230 361-500 367C314 24 116-93 78-306l279-48c29 104 103 156 224 156 95 2 180-35 185-115 6-116-227-130-337-155-214-48-322-150-322-317 2-234 218-347 470-347 249 0 420 107 466 298l-266 47c-25-77-90-132-196-130" id="ab"/><g id="f"><use transform="matrix(0.013020833333333329,0,0,0.013020833333333329,0,0)" xlink:href="#aa"/><use transform="matrix(0.013020833333333329,0,0,0.013020833333333329,19.51822916666666,0)" xlink:href="#ab"/><use transform="matrix(0.013020833333333329,0,0,0.013020833333333329,34.453124999999986,0)" xlink:href="#N"/><use transform="matrix(0.013020833333333329,0,0,0.013020833333333329,50.33854166666664,0)" xlink:href="#P"/></g><path fill="#3a414a" d="M1385-746C1379-276 1127 0 659 0H135v-1490c330 12 696-38 915 90 205 120 335 337 335 654zm-304 0c2-318-133-477-435-481H440v964h204c303-4 439-164 437-483" id="ac"/><path fill="#3a414a" d="M520 16C304 17 174-90 174-301v-588H20v-229h154v-266h300v266h209v229H474v562c0 69 34 104 102 104 22 0 77-9 95-13l43 225C656 7 590 15 520 16" id="ad"/><path fill="#3a414a" d="M975 0v231H0V0h975" id="ae"/><path fill="#3a414a" d="M1166-9c-4 315-226 446-541 451-253 5-444-99-503-274l258-72c38 74 115 131 243 128 149-3 246-66 246-216v-206h-23C796-99 703-9 536-16 231-28 82-235 81-561c-3-241 87-417 229-507 69-43 144-64 227-64 172-2 266 92 321 202h13v-188h295V-9zM389-563c-1 178 73 318 241 319 168-2 242-139 240-319 1-179-72-328-240-329S388-737 389-563" id="af"/><g id="g"><use transform="matrix(0.013020833333333329,0,0,0.013020833333333329,0,0)" xlink:href="#ac"/><use transform="matrix(0.013020833333333329,0,0,0.013020833333333329,19.257812499999993,0)" xlink:href="#X"/><use transform="matrix(0.013020833333333329,0,0,0.013020833333333329,34.73958333333332,0)" xlink:href="#ad"/><use transform="matrix(0.013020833333333329,0,0,0.013020833333333329,44.63541666666666,0)" xlink:href="#X"/><use transform="matrix(0.013020833333333329,0,0,0.013020833333333329,60.11718749999999,0)" xlink:href="#ae"/><use transform="matrix(0.013020833333333329,0,0,0.013020833333333329,72.81249999999999,0)" xlink:href="#N"/><use transform="matrix(0.013020833333333329,0,0,0.013020833333333329,88.69791666666664,0)" xlink:href="#T"/><use transform="matrix(0.013020833333333329,0,0,0.013020833333333329,105.29947916666663,0)" xlink:href="#af"/><use transform="matrix(0.013020833333333329,0,0,0.013020833333333329,122.14843749999996,0)" xlink:href="#L"/><use transform="matrix(0.013020833333333329,0,0,0.013020833333333329,129.37499999999994,0)" xlink:href="#T"/><use transform="matrix(0.013020833333333329,0,0,0.013020833333333329,145.97656249999994,0)" xlink:href="#N"/><use transform="matrix(0.013020833333333329,0,0,0.013020833333333329,161.8619791666666,0)" xlink:href="#N"/><use transform="matrix(0.013020833333333329,0,0,0.013020833333333329,177.74739583333326,0)" xlink:href="#P"/></g><g id="h"><use transform="matrix(0.013020833333333329,0,0,0.013020833333333329,0,0)" xlink:href="#ac"/><use transform="matrix(0.013020833333333329,0,0,0.013020833333333329,19.257812499999993,0)" xlink:href="#X"/><use transform="matrix(0.013020833333333329,0,0,0.013020833333333329,34.73958333333332,0)" xlink:href="#ad"/><use transform="matrix(0.013020833333333329,0,0,0.013020833333333329,44.63541666666666,0)" xlink:href="#X"/><use transform="matrix(0.013020833333333329,0,0,0.013020833333333329,60.11718749999999,0)" xlink:href="#ae"/><use transform="matrix(0.013020833333333329,0,0,0.013020833333333329,72.81249999999999,0)" xlink:href="#ab"/><use transform="matrix(0.013020833333333329,0,0,0.013020833333333329,87.74739583333331,0)" xlink:href="#M"/><use transform="matrix(0.013020833333333329,0,0,0.013020833333333329,103.43749999999997,0)" xlink:href="#L"/><use transform="matrix(0.013020833333333329,0,0,0.013020833333333329,110.66406249999996,0)" xlink:href="#N"/><use transform="matrix(0.013020833333333329,0,0,0.013020833333333329,126.54947916666663,0)" xlink:href="#T"/><use transform="matrix(0.013020833333333329,0,0,0.013020833333333329,143.15104166666663,0)" xlink:href="#ad"/><use transform="matrix(0.013020833333333329,0,0,0.013020833333333329,152.91666666666663,0)" xlink:href="#L"/><use transform="matrix(0.013020833333333329,0,0,0.013020833333333329,160.14322916666663,0)" xlink:href="#ab"/><use transform="matrix(0.013020833333333329,0,0,0.013020833333333329,175.07812499999994,0)" xlink:href="#ad"/></g><path fill="#3a414a" d="M791-251c174 0 304-105 328-259h309c-53 313-276 530-642 530-293 0-491-147-602-351-117-216-116-612 1-827 110-204 310-352 601-352 365 0 593 201 641 529h-309c-23-154-152-259-326-258-256 5-388 212-388 495 0 288 130 486 387 493" id="ag"/><g id="i"><use transform="matrix(0.013020833333333329,0,0,0.013020833333333329,0,0)" xlink:href="#ag"/><use transform="matrix(0.013020833333333329,0,0,0.013020833333333329,19.726562499999993,0)" xlink:href="#X"/><use transform="matrix(0.013020833333333329,0,0,0.013020833333333329,35.20833333333332,0)" xlink:href="#ad"/><use transform="matrix(0.013020833333333329,0,0,0.013020833333333329,45.10416666666666,0)" xlink:href="#X"/><use transform="matrix(0.013020833333333329,0,0,0.013020833333333329,60.58593749999999,0)" xlink:href="#K"/><use transform="matrix(0.013020833333333329,0,0,0.013020833333333329,67.81249999999999,0)" xlink:href="#U"/><use transform="matrix(0.013020833333333329,0,0,0.013020833333333329,84.16666666666664,0)" xlink:href="#af"/></g><path fill="#3a414a" d="M437-930c54-110 147-209 319-202 308 12 451 243 453 575 2 239-83 417-223 509-69 44-146 67-232 67-168 1-262-90-317-198h-14V0H128v-1490h300v560h9zm-16 372c-2 181 73 334 241 336 168 0 241-159 240-336 1-177-71-334-240-334-169 1-243 153-241 334" id="ah"/><path fill="#3a414a" d="M860-232C803-88 701 12 513 14c-239 1-385-172-385-421v-711h300v659c-2 132 74 223 202 222 132 0 217-94 217-234v-647h301V0H864" id="ai"/><g id="j"><use transform="matrix(0.013020833333333329,0,0,0.013020833333333329,0,0)" xlink:href="#M"/><use transform="matrix(0.013020833333333329,0,0,0.013020833333333329,15.69010416666666,0)" xlink:href="#U"/><use transform="matrix(0.013020833333333329,0,0,0.013020833333333329,32.04427083333332,0)" xlink:href="#T"/><use transform="matrix(0.013020833333333329,0,0,0.013020833333333329,48.645833333333314,0)" xlink:href="#ad"/><use transform="matrix(0.013020833333333329,0,0,0.013020833333333329,58.411458333333314,0)" xlink:href="#P"/><use transform="matrix(0.013020833333333329,0,0,0.013020833333333329,69.46614583333331,0)" xlink:href="#L"/><use transform="matrix(0.013020833333333329,0,0,0.013020833333333329,76.69270833333331,0)" xlink:href="#ah"/><use transform="matrix(0.013020833333333329,0,0,0.013020833333333329,93.50260416666664,0)" xlink:href="#ai"/><use transform="matrix(0.013020833333333329,0,0,0.013020833333333329,110.10416666666663,0)" xlink:href="#ad"/><use transform="matrix(0.013020833333333329,0,0,0.013020833333333329,119.60937499999996,0)" xlink:href="#U"/><use transform="matrix(0.013020833333333329,0,0,0.013020833333333329,135.96354166666663,0)" xlink:href="#P"/></g><g id="k"><use transform="matrix(0.013020833333333329,0,0,0.013020833333333329,0,0)" xlink:href="#ac"/><use transform="matrix(0.013020833333333329,0,0,0.013020833333333329,19.257812499999993,0)" xlink:href="#X"/><use transform="matrix(0.013020833333333329,0,0,0.013020833333333329,34.73958333333332,0)" xlink:href="#ad"/><use transform="matrix(0.013020833333333329,0,0,0.013020833333333329,44.63541666666666,0)" xlink:href="#X"/></g><g id="l"><use transform="matrix(0.013020833333333329,0,0,0.013020833333333329,0,0)" xlink:href="#X"/><use transform="matrix(0.013020833333333329,0,0,0.013020833333333329,15.481770833333329,0)" xlink:href="#R"/><use transform="matrix(0.013020833333333329,0,0,0.013020833333333329,32.29166666666666,0)" xlink:href="#S"/><use transform="matrix(0.013020833333333329,0,0,0.013020833333333329,56.62760416666665,0)" xlink:href="#L"/><use transform="matrix(0.013020833333333329,0,0,0.013020833333333329,63.85416666666666,0)" xlink:href="#T"/><use transform="matrix(0.013020833333333329,0,0,0.013020833333333329,80.45572916666664,0)" xlink:href="#L"/><use transform="matrix(0.013020833333333329,0,0,0.013020833333333329,87.68229166666664,0)" xlink:href="#ab"/><use transform="matrix(0.013020833333333329,0,0,0.013020833333333329,102.61718749999997,0)" xlink:href="#ad"/><use transform="matrix(0.013020833333333329,0,0,0.013020833333333329,112.38281249999996,0)" xlink:href="#P"/><use transform="matrix(0.013020833333333329,0,0,0.013020833333333329,122.87760416666664,0)" xlink:href="#X"/><use transform="matrix(0.013020833333333329,0,0,0.013020833333333329,138.35937499999997,0)" xlink:href="#ad"/><use transform="matrix(0.013020833333333329,0,0,0.013020833333333329,147.86458333333331,0)" xlink:href="#U"/><use transform="matrix(0.013020833333333329,0,0,0.013020833333333329,164.21874999999997,0)" xlink:href="#P"/></g><g id="m"><use transform="matrix(0.013020833333333329,0,0,0.013020833333333329,0,0)" xlink:href="#ag"/><use transform="matrix(0.013020833333333329,0,0,0.013020833333333329,19.726562499999993,0)" xlink:href="#X"/><use transform="matrix(0.013020833333333329,0,0,0.013020833333333329,35.20833333333332,0)" xlink:href="#ad"/><use transform="matrix(0.013020833333333329,0,0,0.013020833333333329,45.10416666666666,0)" xlink:href="#X"/><use transform="matrix(0.013020833333333329,0,0,0.013020833333333329,60.58593749999999,0)" xlink:href="#K"/><use transform="matrix(0.013020833333333329,0,0,0.013020833333333329,67.81249999999999,0)" xlink:href="#U"/><use transform="matrix(0.013020833333333329,0,0,0.013020833333333329,84.16666666666664,0)" xlink:href="#af"/></g><g id="n"><use transform="matrix(0.013020833333333329,0,0,0.013020833333333329,0,0)" xlink:href="#P"/><use transform="matrix(0.013020833333333329,0,0,0.013020833333333329,10.20833333333333,0)" xlink:href="#N"/><use transform="matrix(0.013020833333333329,0,0,0.013020833333333329,26.354166666666657,0)" xlink:href="#X"/><use transform="matrix(0.013020833333333329,0,0,0.013020833333333329,41.835937499999986,0)" xlink:href="#R"/><use transform="matrix(0.013020833333333329,0,0,0.013020833333333329,58.645833333333314,0)" xlink:href="#N"/><use transform="matrix(0.013020833333333329,0,0,0.013020833333333329,74.53124999999997,0)" xlink:href="#P"/></g><path fill="#3a414a" d="M950-772c194 19 326 148 326 361 0 282-213 411-512 411H135v-1490h591c289-7 484 130 492 383 3 180-122 287-268 320v15zm12 332c3-131-109-215-250-215H440v404h264c156 2 255-55 258-189zm-53-618c-2-118-93-183-222-183H440v377h241c123 2 231-72 228-194" id="aj"/><path fill="#3a414a" d="M120 0v-182l551-686v-8H137v-242h897v199L514-250v8h539V0H120" id="ak"/><g id="o"><use transform="matrix(0.013020833333333329,0,0,0.013020833333333329,0,0)" xlink:href="#aj"/><use transform="matrix(0.013020833333333329,0,0,0.013020833333333329,17.64322916666666,0)" xlink:href="#P"/><use transform="matrix(0.013020833333333329,0,0,0.013020833333333329,27.85156249999999,0)" xlink:href="#U"/><use transform="matrix(0.013020833333333329,0,0,0.013020833333333329,44.20572916666665,0)" xlink:href="#T"/><use transform="matrix(0.013020833333333329,0,0,0.013020833333333329,60.80729166666664,0)" xlink:href="#ak"/><use transform="matrix(0.013020833333333329,0,0,0.013020833333333329,75.54687499999997,0)" xlink:href="#N"/></g><g id="p"><use transform="matrix(0.013020833333333329,0,0,0.013020833333333329,0,0)" xlink:href="#ak"/><use transform="matrix(0.013020833333333329,0,0,0.013020833333333329,14.739583333333329,0)" xlink:href="#U"/><use transform="matrix(0.013020833333333329,0,0,0.013020833333333329,31.09374999999999,0)" xlink:href="#T"/><use transform="matrix(0.013020833333333329,0,0,0.013020833333333329,47.695312499999986,0)" xlink:href="#N"/></g><g id="q"><use transform="matrix(0.013020833333333329,0,0,0.013020833333333329,0,0)" xlink:href="#M"/><use transform="matrix(0.013020833333333329,0,0,0.013020833333333329,15.950520833333327,0)" xlink:href="#X"/><use transform="matrix(0.013020833333333329,0,0,0.013020833333333329,31.432291666666657,0)" xlink:href="#ad"/><use transform="matrix(0.013020833333333329,0,0,0.013020833333333329,41.328124999999986,0)" xlink:href="#X"/><use transform="matrix(0.013020833333333329,0,0,0.013020833333333329,56.809895833333314,0)" xlink:href="#K"/><use transform="matrix(0.013020833333333329,0,0,0.013020833333333329,64.03645833333331,0)" xlink:href="#U"/><use transform="matrix(0.013020833333333329,0,0,0.013020833333333329,80.39062499999997,0)" xlink:href="#af"/></g><g id="r"><use transform="matrix(0.013020833333333329,0,0,0.013020833333333329,0,0)" xlink:href="#O"/><use transform="matrix(0.013020833333333329,0,0,0.013020833333333329,17.460937499999993,0)" xlink:href="#L"/><use transform="matrix(0.013020833333333329,0,0,0.013020833333333329,24.68749999999999,0)" xlink:href="#K"/><use transform="matrix(0.013020833333333329,0,0,0.013020833333333329,32.187499999999986,0)" xlink:href="#Q"/><use transform="matrix(0.013020833333333329,0,0,0.013020833333333329,47.69531249999998,0)" xlink:href="#N"/><use transform="matrix(0.013020833333333329,0,0,0.013020833333333329,63.58072916666664,0)" xlink:href="#P"/></g><path fill="#3a414a" d="M404-746c0 286 132 491 393 495 204 3 341-117 345-311H818v-232h620c4 211-1 387-83 522-105 172-295 291-560 292-301-2-503-148-613-356-115-218-113-605 4-820 111-204 311-350 602-354 237 0 421 101 527 240 58 75 94 162 108 260h-310c-40-135-148-230-320-229-254 5-389 211-389 493" id="al"/><g id="s"><use transform="matrix(0.013020833333333329,0,0,0.013020833333333329,0,0)" xlink:href="#al"/><use transform="matrix(0.013020833333333329,0,0,0.013020833333333329,20.013020833333325,0)" xlink:href="#U"/><use transform="matrix(0.013020833333333329,0,0,0.013020833333333329,36.367187499999986,0)" xlink:href="#K"/><use transform="matrix(0.013020833333333329,0,0,0.013020833333333329,43.593749999999986,0)" xlink:href="#R"/></g><g id="t"><use transform="matrix(0.013020833333333329,0,0,0.013020833333333329,0,0)" xlink:href="#ak"/><use transform="matrix(0.013020833333333329,0,0,0.013020833333333329,14.739583333333329,0)" xlink:href="#U"/><use transform="matrix(0.013020833333333329,0,0,0.013020833333333329,31.09374999999999,0)" xlink:href="#T"/><use transform="matrix(0.013020833333333329,0,0,0.013020833333333329,47.695312499999986,0)" xlink:href="#N"/></g><path fill="#3a414a" d="M1249-987c0 323-209 495-540 500H440V0H135v-1490h581c330 4 533 182 533 503zm-315 0c0-161-100-251-275-251H440v505h220c174 4 274-94 274-254" id="am"/><g id="u"><use transform="matrix(0.013020833333333329,0,0,0.013020833333333329,0,0)" xlink:href="#am"/><use transform="matrix(0.013020833333333329,0,0,0.013020833333333329,17.05729166666666,0)" xlink:href="#U"/><use transform="matrix(0.013020833333333329,0,0,0.013020833333333329,33.41145833333332,0)" xlink:href="#K"/><use transform="matrix(0.013020833333333329,0,0,0.013020833333333329,40.63802083333332,0)" xlink:href="#X"/><use transform="matrix(0.013020833333333329,0,0,0.013020833333333329,56.11979166666665,0)" xlink:href="#P"/><use transform="matrix(0.013020833333333329,0,0,0.013020833333333329,67.17447916666664,0)" xlink:href="#L"/><use transform="matrix(0.013020833333333329,0,0,0.013020833333333329,74.40104166666664,0)" xlink:href="#ab"/></g><g id="v"><use transform="matrix(0.013020833333333329,0,0,0.013020833333333329,0,0)" xlink:href="#ai"/><use transform="matrix(0.013020833333333329,0,0,0.013020833333333329,16.601562499999993,0)" xlink:href="#ab"/><use transform="matrix(0.013020833333333329,0,0,0.013020833333333329,31.53645833333332,0)" xlink:href="#N"/><use transform="matrix(0.013020833333333329,0,0,0.013020833333333329,47.421874999999986,0)" xlink:href="#P"/><use transform="matrix(0.013020833333333329,0,0,0.013020833333333329,58.28124999999999,0)" xlink:href="#ab"/></g><path fill="#3a414a" d="M754 19c-168 1-262-90-317-198h-9v597H128v-1536h295v188h14c54-110 147-209 319-202 308 12 451 243 453 575 2 239-83 417-223 509-69 44-146 67-232 67zM421-558c-2 181 73 334 241 336 168 0 241-159 240-336 1-177-71-334-240-334-169 1-243 153-241 334" id="an"/><g id="w"><use transform="matrix(0.013020833333333329,0,0,0.013020833333333329,0,0)" xlink:href="#am"/><use transform="matrix(0.013020833333333329,0,0,0.013020833333333329,17.27864583333333,0)" xlink:href="#P"/><use transform="matrix(0.013020833333333329,0,0,0.013020833333333329,28.33333333333332,0)" xlink:href="#L"/><use transform="matrix(0.013020833333333329,0,0,0.013020833333333329,35.55989583333332,0)" xlink:href="#T"/><use transform="matrix(0.013020833333333329,0,0,0.013020833333333329,52.161458333333314,0)" xlink:href="#M"/><use transform="matrix(0.013020833333333329,0,0,0.013020833333333329,67.85156249999997,0)" xlink:href="#L"/><use transform="matrix(0.013020833333333329,0,0,0.013020833333333329,75.07812499999997,0)" xlink:href="#an"/><use transform="matrix(0.013020833333333329,0,0,0.013020833333333329,92.14843749999997,0)" xlink:href="#X"/><use transform="matrix(0.013020833333333329,0,0,0.013020833333333329,107.6302083333333,0)" xlink:href="#K"/><use transform="matrix(0.013020833333333329,0,0,0.013020833333333329,114.85677083333329,0)" xlink:href="#ab"/></g><g id="x"><use transform="matrix(0.013020833333333329,0,0,0.013020833333333329,0,0)" xlink:href="#am"/><use transform="matrix(0.013020833333333329,0,0,0.013020833333333329,17.27864583333333,0)" xlink:href="#P"/><use transform="matrix(0.013020833333333329,0,0,0.013020833333333329,28.33333333333332,0)" xlink:href="#L"/><use transform="matrix(0.013020833333333329,0,0,0.013020833333333329,35.55989583333332,0)" xlink:href="#T"/><use transform="matrix(0.013020833333333329,0,0,0.013020833333333329,52.161458333333314,0)" xlink:href="#M"/><use transform="matrix(0.013020833333333329,0,0,0.013020833333333329,67.85156249999997,0)" xlink:href="#L"/><use transform="matrix(0.013020833333333329,0,0,0.013020833333333329,75.07812499999997,0)" xlink:href="#an"/><use transform="matrix(0.013020833333333329,0,0,0.013020833333333329,92.14843749999997,0)" xlink:href="#X"/><use transform="matrix(0.013020833333333329,0,0,0.013020833333333329,107.6302083333333,0)" xlink:href="#K"/></g><g id="y"><use transform="matrix(0.013020833333333329,0,0,0.013020833333333329,0,0)" xlink:href="#P"/><use transform="matrix(0.013020833333333329,0,0,0.013020833333333329,10.20833333333333,0)" xlink:href="#U"/><use transform="matrix(0.013020833333333329,0,0,0.013020833333333329,26.562499999999993,0)" xlink:href="#K"/><use transform="matrix(0.013020833333333329,0,0,0.013020833333333329,33.78906249999999,0)" xlink:href="#N"/><use transform="matrix(0.013020833333333329,0,0,0.013020833333333329,49.67447916666666,0)" xlink:href="#ab"/></g><g id="z"><use transform="matrix(0.013020833333333329,0,0,0.013020833333333329,0,0)" xlink:href="#ag"/><use transform="matrix(0.013020833333333329,0,0,0.013020833333333329,19.726562499999993,0)" xlink:href="#X"/><use transform="matrix(0.013020833333333329,0,0,0.013020833333333329,35.20833333333332,0)" xlink:href="#ad"/><use transform="matrix(0.013020833333333329,0,0,0.013020833333333329,45.10416666666666,0)" xlink:href="#X"/><use transform="matrix(0.013020833333333329,0,0,0.013020833333333329,60.58593749999999,0)" xlink:href="#K"/><use transform="matrix(0.013020833333333329,0,0,0.013020833333333329,67.81249999999999,0)" xlink:href="#U"/><use transform="matrix(0.013020833333333329,0,0,0.013020833333333329,84.16666666666664,0)" xlink:href="#af"/><use transform="matrix(0.013020833333333329,0,0,0.013020833333333329,101.01562499999997,0)" xlink:href="#ab"/></g><path fill="#3a414a" d="M427-1215c14 400 11 804 11 1215H135v-1490h468l242 684c40 133 79 309 111 455 32-147 64-324 110-455l238-684h470V0h-307c-1-414-1-822 11-1227-104 443-256 822-395 1227H826C686-399 534-781 427-1215" id="ao"/><g id="A"><use transform="matrix(0.013020833333333329,0,0,0.013020833333333329,0,0)" xlink:href="#ao"/><use transform="matrix(0.013020833333333329,0,0,0.013020833333333329,24.843749999999993,0)" xlink:href="#X"/><use transform="matrix(0.013020833333333329,0,0,0.013020833333333329,40.32552083333332,0)" xlink:href="#P"/><use transform="matrix(0.013020833333333329,0,0,0.013020833333333329,51.601562499999986,0)" xlink:href="#Y"/></g><g id="B"><use transform="matrix(0.013020833333333329,0,0,0.013020833333333329,0,0)" xlink:href="#O"/><use transform="matrix(0.013020833333333329,0,0,0.013020833333333329,17.460937499999993,0)" xlink:href="#ad"/><use transform="matrix(0.013020833333333329,0,0,0.013020833333333329,27.22656249999999,0)" xlink:href="#P"/><use transform="matrix(0.013020833333333329,0,0,0.013020833333333329,37.434895833333314,0)" xlink:href="#N"/><use transform="matrix(0.013020833333333329,0,0,0.013020833333333329,53.58072916666665,0)" xlink:href="#X"/><use transform="matrix(0.013020833333333329,0,0,0.013020833333333329,69.06249999999997,0)" xlink:href="#S"/><use transform="matrix(0.013020833333333329,0,0,0.013020833333333329,93.39843749999997,0)" xlink:href="#L"/><use transform="matrix(0.013020833333333329,0,0,0.013020833333333329,100.62499999999997,0)" xlink:href="#T"/><use transform="matrix(0.013020833333333329,0,0,0.013020833333333329,117.22656249999999,0)" xlink:href="#af"/></g><g id="C"><use transform="matrix(0.013020833333333329,0,0,0.013020833333333329,0,0)" xlink:href="#R"/><use transform="matrix(0.013020833333333329,0,0,0.013020833333333329,16.80989583333333,0)" xlink:href="#X"/><use transform="matrix(0.013020833333333329,0,0,0.013020833333333329,32.29166666666666,0)" xlink:href="#ad"/><use transform="matrix(0.013020833333333329,0,0,0.013020833333333329,42.187499999999986,0)" xlink:href="#X"/></g><g id="D"><use transform="matrix(0.013020833333333329,0,0,0.013020833333333329,0,0)" xlink:href="#K"/><use transform="matrix(0.013020833333333329,0,0,0.013020833333333329,7.226562499999997,0)" xlink:href="#U"/><use transform="matrix(0.013020833333333329,0,0,0.013020833333333329,23.841145833333325,0)" xlink:href="#X"/><use transform="matrix(0.013020833333333329,0,0,0.013020833333333329,39.32291666666666,0)" xlink:href="#R"/><use transform="matrix(0.013020833333333329,0,0,0.013020833333333329,56.13281249999998,0)" xlink:href="#N"/><use transform="matrix(0.013020833333333329,0,0,0.013020833333333329,72.01822916666664,0)" xlink:href="#P"/></g><g id="E"><use transform="matrix(0.013020833333333329,0,0,0.013020833333333329,0,0)" xlink:href="#O"/><use transform="matrix(0.013020833333333329,0,0,0.013020833333333329,17.460937499999993,0)" xlink:href="#an"/><use transform="matrix(0.013020833333333329,0,0,0.013020833333333329,34.531249999999986,0)" xlink:href="#X"/><use transform="matrix(0.013020833333333329,0,0,0.013020833333333329,50.013020833333314,0)" xlink:href="#P"/><use transform="matrix(0.013020833333333329,0,0,0.013020833333333329,61.289062499999964,0)" xlink:href="#Y"/></g><path fill="#3a414a" d="M135 0v-1490h997v253H440v360h640v249H440v375h694V0H135" id="ap"/><path fill="#3a414a" d="M75-1237v-253h1217v253H837V0H531v-1237H75" id="aq"/><path fill="#3a414a" d="M135 0v-1490h305v1237h643V0H135" id="ar"/><g id="F"><use transform="matrix(0.013020833333333329,0,0,0.013020833333333329,0,0)" xlink:href="#ap"/><use transform="matrix(0.013020833333333329,0,0,0.013020833333333329,16.19791666666666,0)" xlink:href="#aq"/><use transform="matrix(0.013020833333333329,0,0,0.013020833333333329,33.99739583333332,0)" xlink:href="#ar"/></g><g id="G"><use transform="matrix(0.013020833333333329,0,0,0.013020833333333329,0,0)" xlink:href="#aj"/><use transform="matrix(0.013020833333333329,0,0,0.013020833333333329,17.64322916666666,0)" xlink:href="#U"/><use transform="matrix(0.013020833333333329,0,0,0.013020833333333329,33.99739583333332,0)" xlink:href="#ah"/></g><path fill="#3a414a" d="M1144-70C943 50 636 48 434-70 229-190 94-420 94-744c0-325 135-556 340-676 202-118 509-120 710 0 205 118 340 351 340 676s-135 556-340 674zM404-744c0 285 129 493 385 493 258 0 385-207 385-493 0-287-127-495-385-495-257 0-385 210-385 495" id="as"/><path fill="#3a414a" d="M427-1113c29 363 18 729 20 1113H135v-1490h340l471 754c68 115 129 225 187 365-30-357-15-739-19-1119h312V0h-341C861-368 617-711 427-1113" id="at"/><g id="H"><use transform="matrix(0.013020833333333329,0,0,0.013020833333333329,0,0)" xlink:href="#ag"/><use transform="matrix(0.013020833333333329,0,0,0.013020833333333329,18.997395833333325,0)" xlink:href="#J"/><use transform="matrix(0.013020833333333329,0,0,0.013020833333333329,36.53645833333332,0)" xlink:href="#aq"/><use transform="matrix(0.013020833333333329,0,0,0.013020833333333329,51.966145833333314,0)" xlink:href="#J"/><use transform="matrix(0.013020833333333329,0,0,0.013020833333333329,71.87499999999997,0)" xlink:href="#ar"/><use transform="matrix(0.013020833333333329,0,0,0.013020833333333329,86.19791666666664,0)" xlink:href="#as"/><use transform="matrix(0.013020833333333329,0,0,0.013020833333333329,106.74479166666663,0)" xlink:href="#al"/><use transform="matrix(0.013020833333333329,0,0,0.013020833333333329,126.75781249999996,0)" xlink:href="#ae"/><use transform="matrix(0.013020833333333329,0,0,0.013020833333333329,139.45312499999994,0)" xlink:href="#J"/><use transform="matrix(0.013020833333333329,0,0,0.013020833333333329,159.3619791666666,0)" xlink:href="#ac"/><use transform="matrix(0.013020833333333329,0,0,0.013020833333333329,178.6197916666666,0)" xlink:href="#ao"/><use transform="matrix(0.013020833333333329,0,0,0.013020833333333329,203.4635416666666,0)" xlink:href="#Z"/><use transform="matrix(0.013020833333333329,0,0,0.013020833333333329,210.95052083333326,0)" xlink:href="#at"/></g><path fill="#3a414a" d="M427 279C280 36 169-253 169-607c0-380 112-729 258-974h279c-125 272-231 596-231 974 0 365 113 603 231 886H427" id="au"/><path fill="#3a414a" d="M645-881c-132 0-217 94-217 234V0H128v-1490h294v586c61-132 159-226 341-228 239-1 385 172 385 421V0H847v-659c2-133-72-223-202-222" id="av"/><path fill="#3a414a" d="M603-607c0 354-112 644-258 886H67C186-5 297-241 297-607c0-377-106-701-230-974h278c147 244 258 594 258 974" id="aw"/><g id="I"><use transform="matrix(0.013020833333333329,0,0,0.013020833333333329,0,0)" xlink:href="#au"/><use transform="matrix(0.013020833333333329,0,0,0.013020833333333329,10.533854166666664,0)" xlink:href="#av"/><use transform="matrix(0.013020833333333329,0,0,0.013020833333333329,27.135416666666657,0)" xlink:href="#L"/><use transform="matrix(0.013020833333333329,0,0,0.013020833333333329,34.36197916666666,0)" xlink:href="#R"/><use transform="matrix(0.013020833333333329,0,0,0.013020833333333329,51.171874999999986,0)" xlink:href="#R"/><use transform="matrix(0.013020833333333329,0,0,0.013020833333333329,67.98177083333331,0)" xlink:href="#N"/><use transform="matrix(0.013020833333333329,0,0,0.013020833333333329,83.86718749999997,0)" xlink:href="#T"/><use transform="matrix(0.013020833333333329,0,0,0.013020833333333329,100.46874999999997,0)" xlink:href="#aw"/></g></defs></g></svg>
