<?xml version="1.0" encoding="UTF-8" standalone="no"?>
<!--
  Licensed to the Apache Software Foundation (ASF) under one
  or more contributor license agreements.  See the NOTICE file
  distributed with this work for additional information
  regarding copyright ownership.  The ASF licenses this file
  to you under the Apache License, Version 2.0 (the
  "License"); you may not use this file except in compliance
  with the License.  You may obtain a copy of the License at

   http://www.apache.org/licenses/LICENSE-2.0

  Unless required by applicable law or agreed to in writing,
  software distributed under the License is distributed on an
  "AS IS" BASIS, WITHOUT WARRANTIES OR CONDITIONS OF ANY
  KIND, either express or implied.  See the License for the
  specific language governing permissions and limitations
  under the License.
-->
<svg xmlns="http://www.w3.org/2000/svg" xmlns:xlink="http://www.w3.org/1999/xlink" xmlns:lucid="lucid" width="1724.5" height="1242"><g transform="translate(-96 1)" lucid:page-tab-id="yf4UZfRTS3Si"><path d="M0 0h1914v1978H0z" fill="#fff"/><path d="M117 36a16 16 0 0 1 16-16h771a16 16 0 0 1 16 16v548a16 16 0 0 1-16 16H133a16 16 0 0 1-16-16z" stroke="#5d646f" stroke-width="2" fill="#f7f7f7"/><path d="M1160 577.1a16 16 0 0 1 16-16h228a16 16 0 0 1 16 16v88a16 16 0 0 1-16 16h-228a16 16 0 0 1-16-16z" stroke="#5d646f" stroke-width="2" fill="#e9ecf1"/><use xlink:href="#a" transform="matrix(1,0,0,1,1165,566.1015625) translate(31.47243923611117 35.277777777777764)"/><use xlink:href="#b" transform="matrix(1,0,0,1,1165,566.1015625) translate(132.4490017361111 35.277777777777764)"/><use xlink:href="#c" transform="matrix(1,0,0,1,1165,566.1015625) translate(179.10698784722217 35.277777777777764)"/><use xlink:href="#d" transform="matrix(1,0,0,1,1165,566.1015625) translate(47.56401909722227 62.16579861111108)"/><use xlink:href="#e" transform="matrix(1,0,0,1,1165,566.1015625) translate(152.33832465277777 62.16579861111108)"/><use xlink:href="#f" transform="matrix(1,0,0,1,1165,566.1015625) translate(72.56401909722226 89.0538194444444)"/><path d="M156 95.6a16 16 0 0 1 16-16h322a16 16 0 0 1 16 16v38a16 16 0 0 1-16 16H172a16 16 0 0 1-16-16z" stroke="#1a6ce7" stroke-width="2" fill="#d6e6ff"/><use xlink:href="#g" transform="matrix(1,0,0,1,168,91.6015625) translate(18.302169753086417 17.42225777777778)"/><use xlink:href="#h" transform="matrix(1,0,0,1,168,91.6015625) translate(100.51344864197532 17.42225777777778)"/><use xlink:href="#i" transform="matrix(1,0,0,1,168,91.6015625) translate(180.123487654321 17.42225777777778)"/><use xlink:href="#j" transform="matrix(1,0,0,1,168,91.6015625) translate(275.5829417283951 17.42225777777778)"/><use xlink:href="#k" transform="matrix(1,0,0,1,168,91.6015625) translate(5.114488518518556 43.555644444444454)"/><use xlink:href="#l" transform="matrix(1,0,0,1,168,91.6015625) translate(104.26407358024694 43.555644444444454)"/><path d="M620 112.4a16 16 0 0 1 16-16h228a16 16 0 0 1 16 16v88a16 16 0 0 1-16 16H636a16 16 0 0 1-16-16z" stroke="#1a6ce7" stroke-width="2" fill="#f1f7ff"/><use xlink:href="#m" transform="matrix(1,0,0,1,632,108.39843749999997) translate(30.239583333333428 42.52777777777776)"/><use xlink:href="#n" transform="matrix(1,0,0,1,632,108.39843749999997) translate(119.68185763888889 42.52777777777776)"/><use xlink:href="#o" transform="matrix(1,0,0,1,632,108.39843749999997) translate(166.33984374999994 42.52777777777776)"/><use xlink:href="#p" transform="matrix(1,0,0,1,632,108.39843749999997) translate(16.714192708333442 69.41579861111106)"/><use xlink:href="#q" transform="matrix(1,0,0,1,632,108.39843749999997) translate(121.48849826388887 69.41579861111106)"/><path d="M620 403a16 16 0 0 1 16-16h228a16 16 0 0 1 16 16v88.8a16 16 0 0 1-16 16H636a16 16 0 0 1-16-16z" stroke="#1a6ce7" stroke-width="2" fill="#f1f7ff"/><use xlink:href="#m" transform="matrix(1,0,0,1,632,399) translate(30.239583333333428 30.621527777777757)"/><use xlink:href="#n" transform="matrix(1,0,0,1,632,399) translate(119.68185763888889 30.621527777777757)"/><use xlink:href="#o" transform="matrix(1,0,0,1,632,399) translate(166.33984374999994 30.621527777777757)"/><use xlink:href="#r" transform="matrix(1,0,0,1,632,399) translate(68.24414062500006 57.509548611111065)"/><use xlink:href="#s" transform="matrix(1,0,0,1,632,399) translate(50.95355902777783 84.39756944444437)"/><path d="M881.5 157.26L1154.4 613.4" stroke="#4c535d" stroke-width="2" fill="none"/><path d="M882.36 156.78l-1.36.8v-3.08z" stroke="#4c535d" stroke-width=".05" fill="#4c535d"/><path d="M1158 619.42l-13.2-7.16 13.12-7.84z" stroke="#4c535d" stroke-width="2" fill="#4c535d"/><path d="M117 26a6 6 0 0 1 6-6h228a6 6 0 0 1 6 6v48a6 6 0 0 1-6 6H123a6 6 0 0 1-6-6z" stroke="#000" stroke-opacity="0" stroke-width="2" fill="#fff" fill-opacity="0"/><use xlink:href="#t" transform="matrix(1,0,0,1,122,25) translate(39.99131944444447 37.56944444444443)"/><path d="M1540 436.5a16 16 0 0 1 16-16h228a16 16 0 0 1 16 16v88a16 16 0 0 1-16 16h-228a16 16 0 0 1-16-16z" stroke="#5d646f" fill="#d5dae4"/><use xlink:href="#u" transform="matrix(1,0,0,1,1545,425.5) translate(10.942925347222285 35.277777777777764)"/><use xlink:href="#v" transform="matrix(1,0,0,1,1545,425.5) translate(99.05056423611113 35.277777777777764)"/><use xlink:href="#c" transform="matrix(1,0,0,1,1545,425.5) translate(199.63650173611106 35.277777777777764)"/><use xlink:href="#d" transform="matrix(1,0,0,1,1545,425.5) translate(46.70681423611116 62.16579861111108)"/><use xlink:href="#w" transform="matrix(1,0,0,1,1545,425.5) translate(151.48111979166666 62.16579861111108)"/><use xlink:href="#x" transform="matrix(1,0,0,1,1545,425.5) translate(70.20941840277781 89.0538194444444)"/><path d="M1540 577a16 16 0 0 1 16-16h228a16 16 0 0 1 16 16v89a16 16 0 0 1-16 16h-228a16 16 0 0 1-16-16z" stroke="#5d646f" fill="#d5dae4"/><use xlink:href="#u" transform="matrix(1,0,0,1,1545,566) translate(33.2845052083334 63.152777777777764)"/><use xlink:href="#y" transform="matrix(1,0,0,1,1545,566) translate(121.39214409722224 63.152777777777764)"/><path d="M881.85 447.93l269.52 168.4" stroke="#4c535d" stroke-width="2" fill="none"/><path d="M882.4 447.1l-1.05 1.67-.35-.22v-2.3z" stroke="#4c535d" stroke-width=".05" fill="#4c535d"/><path d="M1157.33 620.06l-15-.36 8.1-12.96z" stroke="#4c535d" stroke-width="2" fill="#4c535d"/><path d="M1540 722a16 16 0 0 1 16-16h228a16 16 0 0 1 16 16v89a16 16 0 0 1-16 16h-228a16 16 0 0 1-16-16z" stroke="#5d646f" fill="#d5dae4"/><use xlink:href="#u" transform="matrix(1,0,0,1,1545,711) translate(33.2845052083334 63.152777777777764)"/><use xlink:href="#y" transform="matrix(1,0,0,1,1545,711) translate(121.39214409722224 63.152777777777764)"/><path d="M156 176a16 16 0 0 1 16-16h322a16 16 0 0 1 16 16v38a16 16 0 0 1-16 16H172a16 16 0 0 1-16-16z" stroke="#1a6ce7" stroke-width="2" fill="#d6e6ff"/><use xlink:href="#g" transform="matrix(1,0,0,1,168,172) translate(39.38431154320986 26.04725777777778)"/><use xlink:href="#h" transform="matrix(1,0,0,1,168,172) translate(121.59559043209876 26.04725777777778)"/><use xlink:href="#z" transform="matrix(1,0,0,1,168,172) translate(201.20562944444444 26.04725777777778)"/><path d="M156 416a16 16 0 0 1 16-16h322a16 16 0 0 1 16 16v38a16 16 0 0 1-16 16H172a16 16 0 0 1-16-16z" stroke="#1a6ce7" stroke-width="2" fill="#d6e6ff"/><use xlink:href="#g" transform="matrix(1,0,0,1,168,412) translate(39.38431154320986 26.04725777777778)"/><use xlink:href="#h" transform="matrix(1,0,0,1,168,412) translate(121.59559043209876 26.04725777777778)"/><use xlink:href="#z" transform="matrix(1,0,0,1,168,412) translate(201.20562944444444 26.04725777777778)"/><path d="M156 496a16 16 0 0 1 16-16h322a16 16 0 0 1 16 16v38a16 16 0 0 1-16 16H172a16 16 0 0 1-16-16z" stroke="#1a6ce7" stroke-width="2" fill="#d6e6ff"/><use xlink:href="#g" transform="matrix(1,0,0,1,168,492) translate(39.38431154320986 26.04725777777778)"/><use xlink:href="#h" transform="matrix(1,0,0,1,168,492) translate(121.59559043209876 26.04725777777778)"/><use xlink:href="#z" transform="matrix(1,0,0,1,168,492) translate(201.20562944444444 26.04725777777778)"/><path d="M156 336a16 16 0 0 1 16-16h322a16 16 0 0 1 16 16v38a16 16 0 0 1-16 16H172a16 16 0 0 1-16-16z" stroke="#1a6ce7" stroke-width="2" fill="#d6e6ff"/><use xlink:href="#g" transform="matrix(1,0,0,1,168,332) translate(18.302169753086417 17.42225777777778)"/><use xlink:href="#h" transform="matrix(1,0,0,1,168,332) translate(100.51344864197532 17.42225777777778)"/><use xlink:href="#i" transform="matrix(1,0,0,1,168,332) translate(180.123487654321 17.42225777777778)"/><use xlink:href="#j" transform="matrix(1,0,0,1,168,332) translate(275.5829417283951 17.42225777777778)"/><use xlink:href="#k" transform="matrix(1,0,0,1,168,332) translate(0.879911975308687 43.555644444444454)"/><use xlink:href="#A" transform="matrix(1,0,0,1,168,332) translate(100.02949703703707 43.555644444444454)"/><path d="M511.85 514.47l99.53-62.3" stroke="#4c535d" stroke-width="2" fill="none"/><path d="M512.4 515.28l-1.4.87v-2.3l.35-.22z" stroke="#4c535d" stroke-width=".05" fill="#4c535d"/><path d="M617.34 448.44l-6.9 13.32-8.1-12.94z" stroke="#4c535d" stroke-width="2" fill="#4c535d"/><path d="M512 435.1l98.07 11.27" stroke="#4c535d" stroke-width="2" fill="none"/><path d="M512.13 434.15l-.22 1.94-.9-.12v-1.96z" stroke="#4c535d" stroke-width=".05" fill="#4c535d"/><path d="M617.05 447.17l-13.7 6.12 1.74-15.18z" stroke="#4c535d" stroke-width="2" fill="#4c535d"/><path d="M511.76 355.65l100.4 85.9" stroke="#4c535d" stroke-width="2" fill="none"/><path d="M512.4 354.93l-1.25 1.48-.15-.12v-2.56z" stroke="#4c535d" stroke-width=".05" fill="#4c535d"/><path d="M617.5 446.12l-14.77-2.6 9.93-11.6z" stroke="#4c535d" stroke-width="2" fill="#4c535d"/><path d="M511.93 114.96l98.69 38.2" stroke="#4c535d" stroke-width="2" fill="none"/><path d="M512.3 114.06l-.7 1.82-.6-.23v-2.1z" stroke="#4c535d" stroke-width=".05" fill="#4c535d"/><path d="M617.17 155.7l-14.8 2.45 5.5-14.24z" stroke="#4c535d" stroke-width="2" fill="#4c535d"/><path d="M511.94 194.66l98.6-35.23" stroke="#4c535d" stroke-width="2" fill="none"/><path d="M512.3 195.57l-1.3.47v-2.07l.64-.23z" stroke="#4c535d" stroke-width=".05" fill="#4c535d"/><path d="M617.15 157.06l-9.6 11.53-5.13-14.38z" stroke="#4c535d" stroke-width="2" fill="#4c535d"/><path d="M1538.86 481.26L1426.8 614.24" stroke="#4c535d" stroke-width="2" fill="none"/><path d="M1539.5 481.84l-1.4-1.18 1.4-1.67z" stroke="#4c535d" stroke-width=".05" fill="#4c535d"/><path d="M1422.27 619.6l2.48-14.8 11.67 9.85z" stroke="#4c535d" stroke-width="2" fill="#4c535d"/><path d="M1538.5 621.1H1430" stroke="#4c535d" stroke-width="2" fill="none"/><path d="M1539.5 622.08h-1.03v-1.95h1.03z" stroke="#4c535d" stroke-width=".05" fill="#4c535d"/><path d="M1422.96 621.1l12.92-7.63v15.27z" stroke="#4c535d" stroke-width="2" fill="#4c535d"/><path d="M1538.87 765.73l-112.2-137.66" stroke="#4c535d" stroke-width="2" fill="none"/><path d="M1539.5 768.04l-1.4-1.72 1.4-1.14z" stroke="#4c535d" stroke-width=".05" fill="#4c535d"/><path d="M1422.24 622.62l14.08 5.2-11.84 9.64z" stroke="#4c535d" stroke-width="2" fill="#4c535d"/><path d="M120 656a16 16 0 0 1 16-16h771a16 16 0 0 1 16 16v548a16 16 0 0 1-16 16H136a16 16 0 0 1-16-16z" stroke="#5d646f" stroke-width="2" fill="#f7f7f7"/><path d="M159 715.6a16 16 0 0 1 16-16h322a16 16 0 0 1 16 16v38a16 16 0 0 1-16 16H175a16 16 0 0 1-16-16z" stroke="#1a6ce7" stroke-width="2" fill="#d6e6ff"/><use xlink:href="#g" transform="matrix(1,0,0,1,171.0000000000001,711.6015625) translate(18.302169753086417 17.42225777777778)"/><use xlink:href="#h" transform="matrix(1,0,0,1,171.0000000000001,711.6015625) translate(100.51344864197532 17.42225777777778)"/><use xlink:href="#i" transform="matrix(1,0,0,1,171.0000000000001,711.6015625) translate(180.123487654321 17.42225777777778)"/><use xlink:href="#j" transform="matrix(1,0,0,1,171.0000000000001,711.6015625) translate(275.5829417283951 17.42225777777778)"/><use xlink:href="#k" transform="matrix(1,0,0,1,171.0000000000001,711.6015625) translate(5.114488518518556 43.555644444444454)"/><use xlink:href="#l" transform="matrix(1,0,0,1,171.0000000000001,711.6015625) translate(104.26407358024694 43.555644444444454)"/><path d="M620 732.4a16 16 0 0 1 16-16h228a16 16 0 0 1 16 16v88a16 16 0 0 1-16 16H636a16 16 0 0 1-16-16z" stroke="#1a6ce7" stroke-width="2" fill="#f1f7ff"/><g><use xlink:href="#m" transform="matrix(1,0,0,1,632,728.3984375) translate(30.239583333333428 42.52777777777776)"/><use xlink:href="#n" transform="matrix(1,0,0,1,632,728.3984375) translate(119.68185763888889 42.52777777777776)"/><use xlink:href="#o" transform="matrix(1,0,0,1,632,728.3984375) translate(166.33984374999994 42.52777777777776)"/><use xlink:href="#p" transform="matrix(1,0,0,1,632,728.3984375) translate(16.714192708333442 69.41579861111106)"/><use xlink:href="#q" transform="matrix(1,0,0,1,632,728.3984375) translate(121.48849826388887 69.41579861111106)"/></g><path d="M620 1023a16 16 0 0 1 16-16h228a16 16 0 0 1 16 16v88.8a16 16 0 0 1-16 16H636a16 16 0 0 1-16-16z" stroke="#1a6ce7" stroke-width="2" fill="#f1f7ff"/><g><use xlink:href="#m" transform="matrix(1,0,0,1,632,1019) translate(30.239583333333428 30.621527777777757)"/><use xlink:href="#n" transform="matrix(1,0,0,1,632,1019) translate(119.68185763888889 30.621527777777757)"/><use xlink:href="#o" transform="matrix(1,0,0,1,632,1019) translate(166.33984374999994 30.621527777777757)"/><use xlink:href="#r" transform="matrix(1,0,0,1,632,1019) translate(68.24414062500006 57.509548611111065)"/><use xlink:href="#s" transform="matrix(1,0,0,1,632,1019) translate(50.95355902777783 84.39756944444437)"/></g><path d="M881.87 775.9l269.28-150.4" stroke="#4c535d" stroke-width="2" fill="none"/><path d="M882.37 776.75l-1.37.76v-2.22l.42-.23z" stroke="#4c535d" stroke-width=".05" fill="#4c535d"/><path d="M1157.3 622.06l-7.56 12.96-7.45-13.33z" stroke="#4c535d" stroke-width="2" fill="#4c535d"/><path d="M120 646a6 6 0 0 1 6-6h228a6 6 0 0 1 6 6v48a6 6 0 0 1-6 6H126a6 6 0 0 1-6-6z" stroke="#000" stroke-opacity="0" stroke-width="2" fill="#fff" fill-opacity="0"/><g><use xlink:href="#B" transform="matrix(1,0,0,1,125.00000000000011,645) translate(36.45833333333337 37.56944444444443)"/></g><path d="M881.53 1066.55l272.72-437.82" stroke="#4c535d" stroke-width="2" fill="none"/><path d="M882.37 1067.04l-1.37 2.2v-3.05z" stroke="#4c535d" stroke-width=".05" fill="#4c535d"/><path d="M1157.96 622.77l-.34 15-12.97-8.08z" stroke="#4c535d" stroke-width="2" fill="#4c535d"/><path d="M159 796a16 16 0 0 1 16-16h322a16 16 0 0 1 16 16v38a16 16 0 0 1-16 16H175a16 16 0 0 1-16-16z" stroke="#1a6ce7" stroke-width="2" fill="#d6e6ff"/><g><use xlink:href="#g" transform="matrix(1,0,0,1,171.0000000000001,792) translate(39.38431154320986 26.04725777777778)"/><use xlink:href="#h" transform="matrix(1,0,0,1,171.0000000000001,792) translate(121.59559043209876 26.04725777777778)"/><use xlink:href="#z" transform="matrix(1,0,0,1,171.0000000000001,792) translate(201.20562944444444 26.04725777777778)"/></g><path d="M159 1036a16 16 0 0 1 16-16h322a16 16 0 0 1 16 16v38a16 16 0 0 1-16 16H175a16 16 0 0 1-16-16z" stroke="#1a6ce7" stroke-width="2" fill="#d6e6ff"/><g><use xlink:href="#g" transform="matrix(1,0,0,1,171.0000000000001,1032) translate(39.38431154320986 26.04725777777778)"/><use xlink:href="#h" transform="matrix(1,0,0,1,171.0000000000001,1032) translate(121.59559043209876 26.04725777777778)"/><use xlink:href="#z" transform="matrix(1,0,0,1,171.0000000000001,1032) translate(201.20562944444444 26.04725777777778)"/></g><path d="M159 1116a16 16 0 0 1 16-16h322a16 16 0 0 1 16 16v38a16 16 0 0 1-16 16H175a16 16 0 0 1-16-16z" stroke="#1a6ce7" stroke-width="2" fill="#d6e6ff"/><g><use xlink:href="#g" transform="matrix(1,0,0,1,171.0000000000001,1112) translate(39.38431154320986 26.04725777777778)"/><use xlink:href="#h" transform="matrix(1,0,0,1,171.0000000000001,1112) translate(121.59559043209876 26.04725777777778)"/><use xlink:href="#z" transform="matrix(1,0,0,1,171.0000000000001,1112) translate(201.20562944444444 26.04725777777778)"/></g><path d="M159 956a16 16 0 0 1 16-16h322a16 16 0 0 1 16 16v38a16 16 0 0 1-16 16H175a16 16 0 0 1-16-16z" stroke="#1a6ce7" stroke-width="2" fill="#d6e6ff"/><g><use xlink:href="#g" transform="matrix(1,0,0,1,171.0000000000001,952) translate(18.302169753086417 17.42225777777778)"/><use xlink:href="#h" transform="matrix(1,0,0,1,171.0000000000001,952) translate(100.51344864197532 17.42225777777778)"/><use xlink:href="#i" transform="matrix(1,0,0,1,171.0000000000001,952) translate(180.123487654321 17.42225777777778)"/><use xlink:href="#j" transform="matrix(1,0,0,1,171.0000000000001,952) translate(275.5829417283951 17.42225777777778)"/><use xlink:href="#k" transform="matrix(1,0,0,1,171.0000000000001,952) translate(0.879911975308687 43.555644444444454)"/><use xlink:href="#A" transform="matrix(1,0,0,1,171.0000000000001,952) translate(100.02949703703707 43.555644444444454)"/></g><path d="M514.84 1134.46l96.6-62.2" stroke="#4c535d" stroke-width="2" fill="none"/><path d="M515.4 1135.27l-1.4.9v-2.33l.34-.2z" stroke="#4c535d" stroke-width=".05" fill="#4c535d"/><path d="M617.35 1068.46l-6.72 13.4-8.27-12.83z" stroke="#4c535d" stroke-width="2" fill="#4c535d"/><path d="M515 1055.12l95.07 11.22" stroke="#4c535d" stroke-width="2" fill="none"/><path d="M515.13 1054.15l-.23 1.94-.9-.12v-1.96z" stroke="#4c535d" stroke-width=".05" fill="#4c535d"/><path d="M617.05 1067.17l-13.72 6.07 1.8-15.17z" stroke="#4c535d" stroke-width="2" fill="#4c535d"/><path d="M514.75 975.66l97.5 85.8" stroke="#4c535d" stroke-width="2" fill="none"/><path d="M515.4 974.95l-1.27 1.46-.13-.1v-2.6z" stroke="#4c535d" stroke-width=".05" fill="#4c535d"/><path d="M617.52 1066.1l-14.73-2.8 10.08-11.46z" stroke="#4c535d" stroke-width="2" fill="#4c535d"/><path d="M514.93 734.97l95.72 38.1" stroke="#4c535d" stroke-width="2" fill="none"/><path d="M515.3 734.08l-.7 1.8-.6-.23v-2.1z" stroke="#4c535d" stroke-width=".05" fill="#4c535d"/><path d="M617.17 775.67l-14.8 2.32 5.63-14.2z" stroke="#4c535d" stroke-width="2" fill="#4c535d"/><path d="M514.94 814.65l95.62-35.15" stroke="#4c535d" stroke-width="2" fill="none"/><path d="M515.3 815.56l-1.3.48v-2.08l.63-.23z" stroke="#4c535d" stroke-width=".05" fill="#4c535d"/><path d="M617.16 777.08l-9.5 11.62-5.26-14.34z" stroke="#4c535d" stroke-width="2" fill="#4c535d"/><defs><path fill="#3a414a" d="M1249-987c0 323-209 495-540 500H440V0H135v-1490h581c330 4 533 182 533 503zm-315 0c0-161-100-251-275-251H440v505h220c174 4 274-94 274-254" id="C"/><path fill="#3a414a" d="M667-870c-135-3-239 98-239 234V0H128v-1118h290v195h12c38-150 180-242 367-200v268c-27-8-92-15-130-15" id="D"/><path fill="#3a414a" d="M128 0v-1118h300V0H128zm315-1418c0 84-79 154-165 154s-164-70-164-154 78-154 164-154 165 70 165 154" id="E"/><path fill="#3a414a" d="M645-881c-132 0-217 94-217 234V0H128v-1118h283l4 231c58-142 159-243 348-245 239-1 384 172 384 421V0H847v-659c2-133-72-223-202-222" id="F"/><path fill="#3a414a" d="M1127-358C1089-128 896 24 628 22 277 14 81-203 81-554c0-353 196-570 547-578 265-2 459 147 497 372l-279 52c-23-107-91-188-215-188-173 0-245 159-244 341-1 180 72 341 244 341 125 0 196-85 217-195" id="G"/><path fill="#3a414a" d="M754 19c-168 1-262-90-317-198h-9v597H128v-1536h295v188h14c54-110 147-209 319-202 308 12 451 243 453 575 2 239-83 417-223 509-69 44-146 67-232 67zM421-558c-2 181 73 334 241 336 168 0 241-159 240-336 1-177-71-334-240-334-169 1-243 153-241 334" id="H"/><path fill="#3a414a" d="M767-155C711-52 603 25 440 22 229 22 68-95 68-313c0-251 196-317 422-343 96-9 166-20 208-30 44-11 63-34 63-75-1-100-70-149-175-149-109 0-184 54-211 129l-275-46c54-191 240-310 487-305 262 5 474 109 474 379V0H777v-155h-10zM356-321c-1 90 77 132 169 132 129 5 239-89 238-211v-121c-128 71-401 13-407 200" id="I"/><path fill="#3a414a" d="M428-1490V0H128v-1490h300" id="J"/><g id="a"><use transform="matrix(0.010850694444444437,0,0,0.010850694444444437,0,0)" xlink:href="#C"/><use transform="matrix(0.010850694444444437,0,0,0.010850694444444437,14.398871527777768,0)" xlink:href="#D"/><use transform="matrix(0.010850694444444437,0,0,0.010850694444444437,23.611111111111097,0)" xlink:href="#E"/><use transform="matrix(0.010850694444444437,0,0,0.010850694444444437,29.633246527777757,0)" xlink:href="#F"/><use transform="matrix(0.010850694444444437,0,0,0.010850694444444437,43.467881944444414,0)" xlink:href="#G"/><use transform="matrix(0.010850694444444437,0,0,0.010850694444444437,56.542968749999964,0)" xlink:href="#E"/><use transform="matrix(0.010850694444444437,0,0,0.010850694444444437,62.56510416666662,0)" xlink:href="#H"/><use transform="matrix(0.010850694444444437,0,0,0.010850694444444437,76.79036458333327,0)" xlink:href="#I"/><use transform="matrix(0.010850694444444437,0,0,0.010850694444444437,89.69184027777771,0)" xlink:href="#J"/></g><path fill="#3a414a" d="M919-50c-156 94-426 94-582 0C183-143 81-315 81-554c0-353 196-578 547-578s547 226 547 578c0 239-102 411-256 504zM387-555c-1 177 70 342 241 341 171 2 243-164 242-341 1-178-71-342-242-341-171-1-242 163-241 341" id="K"/><path fill="#3a414a" d="M1126-285C1071-97 883 26 633 22 277 15 87-195 81-553c0-239 100-415 253-506 80-49 175-73 284-73 364 12 547 246 525 651H378c3 169 98 275 260 277 109 0 187-49 216-132zM854-669c-13-136-87-238-233-237-146-3-230 104-241 237h474" id="L"/><g id="b"><use transform="matrix(0.010850694444444437,0,0,0.010850694444444437,0,0)" xlink:href="#D"/><use transform="matrix(0.010850694444444437,0,0,0.010850694444444437,8.50694444444444,0)" xlink:href="#K"/><use transform="matrix(0.010850694444444437,0,0,0.010850694444444437,22.13541666666665,0)" xlink:href="#J"/><use transform="matrix(0.010850694444444437,0,0,0.010850694444444437,28.157552083333314,0)" xlink:href="#L"/></g><path fill="#3a414a" d="M427 279C280 36 169-253 169-607c0-380 112-729 258-974h279c-125 272-231 596-231 974 0 365 113 603 231 886H427" id="M"/><path fill="#3a414a" d="M641-1318c-119-7-132 82-125 200h234v229H516V0H217v-889H20v-229h197v-86c-17-307 290-418 578-325l-54 226c-26-7-65-16-100-15" id="N"/><g id="c"><use transform="matrix(0.010850694444444437,0,0,0.010850694444444437,0,0)" xlink:href="#M"/><use transform="matrix(0.010850694444444437,0,0,0.010850694444444437,8.376736111111105,0)" xlink:href="#N"/><use transform="matrix(0.010850694444444437,0,0,0.010850694444444437,16.742621527777764,0)" xlink:href="#K"/><use transform="matrix(0.010850694444444437,0,0,0.010850694444444437,30.37109374999998,0)" xlink:href="#D"/></g><path fill="#3a414a" d="M42 0l360-574-338-544h324c74 126 147 256 209 394 61-140 139-268 215-394h318L785-570 1146 0H824c-81-138-166-275-234-425C526-273 440-137 360 0H42" id="O"/><path fill="#3a414a" d="M615-884c-113 1-187 84-187 208V0H128v-1118h278l12 217c47-140 157-234 319-234 141 0 237 84 288 251 50-151 180-251 359-251 213 0 357 153 357 381V0h-301v-697c4-117-71-185-177-187-113-2-184 82-184 196V0H789v-705c2-105-71-180-174-179" id="P"/><path fill="#3a414a" d="M119 395l88-620h300L323 395H119" id="Q"/><g id="d"><use transform="matrix(0.010850694444444437,0,0,0.010850694444444437,0,0)" xlink:href="#L"/><use transform="matrix(0.010850694444444437,0,0,0.010850694444444437,12.792968749999991,0)" xlink:href="#O"/><use transform="matrix(0.010850694444444437,0,0,0.010850694444444437,25.640190972222204,0)" xlink:href="#I"/><use transform="matrix(0.010850694444444437,0,0,0.010850694444444437,38.54166666666664,0)" xlink:href="#P"/><use transform="matrix(0.010850694444444437,0,0,0.010850694444444437,58.8216145833333,0)" xlink:href="#H"/><use transform="matrix(0.010850694444444437,0,0,0.010850694444444437,72.82986111111107,0)" xlink:href="#J"/><use transform="matrix(0.010850694444444437,0,0,0.010850694444444437,78.85199652777773,0)" xlink:href="#L"/><use transform="matrix(0.010850694444444437,0,0,0.010850694444444437,92.08984374999994,0)" xlink:href="#Q"/></g><path fill="#3a414a" d="M1385-746C1379-276 1127 0 659 0H135v-1490c330 12 696-38 915 90 205 120 335 337 335 654zm-304 0c2-318-133-477-435-481H440v964h204c303-4 439-164 437-483" id="R"/><path fill="#3a414a" d="M520 16C304 17 174-90 174-301v-588H20v-229h154v-266h300v266h209v229H474v562c0 69 34 104 102 104 22 0 77-9 95-13l43 225C656 7 590 15 520 16" id="S"/><g id="e"><use transform="matrix(0.010850694444444437,0,0,0.010850694444444437,0,0)" xlink:href="#R"/><use transform="matrix(0.010850694444444437,0,0,0.010850694444444437,16.04817708333332,0)" xlink:href="#I"/><use transform="matrix(0.010850694444444437,0,0,0.010850694444444437,28.949652777777757,0)" xlink:href="#S"/><use transform="matrix(0.010850694444444437,0,0,0.010850694444444437,37.19618055555553,0)" xlink:href="#I"/></g><path fill="#3a414a" d="M1166-9c-4 315-226 446-541 451-253 5-444-99-503-274l258-72c38 74 115 131 243 128 149-3 246-66 246-216v-206h-23C796-99 703-9 536-16 231-28 82-235 81-561c-3-241 87-417 229-507 69-43 144-64 227-64 172-2 266 92 321 202h13v-188h295V-9zM389-563c-1 178 73 318 241 319 168-2 242-139 240-319 1-179-72-328-240-329S388-737 389-563" id="T"/><path fill="#3a414a" d="M603-607c0 354-112 644-258 886H67C186-5 297-241 297-607c0-377-106-701-230-974h278c147 244 258 594 258 974" id="U"/><g id="f"><use transform="matrix(0.010850694444444437,0,0,0.010850694444444437,0,0)" xlink:href="#L"/><use transform="matrix(0.010850694444444437,0,0,0.010850694444444437,13.237847222222213,0)" xlink:href="#F"/><use transform="matrix(0.010850694444444437,0,0,0.010850694444444437,27.07248263888887,0)" xlink:href="#T"/><use transform="matrix(0.010850694444444437,0,0,0.010850694444444437,41.11328124999997,0)" xlink:href="#E"/><use transform="matrix(0.010850694444444437,0,0,0.010850694444444437,47.135416666666636,0)" xlink:href="#F"/><use transform="matrix(0.010850694444444437,0,0,0.010850694444444437,60.97005208333329,0)" xlink:href="#L"/><use transform="matrix(0.010850694444444437,0,0,0.010850694444444437,74.2078993055555,0)" xlink:href="#L"/><use transform="matrix(0.010850694444444437,0,0,0.010850694444444437,87.44574652777771,0)" xlink:href="#D"/><use transform="matrix(0.010850694444444437,0,0,0.010850694444444437,96.49522569444439,0)" xlink:href="#U"/></g><path d="M199 0l-22-63H83L61 0H9l90-248h61L250 0h-51zm-33-102l-36-108c-10 38-24 72-36 108h72" id="V"/><path d="M190-63c-7 42-38 67-86 67-59 0-84-38-90-98-12-110 154-137 174-36l-49 2c-2-19-15-32-35-32-30 0-35 28-38 64-6 74 65 87 74 30" id="W"/><path d="M185-48c-13 30-37 53-82 52C43 2 14-33 14-96s30-98 90-98c62 0 83 45 84 108H66c0 31 8 55 39 56 18 0 30-7 34-22zm-45-69c5-46-57-63-70-21-2 6-4 13-4 21h74" id="X"/><path d="M137-138c1-29-70-34-71-4 15 46 118 7 119 86 1 83-164 76-172 9l43-7c4 19 20 25 44 25 33 8 57-30 24-41C81-84 22-81 20-136c-2-80 154-74 161-7" id="Y"/><g id="g"><use transform="matrix(0.06049395061728395,0,0,0.06049395061728395,0,0)" xlink:href="#V"/><use transform="matrix(0.06049395061728395,0,0,0.06049395061728395,15.667933209876542,0)" xlink:href="#W"/><use transform="matrix(0.06049395061728395,0,0,0.06049395061728395,27.76672333333333,0)" xlink:href="#W"/><use transform="matrix(0.06049395061728395,0,0,0.06049395061728395,39.865513456790126,0)" xlink:href="#X"/><use transform="matrix(0.06049395061728395,0,0,0.06049395061728395,51.96430358024692,0)" xlink:href="#Y"/><use transform="matrix(0.06049395061728395,0,0,0.06049395061728395,64.06309370370371,0)" xlink:href="#Y"/></g><path d="M110-194c64 0 96 36 96 99 0 64-35 99-97 99-61 0-95-36-95-99 0-62 34-99 96-99zm-1 164c35 0 45-28 45-65 0-40-10-65-43-65-34 0-45 26-45 65 0 36 10 65 43 65" id="Z"/><path d="M135-194c87-1 58 113 63 194h-50c-7-57 23-157-34-157-59 0-34 97-39 157H25l-1-190h47c2 12-1 28 3 38 12-26 28-41 61-42" id="aa"/><path d="M115-3C79 11 28 4 28-45v-112H4v-33h27l15-45h31v45h36v33H77v99c-1 23 16 31 38 25v30" id="ab"/><path d="M135-150c-39-12-60 13-60 57V0H25l-1-190h47c2 13-1 29 3 40 6-28 27-53 61-41v41" id="ac"/><path d="M25 0v-261h50V0H25" id="ad"/><g id="h"><use transform="matrix(0.06049395061728395,0,0,0.06049395061728395,0,0)" xlink:href="#W"/><use transform="matrix(0.06049395061728395,0,0,0.06049395061728395,12.09879012345679,0)" xlink:href="#Z"/><use transform="matrix(0.06049395061728395,0,0,0.06049395061728395,25.346965308641977,0)" xlink:href="#aa"/><use transform="matrix(0.06049395061728395,0,0,0.06049395061728395,38.59514049382716,0)" xlink:href="#ab"/><use transform="matrix(0.06049395061728395,0,0,0.06049395061728395,45.79392061728395,0)" xlink:href="#ac"/><use transform="matrix(0.06049395061728395,0,0,0.06049395061728395,54.263073703703704,0)" xlink:href="#Z"/><use transform="matrix(0.06049395061728395,0,0,0.06049395061728395,67.51124888888889,0)" xlink:href="#ad"/></g><path d="M135-194c53 0 70 44 70 98 0 56-19 98-73 100-31 1-45-17-59-34 3 33 2 69 2 105H25l-1-265h48c2 10 0 23 3 31 11-24 29-35 60-35zM114-30c33 0 39-31 40-66 0-38-9-64-40-64-56 0-55 130 0 130" id="ae"/><path d="M25-224v-37h50v37H25zM25 0v-190h50V0H25" id="af"/><path d="M128 0H69L1-190h53L99-40l48-150h52" id="ag"/><path d="M195-6C206 82 75 100 31 46c-4-6-6-13-8-21l49-6c3 16 16 24 34 25 40 0 42-37 40-79-11 22-30 35-61 35-53 0-70-43-70-97 0-56 18-96 73-97 30 0 46 14 59 34l2-30h47zm-90-29c32 0 41-27 41-63 0-35-9-62-40-62-32 0-39 29-40 63 0 36 9 62 39 62" id="ah"/><g id="i"><use transform="matrix(0.06049395061728395,0,0,0.06049395061728395,0,0)" xlink:href="#ae"/><use transform="matrix(0.06049395061728395,0,0,0.06049395061728395,13.248175185185186,0)" xlink:href="#ac"/><use transform="matrix(0.06049395061728395,0,0,0.06049395061728395,21.71732827160494,0)" xlink:href="#af"/><use transform="matrix(0.06049395061728395,0,0,0.06049395061728395,27.76672333333334,0)" xlink:href="#ag"/><use transform="matrix(0.06049395061728395,0,0,0.06049395061728395,39.865513456790126,0)" xlink:href="#af"/><use transform="matrix(0.06049395061728395,0,0,0.06049395061728395,45.91490851851852,0)" xlink:href="#ad"/><use transform="matrix(0.06049395061728395,0,0,0.06049395061728395,51.96430358024692,0)" xlink:href="#X"/><use transform="matrix(0.06049395061728395,0,0,0.06049395061728395,64.06309370370371,0)" xlink:href="#ah"/><use transform="matrix(0.06049395061728395,0,0,0.06049395061728395,77.3112688888889,0)" xlink:href="#X"/></g><path d="M67-93c0 74 22 123 53 168H70C40 30 18-18 18-93s22-123 52-168h50c-32 44-53 94-53 168" id="ai"/><path d="M121-226c-27-7-43 5-38 36h38v33H83V0H34v-157H6v-33h28c-9-59 32-81 87-68v32" id="aj"/><g id="j"><use transform="matrix(0.06049395061728395,0,0,0.06049395061728395,0,0)" xlink:href="#ai"/><use transform="matrix(0.06049395061728395,0,0,0.06049395061728395,7.19878012345679,0)" xlink:href="#aj"/><use transform="matrix(0.06049395061728395,0,0,0.06049395061728395,14.39756024691358,0)" xlink:href="#Z"/><use transform="matrix(0.06049395061728395,0,0,0.06049395061728395,27.645735432098768,0)" xlink:href="#ac"/></g><path d="M144 0l-44-69L55 0H2l70-98-66-92h53l41 62 40-62h54l-67 91 71 99h-54" id="ak"/><path d="M133-34C117-15 103 5 69 4 32 3 11-16 11-54c-1-60 55-63 116-61 1-26-3-47-28-47-18 1-26 9-28 27l-52-2c7-38 36-58 82-57s74 22 75 68l1 82c-1 14 12 18 25 15v27c-30 8-71 5-69-32zm-48 3c29 0 43-24 42-57-32 0-66-3-65 30 0 17 8 27 23 27" id="al"/><path d="M220-157c-53 9-28 100-34 157h-49v-107c1-27-5-49-29-50C55-147 81-57 75 0H25l-1-190h47c2 12-1 28 3 38 10-53 101-56 108 0 13-22 24-43 59-42 82 1 51 116 57 194h-49v-107c-1-25-5-48-29-50" id="am"/><path d="M76-54c-1 42 2 86-19 110H24C36 42 46 24 48 0H25v-54h51" id="an"/><g id="k"><use transform="matrix(0.06049395061728395,0,0,0.06049395061728395,0,0)" xlink:href="#X"/><use transform="matrix(0.06049395061728395,0,0,0.06049395061728395,12.09879012345679,0)" xlink:href="#ak"/><use transform="matrix(0.06049395061728395,0,0,0.06049395061728395,24.19758024691358,0)" xlink:href="#al"/><use transform="matrix(0.06049395061728395,0,0,0.06049395061728395,36.29637037037037,0)" xlink:href="#am"/><use transform="matrix(0.06049395061728395,0,0,0.06049395061728395,55.654434567901234,0)" xlink:href="#ae"/><use transform="matrix(0.06049395061728395,0,0,0.06049395061728395,68.90260975308642,0)" xlink:href="#ad"/><use transform="matrix(0.06049395061728395,0,0,0.06049395061728395,74.95200481481481,0)" xlink:href="#X"/><use transform="matrix(0.06049395061728395,0,0,0.06049395061728395,87.05079493827161,0)" xlink:href="#an"/></g><path d="M136-208V0H84v-208H4v-40h212v40h-80" id="ao"/><path d="M182-130c37 4 62 22 62 59C244 23 116-4 24 0v-248c84 5 203-23 205 63 0 31-19 50-47 55zM76-148c40-3 101 13 101-30 0-44-60-28-101-31v61zm0 110c48-3 116 14 116-37 0-48-69-32-116-35v72" id="ap"/><path d="M24 0v-248h52v208h133V0H24" id="aq"/><path d="M24 0v-248h195v40H76v63h132v40H76v65h150V0H24" id="ar"/><path d="M-4 44V30h207v14H-4" id="as"/><path d="M240-174c0 40-23 61-54 70L253 0h-59l-57-94H76V0H24v-248c93 4 217-23 216 74zM76-134c48-2 112 12 112-38 0-48-66-32-112-35v73" id="at"/><path d="M24-248c120-7 223 5 221 122C244-46 201 0 124 0H24v-248zM76-40c74 7 117-18 117-86 0-67-45-88-117-82v168" id="au"/><path d="M102-93c0 74-22 123-52 168H0C30 29 54-18 53-93c0-74-22-123-53-168h50c30 45 52 94 52 168" id="av"/><g id="l"><use transform="matrix(0.06049395061728395,0,0,0.06049395061728395,0,0)" xlink:href="#ao"/><use transform="matrix(0.06049395061728395,0,0,0.06049395061728395,11.61483851851852,0)" xlink:href="#V"/><use transform="matrix(0.06049395061728395,0,0,0.06049395061728395,27.282771728395062,0)" xlink:href="#ap"/><use transform="matrix(0.06049395061728395,0,0,0.06049395061728395,42.950704938271606,0)" xlink:href="#aq"/><use transform="matrix(0.06049395061728395,0,0,0.06049395061728395,56.19888012345679,0)" xlink:href="#ar"/><use transform="matrix(0.06049395061728395,0,0,0.06049395061728395,70.71742827160494,0)" xlink:href="#as"/><use transform="matrix(0.06049395061728395,0,0,0.06049395061728395,82.81621839506174,0)" xlink:href="#at"/><use transform="matrix(0.06049395061728395,0,0,0.06049395061728395,98.48415160493828,0)" xlink:href="#ar"/><use transform="matrix(0.06049395061728395,0,0,0.06049395061728395,113.00269975308643,0)" xlink:href="#V"/><use transform="matrix(0.06049395061728395,0,0,0.06049395061728395,128.67063296296297,0)" xlink:href="#au"/><use transform="matrix(0.06049395061728395,0,0,0.06049395061728395,144.3385661728395,0)" xlink:href="#as"/><use transform="matrix(0.06049395061728395,0,0,0.06049395061728395,156.4373562962963,0)" xlink:href="#au"/><use transform="matrix(0.06049395061728395,0,0,0.06049395061728395,172.10528950617282,0)" xlink:href="#V"/><use transform="matrix(0.06049395061728395,0,0,0.06049395061728395,186.13988604938268,0)" xlink:href="#ao"/><use transform="matrix(0.06049395061728395,0,0,0.06049395061728395,197.75472456790118,0)" xlink:href="#V"/><use transform="matrix(0.06049395061728395,0,0,0.06049395061728395,213.42265777777772,0)" xlink:href="#av"/></g><path fill="#333" d="M791-251c174 0 304-105 328-259h309c-53 313-276 530-642 530-293 0-491-147-602-351-117-216-116-612 1-827 110-204 310-352 601-352 365 0 593 201 641 529h-309c-23-154-152-259-326-258-256 5-388 212-388 495 0 288 130 486 387 493" id="aw"/><path fill="#333" d="M767-155C711-52 603 25 440 22 229 22 68-95 68-313c0-251 196-317 422-343 96-9 166-20 208-30 44-11 63-34 63-75-1-100-70-149-175-149-109 0-184 54-211 129l-275-46c54-191 240-310 487-305 262 5 474 109 474 379V0H777v-155h-10zM356-321c-1 90 77 132 169 132 129 5 239-89 238-211v-121c-128 71-401 13-407 200" id="ax"/><path fill="#333" d="M520 16C304 17 174-90 174-301v-588H20v-229h154v-266h300v266h209v229H474v562c0 69 34 104 102 104 22 0 77-9 95-13l43 225C656 7 590 15 520 16" id="ay"/><path fill="#333" d="M428-1490V0H128v-1490h300" id="az"/><path fill="#333" d="M919-50c-156 94-426 94-582 0C183-143 81-315 81-554c0-353 196-578 547-578s547 226 547 578c0 239-102 411-256 504zM387-555c-1 177 70 342 241 341 171 2 243-164 242-341 1-178-71-342-242-341-171-1-242 163-241 341" id="aA"/><path fill="#333" d="M1166-9c-4 315-226 446-541 451-253 5-444-99-503-274l258-72c38 74 115 131 243 128 149-3 246-66 246-216v-206h-23C796-99 703-9 536-16 231-28 82-235 81-561c-3-241 87-417 229-507 69-43 144-64 227-64 172-2 266 92 321 202h13v-188h295V-9zM389-563c-1 178 73 318 241 319 168-2 242-139 240-319 1-179-72-328-240-329S388-737 389-563" id="aB"/><g id="m"><use transform="matrix(0.010850694444444434,0,0,0.010850694444444434,0,0)" xlink:href="#aw"/><use transform="matrix(0.010850694444444434,0,0,0.010850694444444434,16.438802083333318,0)" xlink:href="#ax"/><use transform="matrix(0.010850694444444434,0,0,0.010850694444444434,29.34027777777775,0)" xlink:href="#ay"/><use transform="matrix(0.010850694444444434,0,0,0.010850694444444434,37.586805555555515,0)" xlink:href="#ax"/><use transform="matrix(0.010850694444444434,0,0,0.010850694444444434,50.48828124999994,0)" xlink:href="#az"/><use transform="matrix(0.010850694444444434,0,0,0.010850694444444434,56.5104166666666,0)" xlink:href="#aA"/><use transform="matrix(0.010850694444444434,0,0,0.010850694444444434,70.13888888888881,0)" xlink:href="#aB"/></g><path fill="#333" d="M667-870c-135-3-239 98-239 234V0H128v-1118h290v195h12c38-150 180-242 367-200v268c-27-8-92-15-130-15" id="aC"/><path fill="#333" d="M1126-285C1071-97 883 26 633 22 277 15 87-195 81-553c0-239 100-415 253-506 80-49 175-73 284-73 364 12 547 246 525 651H378c3 169 98 275 260 277 109 0 187-49 216-132zM854-669c-13-136-87-238-233-237-146-3-230 104-241 237h474" id="aD"/><g id="n"><use transform="matrix(0.010850694444444434,0,0,0.010850694444444434,0,0)" xlink:href="#aC"/><use transform="matrix(0.010850694444444434,0,0,0.010850694444444434,8.506944444444436,0)" xlink:href="#aA"/><use transform="matrix(0.010850694444444434,0,0,0.010850694444444434,22.135416666666643,0)" xlink:href="#az"/><use transform="matrix(0.010850694444444434,0,0,0.010850694444444434,28.157552083333304,0)" xlink:href="#aD"/></g><path fill="#333" d="M427 279C280 36 169-253 169-607c0-380 112-729 258-974h279c-125 272-231 596-231 974 0 365 113 603 231 886H427" id="aE"/><path fill="#333" d="M641-1318c-119-7-132 82-125 200h234v229H516V0H217v-889H20v-229h197v-86c-17-307 290-418 578-325l-54 226c-26-7-65-16-100-15" id="aF"/><g id="o"><use transform="matrix(0.010850694444444434,0,0,0.010850694444444434,0,0)" xlink:href="#aE"/><use transform="matrix(0.010850694444444434,0,0,0.010850694444444434,8.376736111111104,0)" xlink:href="#aF"/><use transform="matrix(0.010850694444444434,0,0,0.010850694444444434,16.74262152777776,0)" xlink:href="#aA"/><use transform="matrix(0.010850694444444434,0,0,0.010850694444444434,30.371093749999968,0)" xlink:href="#aC"/></g><path fill="#333" d="M42 0l360-574-338-544h324c74 126 147 256 209 394 61-140 139-268 215-394h318L785-570 1146 0H824c-81-138-166-275-234-425C526-273 440-137 360 0H42" id="aG"/><path fill="#333" d="M615-884c-113 1-187 84-187 208V0H128v-1118h278l12 217c47-140 157-234 319-234 141 0 237 84 288 251 50-151 180-251 359-251 213 0 357 153 357 381V0h-301v-697c4-117-71-185-177-187-113-2-184 82-184 196V0H789v-705c2-105-71-180-174-179" id="aH"/><path fill="#333" d="M754 19c-168 1-262-90-317-198h-9v597H128v-1536h295v188h14c54-110 147-209 319-202 308 12 451 243 453 575 2 239-83 417-223 509-69 44-146 67-232 67zM421-558c-2 181 73 334 241 336 168 0 241-159 240-336 1-177-71-334-240-334-169 1-243 153-241 334" id="aI"/><path fill="#333" d="M119 395l88-620h300L323 395H119" id="aJ"/><g id="p"><use transform="matrix(0.010850694444444434,0,0,0.010850694444444434,0,0)" xlink:href="#aD"/><use transform="matrix(0.010850694444444434,0,0,0.010850694444444434,12.792968749999988,0)" xlink:href="#aG"/><use transform="matrix(0.010850694444444434,0,0,0.010850694444444434,25.640190972222197,0)" xlink:href="#ax"/><use transform="matrix(0.010850694444444434,0,0,0.010850694444444434,38.54166666666663,0)" xlink:href="#aH"/><use transform="matrix(0.010850694444444434,0,0,0.010850694444444434,58.82161458333327,0)" xlink:href="#aI"/><use transform="matrix(0.010850694444444434,0,0,0.010850694444444434,72.82986111111103,0)" xlink:href="#az"/><use transform="matrix(0.010850694444444434,0,0,0.010850694444444434,78.85199652777769,0)" xlink:href="#aD"/><use transform="matrix(0.010850694444444434,0,0,0.010850694444444434,92.08984374999991,0)" xlink:href="#aJ"/></g><path fill="#333" d="M1249-1005c-1 217-104 358-264 424L1302 0H964L680-532H440V0H135v-1490h581c320-6 533 181 533 485zm-315 0c-2-162-101-233-275-233H440v459h220c183 0 274-75 274-226" id="aK"/><path fill="#333" d="M853-179C799-71 705 25 537 19 227 8 84-226 81-557c-3-243 85-420 227-511 69-43 144-64 227-64 172-3 264 92 318 202h10v-560h300V0H868v-179h-15zM389-558c-1 177 71 336 240 336 167-2 242-156 240-336 2-181-72-332-240-334-169 0-241 157-240 334" id="aL"/><path fill="#333" d="M581-917c-84-2-174 38-174 113 0 78 60 100 144 117l201 40c213 43 320 144 320 302 0 257-230 361-500 367C314 24 116-93 78-306l279-48c29 104 103 156 224 156 95 2 180-35 185-115 6-116-227-130-337-155-214-48-322-150-322-317 2-234 218-347 470-347 249 0 420 107 466 298l-266 47c-25-77-90-132-196-130" id="aM"/><path fill="#333" d="M603-607c0 354-112 644-258 886H67C186-5 297-241 297-607c0-377-106-701-230-974h278c147 244 258 594 258 974" id="aN"/><g id="q"><use transform="matrix(0.010850694444444434,0,0,0.010850694444444434,0,0)" xlink:href="#aK"/><use transform="matrix(0.010850694444444434,0,0,0.010850694444444434,14.322916666666652,0)" xlink:href="#aD"/><use transform="matrix(0.010850694444444434,0,0,0.010850694444444434,27.77777777777775,0)" xlink:href="#ax"/><use transform="matrix(0.010850694444444434,0,0,0.010850694444444434,40.679253472222186,0)" xlink:href="#aL"/><use transform="matrix(0.010850694444444434,0,0,0.010850694444444434,54.68749999999994,0)" xlink:href="#aD"/><use transform="matrix(0.010850694444444434,0,0,0.010850694444444434,67.92534722222216,0)" xlink:href="#aC"/><use transform="matrix(0.010850694444444434,0,0,0.010850694444444434,76.97482638888881,0)" xlink:href="#aM"/><use transform="matrix(0.010850694444444434,0,0,0.010850694444444434,89.42057291666657,0)" xlink:href="#aN"/></g><g id="r"><use transform="matrix(0.010850694444444434,0,0,0.010850694444444434,0,0)" xlink:href="#aD"/><use transform="matrix(0.010850694444444434,0,0,0.010850694444444434,12.792968749999988,0)" xlink:href="#aG"/><use transform="matrix(0.010850694444444434,0,0,0.010850694444444434,25.640190972222197,0)" xlink:href="#ax"/><use transform="matrix(0.010850694444444434,0,0,0.010850694444444434,38.54166666666663,0)" xlink:href="#aH"/><use transform="matrix(0.010850694444444434,0,0,0.010850694444444434,58.82161458333327,0)" xlink:href="#aI"/><use transform="matrix(0.010850694444444434,0,0,0.010850694444444434,72.82986111111103,0)" xlink:href="#az"/><use transform="matrix(0.010850694444444434,0,0,0.010850694444444434,78.85199652777769,0)" xlink:href="#aD"/><use transform="matrix(0.010850694444444434,0,0,0.010850694444444434,92.08984374999991,0)" xlink:href="#aJ"/></g><path fill="#333" d="M645-881c-132 0-217 94-217 234V0H128v-1118h283l4 231c58-142 159-243 348-245 239-1 384 172 384 421V0H847v-659c2-133-72-223-202-222" id="aO"/><path fill="#333" d="M128 0v-1118h300V0H128zm315-1418c0 84-79 154-165 154s-164-70-164-154 78-154 164-154 165 70 165 154" id="aP"/><path fill="#333" d="M437-930c54-110 147-209 319-202 308 12 451 243 453 575 2 239-83 417-223 509-69 44-146 67-232 67-168 1-262-90-317-198h-14V0H128v-1490h300v560h9zm-16 372c-2 181 73 334 241 336 168 0 241-159 240-336 1-177-71-334-240-334-169 1-243 153-241 334" id="aQ"/><path fill="#333" d="M860-232C803-88 701 12 513 14c-239 1-385-172-385-421v-711h300v659c-2 132 74 223 202 222 132 0 217-94 217-234v-647h301V0H864" id="aR"/><g id="s"><use transform="matrix(0.010850694444444434,0,0,0.010850694444444434,0,0)" xlink:href="#aw"/><use transform="matrix(0.010850694444444434,0,0,0.010850694444444434,16.438802083333318,0)" xlink:href="#aA"/><use transform="matrix(0.010850694444444434,0,0,0.010850694444444434,30.067274305555532,0)" xlink:href="#aO"/><use transform="matrix(0.010850694444444434,0,0,0.010850694444444434,43.901909722222186,0)" xlink:href="#ay"/><use transform="matrix(0.010850694444444434,0,0,0.010850694444444434,52.039930555555515,0)" xlink:href="#aC"/><use transform="matrix(0.010850694444444434,0,0,0.010850694444444434,61.252170138888836,0)" xlink:href="#aP"/><use transform="matrix(0.010850694444444434,0,0,0.010850694444444434,67.2743055555555,0)" xlink:href="#aQ"/><use transform="matrix(0.010850694444444434,0,0,0.010850694444444434,81.28255208333326,0)" xlink:href="#aR"/><use transform="matrix(0.010850694444444434,0,0,0.010850694444444434,95.1171874999999,0)" xlink:href="#ay"/><use transform="matrix(0.010850694444444434,0,0,0.010850694444444434,103.03819444444436,0)" xlink:href="#aA"/><use transform="matrix(0.010850694444444434,0,0,0.010850694444444434,116.66666666666657,0)" xlink:href="#aC"/><use transform="matrix(0.010850694444444434,0,0,0.010850694444444434,125.71614583333323,0)" xlink:href="#aN"/></g><path fill="#3a414a" d="M791-251c174 0 304-105 328-259h309c-53 313-276 530-642 530-293 0-491-147-602-351-117-216-116-612 1-827 110-204 310-352 601-352 365 0 593 201 641 529h-309c-23-154-152-259-326-258-256 5-388 212-388 495 0 288 130 486 387 493" id="aS"/><path fill="#3a414a" d="M749-1490V0H444v-1221h-10L93-980v-279l329-231h327" id="aT"/><g id="t"><use transform="matrix(0.017361111111111105,0,0,0.017361111111111105,0,0)" xlink:href="#aS"/><use transform="matrix(0.017361111111111105,0,0,0.017361111111111105,26.302083333333325,0)" xlink:href="#I"/><use transform="matrix(0.017361111111111105,0,0,0.017361111111111105,46.94444444444443,0)" xlink:href="#S"/><use transform="matrix(0.017361111111111105,0,0,0.017361111111111105,60.13888888888888,0)" xlink:href="#I"/><use transform="matrix(0.017361111111111105,0,0,0.017361111111111105,80.78124999999997,0)" xlink:href="#J"/><use transform="matrix(0.017361111111111105,0,0,0.017361111111111105,90.41666666666663,0)" xlink:href="#K"/><use transform="matrix(0.017361111111111105,0,0,0.017361111111111105,112.22222222222217,0)" xlink:href="#T"/><use transform="matrix(0.017361111111111105,0,0,0.017361111111111105,134.68749999999994,0)" xlink:href="#aT"/></g><path fill="#3a414a" d="M1256-424c0 297-250 446-575 446C340 22 91-136 85-462h297c7 151 137 226 296 226 141 3 268-63 271-190 0-51-22-91-67-118-77-51-241-82-354-112-219-56-403-156-403-405 0-303 248-442 560-449 221-1 390 83 480 214 46 67 70 144 71 231H941c-11-126-117-188-259-188-134 0-244 56-244 172 0 126 131 162 238 188 280 69 580 136 580 469" id="aU"/><path fill="#3a414a" d="M443 0L31-1118h319c91 293 198 571 268 885 66-316 176-591 264-885h315L784 0H443" id="aV"/><g id="u"><use transform="matrix(0.010850694444444437,0,0,0.010850694444444437,0,0)" xlink:href="#aU"/><use transform="matrix(0.010850694444444437,0,0,0.010850694444444437,14.55078124999999,0)" xlink:href="#L"/><use transform="matrix(0.010850694444444437,0,0,0.010850694444444437,27.7886284722222,0)" xlink:href="#D"/><use transform="matrix(0.010850694444444437,0,0,0.010850694444444437,37.185329861111086,0)" xlink:href="#aV"/><use transform="matrix(0.010850694444444437,0,0,0.010850694444444437,50.50998263888886,0)" xlink:href="#E"/><use transform="matrix(0.010850694444444437,0,0,0.010850694444444437,56.532118055555515,0)" xlink:href="#G"/><use transform="matrix(0.010850694444444437,0,0,0.010850694444444437,69.60720486111107,0)" xlink:href="#L"/></g><g id="v"><use transform="matrix(0.010850694444444437,0,0,0.010850694444444437,0,0)" xlink:href="#H"/><use transform="matrix(0.010850694444444437,0,0,0.010850694444444437,14.008246527777768,0)" xlink:href="#D"/><use transform="matrix(0.010850694444444437,0,0,0.010850694444444437,23.22048611111109,0)" xlink:href="#E"/><use transform="matrix(0.010850694444444437,0,0,0.010850694444444437,29.242621527777757,0)" xlink:href="#F"/><use transform="matrix(0.010850694444444437,0,0,0.010850694444444437,43.077256944444414,0)" xlink:href="#G"/><use transform="matrix(0.010850694444444437,0,0,0.010850694444444437,56.152343749999964,0)" xlink:href="#E"/><use transform="matrix(0.010850694444444437,0,0,0.010850694444444437,62.17447916666662,0)" xlink:href="#H"/><use transform="matrix(0.010850694444444437,0,0,0.010850694444444437,76.39973958333327,0)" xlink:href="#I"/><use transform="matrix(0.010850694444444437,0,0,0.010850694444444437,89.30121527777771,0)" xlink:href="#J"/></g><path fill="#3a414a" d="M135 0v-1490h980v253H440v416h609v249H440V0H135" id="aW"/><path fill="#3a414a" d="M128 0v-1490h300v802h17l366-430h347L740-633 1179 0H826L514-456l-86 97V0H128" id="aX"/><g id="w"><use transform="matrix(0.010850694444444437,0,0,0.010850694444444437,0,0)" xlink:href="#aW"/><use transform="matrix(0.010850694444444437,0,0,0.010850694444444437,13.042534722222213,0)" xlink:href="#J"/><use transform="matrix(0.010850694444444437,0,0,0.010850694444444437,19.064670138888875,0)" xlink:href="#E"/><use transform="matrix(0.010850694444444437,0,0,0.010850694444444437,25.086805555555532,0)" xlink:href="#F"/><use transform="matrix(0.010850694444444437,0,0,0.010850694444444437,38.92144097222219,0)" xlink:href="#aX"/></g><path fill="#3a414a" d="M581-917c-84-2-174 38-174 113 0 78 60 100 144 117l201 40c213 43 320 144 320 302 0 257-230 361-500 367C314 24 116-93 78-306l279-48c29 104 103 156 224 156 95 2 180-35 185-115 6-116-227-130-337-155-214-48-322-150-322-317 2-234 218-347 470-347 249 0 420 107 466 298l-266 47c-25-77-90-132-196-130" id="aY"/><g id="x"><use transform="matrix(0.010850694444444437,0,0,0.010850694444444437,0,0)" xlink:href="#E"/><use transform="matrix(0.010850694444444437,0,0,0.010850694444444437,6.0221354166666625,0)" xlink:href="#F"/><use transform="matrix(0.010850694444444437,0,0,0.010850694444444437,19.85677083333332,0)" xlink:href="#T"/><use transform="matrix(0.010850694444444437,0,0,0.010850694444444437,33.89756944444442,0)" xlink:href="#L"/><use transform="matrix(0.010850694444444437,0,0,0.010850694444444437,47.135416666666636,0)" xlink:href="#aY"/><use transform="matrix(0.010850694444444437,0,0,0.010850694444444437,59.58116319444441,0)" xlink:href="#S"/><use transform="matrix(0.010850694444444437,0,0,0.010850694444444437,67.71918402777774,0)" xlink:href="#E"/><use transform="matrix(0.010850694444444437,0,0,0.010850694444444437,73.7413194444444,0)" xlink:href="#K"/><use transform="matrix(0.010850694444444437,0,0,0.010850694444444437,87.36979166666661,0)" xlink:href="#F"/><use transform="matrix(0.010850694444444437,0,0,0.010850694444444437,101.20442708333327,0)" xlink:href="#U"/></g><g id="y"><use transform="matrix(0.010850694444444437,0,0,0.010850694444444437,0,0)" xlink:href="#H"/><use transform="matrix(0.010850694444444437,0,0,0.010850694444444437,14.008246527777768,0)" xlink:href="#D"/><use transform="matrix(0.010850694444444437,0,0,0.010850694444444437,23.22048611111109,0)" xlink:href="#E"/><use transform="matrix(0.010850694444444437,0,0,0.010850694444444437,29.242621527777757,0)" xlink:href="#F"/><use transform="matrix(0.010850694444444437,0,0,0.010850694444444437,43.077256944444414,0)" xlink:href="#G"/><use transform="matrix(0.010850694444444437,0,0,0.010850694444444437,56.152343749999964,0)" xlink:href="#E"/><use transform="matrix(0.010850694444444437,0,0,0.010850694444444437,62.17447916666662,0)" xlink:href="#H"/><use transform="matrix(0.010850694444444437,0,0,0.010850694444444437,76.39973958333327,0)" xlink:href="#I"/><use transform="matrix(0.010850694444444437,0,0,0.010850694444444437,89.30121527777771,0)" xlink:href="#J"/></g><g id="z"><use transform="matrix(0.06049395061728395,0,0,0.06049395061728395,0,0)" xlink:href="#ae"/><use transform="matrix(0.06049395061728395,0,0,0.06049395061728395,13.248175185185186,0)" xlink:href="#ac"/><use transform="matrix(0.06049395061728395,0,0,0.06049395061728395,21.71732827160494,0)" xlink:href="#af"/><use transform="matrix(0.06049395061728395,0,0,0.06049395061728395,27.76672333333334,0)" xlink:href="#ag"/><use transform="matrix(0.06049395061728395,0,0,0.06049395061728395,39.865513456790126,0)" xlink:href="#af"/><use transform="matrix(0.06049395061728395,0,0,0.06049395061728395,45.91490851851852,0)" xlink:href="#ad"/><use transform="matrix(0.06049395061728395,0,0,0.06049395061728395,51.96430358024692,0)" xlink:href="#X"/><use transform="matrix(0.06049395061728395,0,0,0.06049395061728395,64.06309370370371,0)" xlink:href="#ah"/><use transform="matrix(0.06049395061728395,0,0,0.06049395061728395,77.3112688888889,0)" xlink:href="#X"/></g><path d="M275 0h-61l-44-196L126 0H64L0-248h53L97-49l45-199h58l43 199 44-199h52" id="aZ"/><path d="M24 0v-248h52V0H24" id="ba"/><g id="A"><use transform="matrix(0.06049395061728395,0,0,0.06049395061728395,0,0)" xlink:href="#ao"/><use transform="matrix(0.06049395061728395,0,0,0.06049395061728395,11.61483851851852,0)" xlink:href="#V"/><use transform="matrix(0.06049395061728395,0,0,0.06049395061728395,27.282771728395062,0)" xlink:href="#ap"/><use transform="matrix(0.06049395061728395,0,0,0.06049395061728395,42.950704938271606,0)" xlink:href="#aq"/><use transform="matrix(0.06049395061728395,0,0,0.06049395061728395,56.19888012345679,0)" xlink:href="#ar"/><use transform="matrix(0.06049395061728395,0,0,0.06049395061728395,70.71742827160494,0)" xlink:href="#as"/><use transform="matrix(0.06049395061728395,0,0,0.06049395061728395,82.81621839506174,0)" xlink:href="#aZ"/><use transform="matrix(0.06049395061728395,0,0,0.06049395061728395,103.323667654321,0)" xlink:href="#at"/><use transform="matrix(0.06049395061728395,0,0,0.06049395061728395,118.99160086419754,0)" xlink:href="#ba"/><use transform="matrix(0.06049395061728395,0,0,0.06049395061728395,125.04099592592593,0)" xlink:href="#ao"/><use transform="matrix(0.06049395061728395,0,0,0.06049395061728395,138.2891711111111,0)" xlink:href="#ar"/><use transform="matrix(0.06049395061728395,0,0,0.06049395061728395,152.80771925925924,0)" xlink:href="#as"/><use transform="matrix(0.06049395061728395,0,0,0.06049395061728395,164.90650938271602,0)" xlink:href="#au"/><use transform="matrix(0.06049395061728395,0,0,0.06049395061728395,180.57444259259256,0)" xlink:href="#V"/><use transform="matrix(0.06049395061728395,0,0,0.06049395061728395,194.60903913580242,0)" xlink:href="#ao"/><use transform="matrix(0.06049395061728395,0,0,0.06049395061728395,206.22387765432092,0)" xlink:href="#V"/><use transform="matrix(0.06049395061728395,0,0,0.06049395061728395,221.89181086419745,0)" xlink:href="#av"/></g><path fill="#3a414a" d="M110-1033c9-308 212-470 523-477 213-1 375 83 459 212 72 107 92 262 34 392-77 171-198 269-353 422L548-262v11h630V0H124v-220l528-495c67-66 120-124 156-173s54-103 54-163c3-132-101-217-231-215-139-1-232 92-229 233H110" id="bb"/><g id="B"><use transform="matrix(0.017361111111111105,0,0,0.017361111111111105,0,0)" xlink:href="#aS"/><use transform="matrix(0.017361111111111105,0,0,0.017361111111111105,26.302083333333325,0)" xlink:href="#I"/><use transform="matrix(0.017361111111111105,0,0,0.017361111111111105,46.94444444444443,0)" xlink:href="#S"/><use transform="matrix(0.017361111111111105,0,0,0.017361111111111105,60.13888888888888,0)" xlink:href="#I"/><use transform="matrix(0.017361111111111105,0,0,0.017361111111111105,80.78124999999997,0)" xlink:href="#J"/><use transform="matrix(0.017361111111111105,0,0,0.017361111111111105,90.41666666666663,0)" xlink:href="#K"/><use transform="matrix(0.017361111111111105,0,0,0.017361111111111105,112.22222222222217,0)" xlink:href="#T"/><use transform="matrix(0.017361111111111105,0,0,0.017361111111111105,134.68749999999994,0)" xlink:href="#bb"/></g></defs></g></svg>
