<svg xmlns="http://www.w3.org/2000/svg" xmlns:xlink="http://www.w3.org/1999/xlink" contentStyleType="text/css" data-diagram-type="DESCRIPTION" height="531px" preserveAspectRatio="none" style="width:1119px;height:531px;background:#FFFFFF;" version="1.1" viewBox="0 0 1119 531" width="1119px" zoomAndPan="magnify"><defs/><g><!--entity Realm--><g id="elem_Realm"><rect fill="#F1F1F1" height="36.4883" rx="2.5" ry="2.5" style="stroke:#181818;stroke-width:0.5;" width="61.501" x="516.47" y="7"/><text fill="#000000" font-family="sans-serif" font-size="14" lengthAdjust="spacing" textLength="41.501" x="526.47" y="30.5352">Realm</text></g><!--entity C0--><g id="elem_C0"><rect fill="#FAEBD7" height="36.4883" rx="2.5" ry="2.5" style="stroke:#181818;stroke-width:0.5;" width="42.9688" x="525.73" y="103.49"/><text fill="#000000" font-family="sans-serif" font-size="14" lengthAdjust="spacing" textLength="22.9688" x="535.73" y="127.0252">C 0</text></g><!--entity Ns0--><g id="elem_Ns0"><rect fill="#E6E6FA" height="36.4883" rx="2.5" ry="2.5" style="stroke:#181818;stroke-width:0.5;" width="51.165" x="521.64" y="199.98"/><text fill="#000000" font-family="sans-serif" font-size="14" lengthAdjust="spacing" textLength="31.165" x="531.64" y="223.5152">NS 0</text></g><!--entity Ns1--><g id="elem_Ns1"><rect fill="#E6E6FA" height="36.4883" rx="2.5" ry="2.5" style="stroke:#181818;stroke-width:0.5;" width="51.165" x="111.64" y="296.47"/><text fill="#000000" font-family="sans-serif" font-size="14" lengthAdjust="spacing" textLength="31.165" x="121.64" y="320.0052">NS 1</text></g><!--entity Ns2--><g id="elem_Ns2"><rect fill="#E6E6FA" height="36.4883" rx="2.5" ry="2.5" style="stroke:#181818;stroke-width:0.5;" width="51.165" x="220.64" y="296.47"/><text fill="#000000" font-family="sans-serif" font-size="14" lengthAdjust="spacing" textLength="31.165" x="230.64" y="320.0052">NS 2</text></g><!--entity Ns3--><g id="elem_Ns3"><rect fill="#E6E6FA" height="36.4883" rx="2.5" ry="2.5" style="stroke:#181818;stroke-width:0.5;" width="51.165" x="306.64" y="296.47"/><text fill="#000000" font-family="sans-serif" font-size="14" lengthAdjust="spacing" textLength="31.165" x="316.64" y="320.0052">NS 3</text></g><!--entity Ns4--><g id="elem_Ns4"><rect fill="#E6E6FA" height="36.4883" rx="2.5" ry="2.5" style="stroke:#181818;stroke-width:0.5;" width="51.165" x="392.64" y="296.47"/><text fill="#000000" font-family="sans-serif" font-size="14" lengthAdjust="spacing" textLength="31.165" x="402.64" y="320.0052">NS 4</text></g><!--entity Ns5--><g id="elem_Ns5"><rect fill="#E6E6FA" height="36.4883" rx="2.5" ry="2.5" style="stroke:#181818;stroke-width:0.5;" width="51.165" x="478.64" y="296.47"/><text fill="#000000" font-family="sans-serif" font-size="14" lengthAdjust="spacing" textLength="31.165" x="488.64" y="320.0052">NS 5</text></g><!--entity Ns6--><g id="elem_Ns6"><rect fill="#E6E6FA" height="36.4883" rx="2.5" ry="2.5" style="stroke:#181818;stroke-width:0.5;" width="51.165" x="564.64" y="296.47"/><text fill="#000000" font-family="sans-serif" font-size="14" lengthAdjust="spacing" textLength="31.165" x="574.64" y="320.0052">NS 6</text></g><!--entity Ns7--><g id="elem_Ns7"><rect fill="#E6E6FA" height="36.4883" rx="2.5" ry="2.5" style="stroke:#181818;stroke-width:0.5;" width="51.165" x="650.64" y="296.47"/><text fill="#000000" font-family="sans-serif" font-size="14" lengthAdjust="spacing" textLength="31.165" x="660.64" y="320.0052">NS 7</text></g><!--entity Ns8--><g id="elem_Ns8"><rect fill="#E6E6FA" height="36.4883" rx="2.5" ry="2.5" style="stroke:#181818;stroke-width:0.5;" width="51.165" x="736.64" y="296.47"/><text fill="#000000" font-family="sans-serif" font-size="14" lengthAdjust="spacing" textLength="31.165" x="746.64" y="320.0052">NS 8</text></g><!--entity Ns9--><g id="elem_Ns9"><rect fill="#E6E6FA" height="36.4883" rx="2.5" ry="2.5" style="stroke:#181818;stroke-width:0.5;" width="51.165" x="822.64" y="296.47"/><text fill="#000000" font-family="sans-serif" font-size="14" lengthAdjust="spacing" textLength="31.165" x="832.64" y="320.0052">NS 9</text></g><!--entity Ns10--><g id="elem_Ns10"><rect fill="#E6E6FA" height="36.4883" rx="2.5" ry="2.5" style="stroke:#181818;stroke-width:0.5;" width="60.0176" x="945.21" y="296.47"/><text fill="#000000" font-family="sans-serif" font-size="14" lengthAdjust="spacing" textLength="40.0176" x="955.21" y="320.0052">NS 10</text></g><!--entity T0--><g id="elem_T0"><rect fill="#E0FFFF" height="36.4883" rx="2.5" ry="2.5" style="stroke:#181818;stroke-width:0.5;" width="42.1348" x="7.15" y="392.95"/><text fill="#000000" font-family="sans-serif" font-size="14" lengthAdjust="spacing" textLength="22.1348" x="17.15" y="416.4852">T 0</text></g><!--entity T1--><g id="elem_T1"><rect fill="#E0FFFF" height="36.4883" rx="2.5" ry="2.5" style="stroke:#181818;stroke-width:0.5;" width="42.1348" x="84.15" y="392.95"/><text fill="#000000" font-family="sans-serif" font-size="14" lengthAdjust="spacing" textLength="22.1348" x="94.15" y="416.4852">T 1</text></g><!--entity T2--><g id="elem_T2"><rect fill="#E0FFFF" height="36.4883" rx="2.5" ry="2.5" style="stroke:#181818;stroke-width:0.5;" width="42.1348" x="161.15" y="392.95"/><text fill="#000000" font-family="sans-serif" font-size="14" lengthAdjust="spacing" textLength="22.1348" x="171.15" y="416.4852">T 2</text></g><!--entity T2n--><g id="elem_T2n"><rect fill="#E0FFFF" height="36.4883" rx="2.5" ry="2.5" style="stroke:#181818;stroke-width:0.5;" width="33.2891" x="238.57" y="392.95"/><text fill="#000000" font-family="sans-serif" font-size="14" lengthAdjust="spacing" textLength="13.2891" x="248.57" y="416.4852">...</text></g><!--entity T3n--><g id="elem_T3n"><rect fill="#E0FFFF" height="36.4883" rx="2.5" ry="2.5" style="stroke:#181818;stroke-width:0.5;" width="33.2891" x="315.57" y="392.95"/><text fill="#000000" font-family="sans-serif" font-size="14" lengthAdjust="spacing" textLength="13.2891" x="325.57" y="416.4852">...</text></g><!--entity T4n--><g id="elem_T4n"><rect fill="#E0FFFF" height="36.4883" rx="2.5" ry="2.5" style="stroke:#181818;stroke-width:0.5;" width="33.2891" x="401.57" y="392.95"/><text fill="#000000" font-family="sans-serif" font-size="14" lengthAdjust="spacing" textLength="13.2891" x="411.57" y="416.4852">...</text></g><!--entity T5n--><g id="elem_T5n"><rect fill="#E0FFFF" height="36.4883" rx="2.5" ry="2.5" style="stroke:#181818;stroke-width:0.5;" width="33.2891" x="487.57" y="392.95"/><text fill="#000000" font-family="sans-serif" font-size="14" lengthAdjust="spacing" textLength="13.2891" x="497.57" y="416.4852">...</text></g><!--entity T6n--><g id="elem_T6n"><rect fill="#E0FFFF" height="36.4883" rx="2.5" ry="2.5" style="stroke:#181818;stroke-width:0.5;" width="33.2891" x="573.57" y="392.95"/><text fill="#000000" font-family="sans-serif" font-size="14" lengthAdjust="spacing" textLength="13.2891" x="583.57" y="416.4852">...</text></g><!--entity T7n--><g id="elem_T7n"><rect fill="#E0FFFF" height="36.4883" rx="2.5" ry="2.5" style="stroke:#181818;stroke-width:0.5;" width="33.2891" x="659.57" y="392.95"/><text fill="#000000" font-family="sans-serif" font-size="14" lengthAdjust="spacing" textLength="13.2891" x="669.57" y="416.4852">...</text></g><!--entity T8n--><g id="elem_T8n"><rect fill="#E0FFFF" height="36.4883" rx="2.5" ry="2.5" style="stroke:#181818;stroke-width:0.5;" width="33.2891" x="745.57" y="392.95"/><text fill="#000000" font-family="sans-serif" font-size="14" lengthAdjust="spacing" textLength="13.2891" x="755.57" y="416.4852">...</text></g><!--entity T9n--><g id="elem_T9n"><rect fill="#E0FFFF" height="36.4883" rx="2.5" ry="2.5" style="stroke:#181818;stroke-width:0.5;" width="33.2891" x="822.57" y="392.95"/><text fill="#000000" font-family="sans-serif" font-size="14" lengthAdjust="spacing" textLength="13.2891" x="832.57" y="416.4852">...</text></g><!--entity T27--><g id="elem_T27"><rect fill="#E0FFFF" height="36.4883" rx="2.5" ry="2.5" style="stroke:#181818;stroke-width:0.5;" width="50.9873" x="890.72" y="392.95"/><text fill="#000000" font-family="sans-serif" font-size="14" lengthAdjust="spacing" textLength="30.9873" x="900.72" y="416.4852">T 27</text></g><!--entity T28--><g id="elem_T28"><rect fill="#E0FFFF" height="36.4883" rx="2.5" ry="2.5" style="stroke:#181818;stroke-width:0.5;" width="50.9873" x="976.72" y="392.95"/><text fill="#000000" font-family="sans-serif" font-size="14" lengthAdjust="spacing" textLength="30.9873" x="986.72" y="416.4852">T 28</text></g><!--entity T29--><g id="elem_T29"><rect fill="#E0FFFF" height="36.4883" rx="2.5" ry="2.5" style="stroke:#181818;stroke-width:0.5;" width="50.9873" x="1062.72" y="392.95"/><text fill="#000000" font-family="sans-serif" font-size="14" lengthAdjust="spacing" textLength="30.9873" x="1072.72" y="416.4852">T 29</text></g><!--entity V0--><g id="elem_V0"><rect fill="#FFFAF0" height="36.4883" rx="2.5" ry="2.5" style="stroke:#181818;stroke-width:0.5;" width="42.4355" x="7" y="489.44"/><text fill="#000000" font-family="sans-serif" font-size="14" lengthAdjust="spacing" textLength="22.4355" x="17" y="512.9752">V 0</text></g><!--entity V1--><g id="elem_V1"><rect fill="#FFFAF0" height="36.4883" rx="2.5" ry="2.5" style="stroke:#181818;stroke-width:0.5;" width="42.4355" x="84" y="489.44"/><text fill="#000000" font-family="sans-serif" font-size="14" lengthAdjust="spacing" textLength="22.4355" x="94" y="512.9752">V 1</text></g><!--entity V2--><g id="elem_V2"><rect fill="#FFFAF0" height="36.4883" rx="2.5" ry="2.5" style="stroke:#181818;stroke-width:0.5;" width="42.4355" x="161" y="489.44"/><text fill="#000000" font-family="sans-serif" font-size="14" lengthAdjust="spacing" textLength="22.4355" x="171" y="512.9752">V 2</text></g><!--entity V2n--><g id="elem_V2n"><rect fill="#FFFAF0" height="36.4883" rx="2.5" ry="2.5" style="stroke:#181818;stroke-width:0.5;" width="33.2891" x="238.57" y="489.44"/><text fill="#000000" font-family="sans-serif" font-size="14" lengthAdjust="spacing" textLength="13.2891" x="248.57" y="512.9752">...</text></g><!--entity V3n--><g id="elem_V3n"><rect fill="#FFFAF0" height="36.4883" rx="2.5" ry="2.5" style="stroke:#181818;stroke-width:0.5;" width="33.2891" x="315.57" y="489.44"/><text fill="#000000" font-family="sans-serif" font-size="14" lengthAdjust="spacing" textLength="13.2891" x="325.57" y="512.9752">...</text></g><!--entity V4n--><g id="elem_V4n"><rect fill="#FFFAF0" height="36.4883" rx="2.5" ry="2.5" style="stroke:#181818;stroke-width:0.5;" width="33.2891" x="401.57" y="489.44"/><text fill="#000000" font-family="sans-serif" font-size="14" lengthAdjust="spacing" textLength="13.2891" x="411.57" y="512.9752">...</text></g><!--entity V5n--><g id="elem_V5n"><rect fill="#FFFAF0" height="36.4883" rx="2.5" ry="2.5" style="stroke:#181818;stroke-width:0.5;" width="33.2891" x="487.57" y="489.44"/><text fill="#000000" font-family="sans-serif" font-size="14" lengthAdjust="spacing" textLength="13.2891" x="497.57" y="512.9752">...</text></g><!--entity V6n--><g id="elem_V6n"><rect fill="#FFFAF0" height="36.4883" rx="2.5" ry="2.5" style="stroke:#181818;stroke-width:0.5;" width="33.2891" x="573.57" y="489.44"/><text fill="#000000" font-family="sans-serif" font-size="14" lengthAdjust="spacing" textLength="13.2891" x="583.57" y="512.9752">...</text></g><!--entity V7n--><g id="elem_V7n"><rect fill="#FFFAF0" height="36.4883" rx="2.5" ry="2.5" style="stroke:#181818;stroke-width:0.5;" width="33.2891" x="659.57" y="489.44"/><text fill="#000000" font-family="sans-serif" font-size="14" lengthAdjust="spacing" textLength="13.2891" x="669.57" y="512.9752">...</text></g><!--entity V8n--><g id="elem_V8n"><rect fill="#FFFAF0" height="36.4883" rx="2.5" ry="2.5" style="stroke:#181818;stroke-width:0.5;" width="33.2891" x="745.57" y="489.44"/><text fill="#000000" font-family="sans-serif" font-size="14" lengthAdjust="spacing" textLength="13.2891" x="755.57" y="512.9752">...</text></g><!--entity V9n--><g id="elem_V9n"><rect fill="#FFFAF0" height="36.4883" rx="2.5" ry="2.5" style="stroke:#181818;stroke-width:0.5;" width="33.2891" x="822.57" y="489.44"/><text fill="#000000" font-family="sans-serif" font-size="14" lengthAdjust="spacing" textLength="13.2891" x="832.57" y="512.9752">...</text></g><!--entity V27--><g id="elem_V27"><rect fill="#FFFAF0" height="36.4883" rx="2.5" ry="2.5" style="stroke:#181818;stroke-width:0.5;" width="51.2881" x="890.57" y="489.44"/><text fill="#000000" font-family="sans-serif" font-size="14" lengthAdjust="spacing" textLength="31.2881" x="900.57" y="512.9752">V 27</text></g><!--entity V28--><g id="elem_V28"><rect fill="#FFFAF0" height="36.4883" rx="2.5" ry="2.5" style="stroke:#181818;stroke-width:0.5;" width="51.2881" x="976.57" y="489.44"/><text fill="#000000" font-family="sans-serif" font-size="14" lengthAdjust="spacing" textLength="31.2881" x="986.57" y="512.9752">V 28</text></g><!--entity V29--><g id="elem_V29"><rect fill="#FFFAF0" height="36.4883" rx="2.5" ry="2.5" style="stroke:#181818;stroke-width:0.5;" width="51.2881" x="1062.57" y="489.44"/><text fill="#000000" font-family="sans-serif" font-size="14" lengthAdjust="spacing" textLength="31.2881" x="1072.57" y="512.9752">V 29</text></g><!--link Realm to C0--><g id="link_Realm_C0"><path d="M547.22,43.57 C547.22,60.52 547.22,86.18 547.22,103.19 " fill="#FFFFFF" fill-opacity="0.00000" id="Realm-C0" style="stroke:#181818;stroke-width:1;"/></g><!--link C0 to Ns0--><g id="link_C0_Ns0"><path d="M547.22,140.06 C547.22,157.01 547.22,182.67 547.22,199.68 " fill="#FFFFFF" fill-opacity="0.00000" id="C0-Ns0" style="stroke:#181818;stroke-width:1;"/></g><!--link Ns0 to Ns1--><g id="link_Ns0_Ns1"><path d="M521.36,225.03 C441.36,242.99 203.22,296.47 203.22,296.47 C203.22,296.47 181.46,302.15 162.92,306.99 " fill="#FFFFFF" fill-opacity="0.00000" id="Ns0-Ns1" style="stroke:#181818;stroke-width:1;"/></g><!--link Ns0 to Ns2--><g id="link_Ns0_Ns2"><path d="M521.54,226.91 C456.28,246.45 289.22,296.47 289.22,296.47 C289.22,296.47 281.28,299.65 272.22,303.28 " fill="#FFFFFF" fill-opacity="0.00000" id="Ns0-Ns2" style="stroke:#181818;stroke-width:1;"/></g><!--link Ns0 to Ns3--><g id="link_Ns0_Ns3"><path d="M521.28,230.62 C479.96,248.78 399.63,284.08 358.24,302.27 " fill="#FFFFFF" fill-opacity="0.00000" id="Ns0-Ns3" style="stroke:#181818;stroke-width:1;"/></g><!--link Ns0 to Ns4--><g id="link_Ns0_Ns4"><path d="M523.26,236.77 C500.09,253.74 465.18,279.31 442.05,296.25 " fill="#FFFFFF" fill-opacity="0.00000" id="Ns0-Ns4" style="stroke:#181818;stroke-width:1;"/></g><!--link Ns0 to Ns5--><g id="link_Ns0_Ns5"><path d="M539.33,236.55 C531.62,253.49 519.94,279.15 512.2,296.17 " fill="#FFFFFF" fill-opacity="0.00000" id="Ns0-Ns5" style="stroke:#181818;stroke-width:1;"/></g><!--link Ns0 to Ns6--><g id="link_Ns0_Ns6"><path d="M555.1,236.55 C562.81,253.49 574.49,279.15 582.24,296.17 " fill="#FFFFFF" fill-opacity="0.00000" id="Ns0-Ns6" style="stroke:#181818;stroke-width:1;"/></g><!--link Ns0 to Ns7--><g id="link_Ns0_Ns7"><path d="M571.18,236.77 C594.35,253.74 629.26,279.31 652.38,296.25 " fill="#FFFFFF" fill-opacity="0.00000" id="Ns0-Ns7" style="stroke:#181818;stroke-width:1;"/></g><!--link Ns0 to Ns8--><g id="link_Ns0_Ns8"><path d="M573.15,230.62 C614.48,248.78 694.81,284.08 736.19,302.27 " fill="#FFFFFF" fill-opacity="0.00000" id="Ns0-Ns8" style="stroke:#181818;stroke-width:1;"/></g><!--link Ns0 to Ns9--><g id="link_Ns0_Ns9"><path d="M572.9,226.91 C638.16,246.45 805.22,296.47 805.22,296.47 C805.22,296.47 813.16,299.65 822.21,303.28 " fill="#FFFFFF" fill-opacity="0.00000" id="Ns0-Ns9" style="stroke:#181818;stroke-width:1;"/></g><!--link Ns0 to Ns10--><g id="link_Ns0_Ns10"><path d="M573.03,224.92 C647.85,241.44 864.63,289.3 944.88,307.01 " fill="#FFFFFF" fill-opacity="0.00000" id="Ns0-Ns10" style="stroke:#181818;stroke-width:1;"/></g><!--link Ns1 to T0--><g id="link_Ns1_T0"><path d="M116.97,333.26 C97.39,350.23 67.9,375.8 48.36,392.74 " fill="#FFFFFF" fill-opacity="0.00000" id="Ns1-T0" style="stroke:#181818;stroke-width:1;"/></g><!--link Ns1 to T1--><g id="link_Ns1_T1"><path d="M131.35,333.04 C125.61,349.98 116.92,375.64 111.16,392.66 " fill="#FFFFFF" fill-opacity="0.00000" id="Ns1-T1" style="stroke:#181818;stroke-width:1;"/></g><!--link Ns1 to T2--><g id="link_Ns1_T2"><path d="M145.47,333.04 C153.54,349.98 165.76,375.64 173.86,392.66 " fill="#FFFFFF" fill-opacity="0.00000" id="Ns1-T2" style="stroke:#181818;stroke-width:1;"/></g><!--link Ns2 to T2n--><g id="link_Ns2_T2n"><path d="M247.87,333.04 C249.48,349.98 251.93,375.64 253.55,392.66 " fill="#FFFFFF" fill-opacity="0.00000" id="Ns2-T2n" style="stroke:#181818;stroke-width:1;stroke-dasharray:1.0,3.0;"/></g><!--link Ns3 to T3n--><g id="link_Ns3_T3n"><path d="M332.22,333.04 C332.22,349.98 332.22,375.64 332.22,392.66 " fill="#FFFFFF" fill-opacity="0.00000" id="Ns3-T3n" style="stroke:#181818;stroke-width:1;stroke-dasharray:1.0,3.0;"/></g><!--link Ns4 to T4n--><g id="link_Ns4_T4n"><path d="M418.22,333.04 C418.22,349.98 418.22,375.64 418.22,392.66 " fill="#FFFFFF" fill-opacity="0.00000" id="Ns4-T4n" style="stroke:#181818;stroke-width:1;stroke-dasharray:1.0,3.0;"/></g><!--link Ns5 to T5n--><g id="link_Ns5_T5n"><path d="M504.22,333.04 C504.22,349.98 504.22,375.64 504.22,392.66 " fill="#FFFFFF" fill-opacity="0.00000" id="Ns5-T5n" style="stroke:#181818;stroke-width:1;stroke-dasharray:1.0,3.0;"/></g><!--link Ns6 to T6n--><g id="link_Ns6_T6n"><path d="M590.22,333.04 C590.22,349.98 590.22,375.64 590.22,392.66 " fill="#FFFFFF" fill-opacity="0.00000" id="Ns6-T6n" style="stroke:#181818;stroke-width:1;stroke-dasharray:1.0,3.0;"/></g><!--link Ns7 to T7n--><g id="link_Ns7_T7n"><path d="M676.22,333.04 C676.22,349.98 676.22,375.64 676.22,392.66 " fill="#FFFFFF" fill-opacity="0.00000" id="Ns7-T7n" style="stroke:#181818;stroke-width:1;stroke-dasharray:1.0,3.0;"/></g><!--link Ns8 to T8n--><g id="link_Ns8_T8n"><path d="M762.22,333.04 C762.22,349.98 762.22,375.64 762.22,392.66 " fill="#FFFFFF" fill-opacity="0.00000" id="Ns8-T8n" style="stroke:#181818;stroke-width:1;stroke-dasharray:1.0,3.0;"/></g><!--link Ns9 to T9n--><g id="link_Ns9_T9n"><path d="M846.57,333.04 C844.95,349.98 842.51,375.64 840.89,392.66 " fill="#FFFFFF" fill-opacity="0.00000" id="Ns9-T9n" style="stroke:#181818;stroke-width:1;stroke-dasharray:1.0,3.0;"/></g><!--link Ns10 to T27--><g id="link_Ns10_T27"><path d="M964.4,333.04 C953.82,349.98 937.79,375.64 927.17,392.66 " fill="#FFFFFF" fill-opacity="0.00000" id="Ns10-T27" style="stroke:#181818;stroke-width:1;"/></g><!--link Ns10 to T28--><g id="link_Ns10_T28"><path d="M980.17,333.04 C985.01,349.98 992.34,375.64 997.21,392.66 " fill="#FFFFFF" fill-opacity="0.00000" id="Ns10-T28" style="stroke:#181818;stroke-width:1;"/></g><!--link Ns10 to T29--><g id="link_Ns10_T29"><path d="M996.21,333.26 C1016.5,350.23 1047.08,375.8 1067.34,392.74 " fill="#FFFFFF" fill-opacity="0.00000" id="Ns10-T29" style="stroke:#181818;stroke-width:1;"/></g><!--link T0 to V0--><g id="link_T0_V0"><path d="M28.22,429.53 C28.22,446.47 28.22,472.13 28.22,489.15 " fill="#FFFFFF" fill-opacity="0.00000" id="T0-V0" style="stroke:#181818;stroke-width:1;"/></g><!--link T1 to V1--><g id="link_T1_V1"><path d="M105.22,429.53 C105.22,446.47 105.22,472.13 105.22,489.15 " fill="#FFFFFF" fill-opacity="0.00000" id="T1-V1" style="stroke:#181818;stroke-width:1;"/></g><!--link T2 to V2--><g id="link_T2_V2"><path d="M182.22,429.53 C182.22,446.47 182.22,472.13 182.22,489.15 " fill="#FFFFFF" fill-opacity="0.00000" id="T2-V2" style="stroke:#181818;stroke-width:1;"/></g><!--link T2n to V2n--><g id="link_T2n_V2n"><path d="M255.22,429.53 C255.22,446.47 255.22,472.13 255.22,489.15 " fill="#FFFFFF" fill-opacity="0.00000" id="T2n-V2n" style="stroke:#181818;stroke-width:1;stroke-dasharray:1.0,3.0;"/></g><!--link T3n to V3n--><g id="link_T3n_V3n"><path d="M332.22,429.53 C332.22,446.47 332.22,472.13 332.22,489.15 " fill="#FFFFFF" fill-opacity="0.00000" id="T3n-V3n" style="stroke:#181818;stroke-width:1;stroke-dasharray:1.0,3.0;"/></g><!--link T4n to V4n--><g id="link_T4n_V4n"><path d="M418.22,429.53 C418.22,446.47 418.22,472.13 418.22,489.15 " fill="#FFFFFF" fill-opacity="0.00000" id="T4n-V4n" style="stroke:#181818;stroke-width:1;stroke-dasharray:1.0,3.0;"/></g><!--link T5n to V5n--><g id="link_T5n_V5n"><path d="M504.22,429.53 C504.22,446.47 504.22,472.13 504.22,489.15 " fill="#FFFFFF" fill-opacity="0.00000" id="T5n-V5n" style="stroke:#181818;stroke-width:1;stroke-dasharray:1.0,3.0;"/></g><!--link T6n to V6n--><g id="link_T6n_V6n"><path d="M590.22,429.53 C590.22,446.47 590.22,472.13 590.22,489.15 " fill="#FFFFFF" fill-opacity="0.00000" id="T6n-V6n" style="stroke:#181818;stroke-width:1;stroke-dasharray:1.0,3.0;"/></g><!--link T7n to V7n--><g id="link_T7n_V7n"><path d="M676.22,429.53 C676.22,446.47 676.22,472.13 676.22,489.15 " fill="#FFFFFF" fill-opacity="0.00000" id="T7n-V7n" style="stroke:#181818;stroke-width:1;stroke-dasharray:1.0,3.0;"/></g><!--link T8n to V8n--><g id="link_T8n_V8n"><path d="M762.22,429.53 C762.22,446.47 762.22,472.13 762.22,489.15 " fill="#FFFFFF" fill-opacity="0.00000" id="T8n-V8n" style="stroke:#181818;stroke-width:1;stroke-dasharray:1.0,3.0;"/></g><!--link T9n to V9n--><g id="link_T9n_V9n"><path d="M839.22,429.53 C839.22,446.47 839.22,472.13 839.22,489.15 " fill="#FFFFFF" fill-opacity="0.00000" id="T9n-V9n" style="stroke:#181818;stroke-width:1;stroke-dasharray:1.0,3.0;"/></g><!--link T27 to V27--><g id="link_T27_V27"><path d="M916.22,429.53 C916.22,446.47 916.22,472.13 916.22,489.15 " fill="#FFFFFF" fill-opacity="0.00000" id="T27-V27" style="stroke:#181818;stroke-width:1;"/></g><!--link T28 to V28--><g id="link_T28_V28"><path d="M1002.22,429.53 C1002.22,446.47 1002.22,472.13 1002.22,489.15 " fill="#FFFFFF" fill-opacity="0.00000" id="T28-V28" style="stroke:#181818;stroke-width:1;"/></g><!--link T29 to V29--><g id="link_T29_V29"><path d="M1088.22,429.53 C1088.22,446.47 1088.22,472.13 1088.22,489.15 " fill="#FFFFFF" fill-opacity="0.00000" id="T29-V29" style="stroke:#181818;stroke-width:1;"/></g><!--SRC=[ZPG_RyCW4CLtFWLAvqJ6_u2nYjIfoj1Qxb1rG0rAh3eaTTnA-VRbx4k0IiJUdfz_sEZktPs_6dDIdJhGjZ6wlvmqFHtR2pmGqkdFNfbTg-cBLkt1UrwiQRAWwapN2NruD7tp_QFVzasloK3IvTA-yJ-msBpYYStP7dbMlzfiTKViUSjQxp_C46OU718f4ccKo938eaIEH1ub2YIAA54YKKO9ZWIF4W894IKa4Z9Ai6jzcLzWAFTGOUPawcJcPEvauMJf97TIE2czNuHThB3Z5TodsUtxzKMP41YxNB4eC3QvIYF0QhL2m4mHsIIHJnB5955E4doI49E4DF62SIm8ZoC24H5792BIHs0QRQEhvAROJK6cKhfytnxxNcy_m843MM1bOEM1bODL15O1LXbO9LWyi3XO8h04M3Amv73hPBmYzxJmj0nYMsDiQnlRf_ROgNRSR04o1hTcTv0nkdKQHQxjh26yKqmsWybdCCKCffp1y1cCcC58Sw-470l4xq428N4FaWZ94Ag62DG9gOOOrupONGCY9R1Jl2ZPBX5O8hvbymnRmxTidc5D-9RDC-m5tx9vXaNWMpRFCFc-PVCCe-vRDiymsiCDEO4H7gGWCAg3bEGF]--></g></svg>