<svg xmlns="http://www.w3.org/2000/svg" xmlns:xlink="http://www.w3.org/1999/xlink" contentStyleType="text/css" data-diagram-type="DESCRIPTION" height="628px" preserveAspectRatio="none" style="width:938px;height:628px;background:#FFFFFF;" version="1.1" viewBox="0 0 938 628" width="938px" zoomAndPan="magnify"><defs/><g><!--entity Realm--><g id="elem_Realm"><rect fill="#F1F1F1" height="36.4883" rx="2.5" ry="2.5" style="stroke:#181818;stroke-width:0.5;" width="61.501" x="494.47" y="7"/><text fill="#000000" font-family="sans-serif" font-size="14" lengthAdjust="spacing" textLength="41.501" x="504.47" y="30.5352">Realm</text></g><!--entity C0--><g id="elem_C0"><rect fill="#FAEBD7" height="36.4883" rx="2.5" ry="2.5" style="stroke:#181818;stroke-width:0.5;" width="42.9688" x="425.73" y="103.49"/><text fill="#000000" font-family="sans-serif" font-size="14" lengthAdjust="spacing" textLength="22.9688" x="435.73" y="127.0252">C 0</text></g><!--entity C1--><g id="elem_C1"><rect fill="#FAEBD7" height="36.4883" rx="2.5" ry="2.5" style="stroke:#181818;stroke-width:0.5;" width="42.9688" x="503.73" y="103.49"/><text fill="#000000" font-family="sans-serif" font-size="14" lengthAdjust="spacing" textLength="22.9688" x="513.73" y="127.0252">C 1</text></g><!--entity C2--><g id="elem_C2"><rect fill="#FAEBD7" height="36.4883" rx="2.5" ry="2.5" style="stroke:#181818;stroke-width:0.5;" width="42.9688" x="581.73" y="103.49"/><text fill="#000000" font-family="sans-serif" font-size="14" lengthAdjust="spacing" textLength="22.9688" x="591.73" y="127.0252">C 2</text></g><!--entity Ns0--><g id="elem_Ns0"><rect fill="#E6E6FA" height="36.4883" rx="2.5" ry="2.5" style="stroke:#181818;stroke-width:0.5;" width="51.165" x="421.64" y="199.98"/><text fill="#000000" font-family="sans-serif" font-size="14" lengthAdjust="spacing" textLength="31.165" x="431.64" y="223.5152">NS 0</text></g><!--entity Ns1--><g id="elem_Ns1"><rect fill="#E6E6FA" height="36.4883" rx="2.5" ry="2.5" style="stroke:#181818;stroke-width:0.5;" width="51.165" x="378.64" y="296.47"/><text fill="#000000" font-family="sans-serif" font-size="14" lengthAdjust="spacing" textLength="31.165" x="388.64" y="320.0052">NS 1</text></g><!--entity Ns2--><g id="elem_Ns2"><rect fill="#E6E6FA" height="36.4883" rx="2.5" ry="2.5" style="stroke:#181818;stroke-width:0.5;" width="51.165" x="464.64" y="296.47"/><text fill="#000000" font-family="sans-serif" font-size="14" lengthAdjust="spacing" textLength="31.165" x="474.64" y="320.0052">NS 2</text></g><!--entity Ns3--><g id="elem_Ns3"><rect fill="#E6E6FA" height="36.4883" rx="2.5" ry="2.5" style="stroke:#181818;stroke-width:0.5;" width="51.165" x="195.64" y="392.96"/><text fill="#000000" font-family="sans-serif" font-size="14" lengthAdjust="spacing" textLength="31.165" x="205.64" y="416.4952">NS 3</text></g><!--entity Ns4--><g id="elem_Ns4"><rect fill="#E6E6FA" height="36.4883" rx="2.5" ry="2.5" style="stroke:#181818;stroke-width:0.5;" width="51.165" x="378.64" y="392.96"/><text fill="#000000" font-family="sans-serif" font-size="14" lengthAdjust="spacing" textLength="31.165" x="388.64" y="416.4952">NS 4</text></g><!--entity Ns5--><g id="elem_Ns5"><rect fill="#E6E6FA" height="36.4883" rx="2.5" ry="2.5" style="stroke:#181818;stroke-width:0.5;" width="51.165" x="464.64" y="392.96"/><text fill="#000000" font-family="sans-serif" font-size="14" lengthAdjust="spacing" textLength="31.165" x="474.64" y="416.4952">NS 5</text></g><!--entity Ns6--><g id="elem_Ns6"><rect fill="#E6E6FA" height="36.4883" rx="2.5" ry="2.5" style="stroke:#181818;stroke-width:0.5;" width="51.165" x="666.64" y="392.96"/><text fill="#000000" font-family="sans-serif" font-size="14" lengthAdjust="spacing" textLength="31.165" x="676.64" y="416.4952">NS 6</text></g><!--entity T0--><g id="elem_T0"><rect fill="#E0FFFF" height="36.4883" rx="2.5" ry="2.5" style="stroke:#181818;stroke-width:0.5;" width="42.1348" x="7.15" y="489.44"/><text fill="#000000" font-family="sans-serif" font-size="14" lengthAdjust="spacing" textLength="22.1348" x="17.15" y="512.9752">T 0</text></g><!--entity T1--><g id="elem_T1"><rect fill="#E0FFFF" height="36.4883" rx="2.5" ry="2.5" style="stroke:#181818;stroke-width:0.5;" width="42.1348" x="84.15" y="489.44"/><text fill="#000000" font-family="sans-serif" font-size="14" lengthAdjust="spacing" textLength="22.1348" x="94.15" y="512.9752">T 1</text></g><!--entity T2--><g id="elem_T2"><rect fill="#E0FFFF" height="36.4883" rx="2.5" ry="2.5" style="stroke:#181818;stroke-width:0.5;" width="42.1348" x="161.15" y="489.44"/><text fill="#000000" font-family="sans-serif" font-size="14" lengthAdjust="spacing" textLength="22.1348" x="171.15" y="512.9752">T 2</text></g><!--entity T3--><g id="elem_T3"><rect fill="#E0FFFF" height="36.4883" rx="2.5" ry="2.5" style="stroke:#181818;stroke-width:0.5;" width="42.1348" x="238.15" y="489.44"/><text fill="#000000" font-family="sans-serif" font-size="14" lengthAdjust="spacing" textLength="22.1348" x="248.15" y="512.9752">T 3</text></g><!--entity T4--><g id="elem_T4"><rect fill="#E0FFFF" height="36.4883" rx="2.5" ry="2.5" style="stroke:#181818;stroke-width:0.5;" width="42.1348" x="315.15" y="489.44"/><text fill="#000000" font-family="sans-serif" font-size="14" lengthAdjust="spacing" textLength="22.1348" x="325.15" y="512.9752">T 4</text></g><!--entity T5n--><g id="elem_T5n"><rect fill="#E0FFFF" height="36.4883" rx="2.5" ry="2.5" style="stroke:#181818;stroke-width:0.5;" width="33.2891" x="392.57" y="489.44"/><text fill="#000000" font-family="sans-serif" font-size="14" lengthAdjust="spacing" textLength="13.2891" x="402.57" y="512.9752">...</text></g><!--entity T6n--><g id="elem_T6n"><rect fill="#E0FFFF" height="36.4883" rx="2.5" ry="2.5" style="stroke:#181818;stroke-width:0.5;" width="33.2891" x="469.57" y="489.44"/><text fill="#000000" font-family="sans-serif" font-size="14" lengthAdjust="spacing" textLength="13.2891" x="479.57" y="512.9752">...</text></g><!--entity T15--><g id="elem_T15"><rect fill="#E0FFFF" height="36.4883" rx="2.5" ry="2.5" style="stroke:#181818;stroke-width:0.5;" width="50.9873" x="537.72" y="489.44"/><text fill="#000000" font-family="sans-serif" font-size="14" lengthAdjust="spacing" textLength="30.9873" x="547.72" y="512.9752">T 15</text></g><!--entity T16--><g id="elem_T16"><rect fill="#E0FFFF" height="36.4883" rx="2.5" ry="2.5" style="stroke:#181818;stroke-width:0.5;" width="50.9873" x="623.72" y="489.44"/><text fill="#000000" font-family="sans-serif" font-size="14" lengthAdjust="spacing" textLength="30.9873" x="633.72" y="512.9752">T 16</text></g><!--entity T17--><g id="elem_T17"><rect fill="#E0FFFF" height="36.4883" rx="2.5" ry="2.5" style="stroke:#181818;stroke-width:0.5;" width="50.9873" x="709.72" y="489.44"/><text fill="#000000" font-family="sans-serif" font-size="14" lengthAdjust="spacing" textLength="30.9873" x="719.72" y="512.9752">T 17</text></g><!--entity T18--><g id="elem_T18"><rect fill="#E0FFFF" height="36.4883" rx="2.5" ry="2.5" style="stroke:#181818;stroke-width:0.5;" width="50.9873" x="795.72" y="489.44"/><text fill="#000000" font-family="sans-serif" font-size="14" lengthAdjust="spacing" textLength="30.9873" x="805.72" y="512.9752">T 18</text></g><!--entity T19--><g id="elem_T19"><rect fill="#E0FFFF" height="36.4883" rx="2.5" ry="2.5" style="stroke:#181818;stroke-width:0.5;" width="50.9873" x="881.72" y="489.44"/><text fill="#000000" font-family="sans-serif" font-size="14" lengthAdjust="spacing" textLength="30.9873" x="891.72" y="512.9752">T 19</text></g><!--entity V0--><g id="elem_V0"><rect fill="#FFFAF0" height="36.4883" rx="2.5" ry="2.5" style="stroke:#181818;stroke-width:0.5;" width="42.4355" x="7" y="585.93"/><text fill="#000000" font-family="sans-serif" font-size="14" lengthAdjust="spacing" textLength="22.4355" x="17" y="609.4652">V 0</text></g><!--entity V1--><g id="elem_V1"><rect fill="#FFFAF0" height="36.4883" rx="2.5" ry="2.5" style="stroke:#181818;stroke-width:0.5;" width="42.4355" x="84" y="585.93"/><text fill="#000000" font-family="sans-serif" font-size="14" lengthAdjust="spacing" textLength="22.4355" x="94" y="609.4652">V 1</text></g><!--entity V2--><g id="elem_V2"><rect fill="#FFFAF0" height="36.4883" rx="2.5" ry="2.5" style="stroke:#181818;stroke-width:0.5;" width="42.4355" x="161" y="585.93"/><text fill="#000000" font-family="sans-serif" font-size="14" lengthAdjust="spacing" textLength="22.4355" x="171" y="609.4652">V 2</text></g><!--entity V5n--><g id="elem_V5n"><rect fill="#FFFAF0" height="36.4883" rx="2.5" ry="2.5" style="stroke:#181818;stroke-width:0.5;" width="33.2891" x="392.57" y="585.93"/><text fill="#000000" font-family="sans-serif" font-size="14" lengthAdjust="spacing" textLength="13.2891" x="402.57" y="609.4652">...</text></g><!--entity V6n--><g id="elem_V6n"><rect fill="#FFFAF0" height="36.4883" rx="2.5" ry="2.5" style="stroke:#181818;stroke-width:0.5;" width="33.2891" x="469.57" y="585.93"/><text fill="#000000" font-family="sans-serif" font-size="14" lengthAdjust="spacing" textLength="13.2891" x="479.57" y="609.4652">...</text></g><!--entity V15--><g id="elem_V15"><rect fill="#FFFAF0" height="36.4883" rx="2.5" ry="2.5" style="stroke:#181818;stroke-width:0.5;" width="51.2881" x="537.57" y="585.93"/><text fill="#000000" font-family="sans-serif" font-size="14" lengthAdjust="spacing" textLength="31.2881" x="547.57" y="609.4652">V 15</text></g><!--entity V16--><g id="elem_V16"><rect fill="#FFFAF0" height="36.4883" rx="2.5" ry="2.5" style="stroke:#181818;stroke-width:0.5;" width="51.2881" x="623.57" y="585.93"/><text fill="#000000" font-family="sans-serif" font-size="14" lengthAdjust="spacing" textLength="31.2881" x="633.57" y="609.4652">V 16</text></g><!--entity V17--><g id="elem_V17"><rect fill="#FFFAF0" height="36.4883" rx="2.5" ry="2.5" style="stroke:#181818;stroke-width:0.5;" width="51.2881" x="709.57" y="585.93"/><text fill="#000000" font-family="sans-serif" font-size="14" lengthAdjust="spacing" textLength="31.2881" x="719.57" y="609.4652">V 17</text></g><!--link Realm to C0--><g id="link_Realm_C0"><path d="M510.91,43.58 C496.93,60.52 475.74,86.18 461.7,103.19 " fill="#FFFFFF" fill-opacity="0.00000" id="Realm-C0" style="stroke:#181818;stroke-width:1;"/></g><!--link Realm to C1--><g id="link_Realm_C1"><path d="M525.22,43.58 C525.22,60.52 525.22,86.18 525.22,103.19 " fill="#FFFFFF" fill-opacity="0.00000" id="Realm-C1" style="stroke:#181818;stroke-width:1;"/></g><!--link Realm to C2--><g id="link_Realm_C2"><path d="M539.52,43.58 C553.51,60.52 574.69,86.18 588.74,103.19 " fill="#FFFFFF" fill-opacity="0.00000" id="Realm-C2" style="stroke:#181818;stroke-width:1;"/></g><!--link C0 to Ns0--><g id="link_C0_Ns0"><path d="M447.22,140.06 C447.22,157.01 447.22,182.67 447.22,199.68 " fill="#FFFFFF" fill-opacity="0.00000" id="C0-Ns0" style="stroke:#181818;stroke-width:1;"/></g><!--link Ns0 to Ns1--><g id="link_Ns0_Ns1"><path d="M439.33,236.55 C431.62,253.5 419.94,279.16 412.2,296.17 " fill="#FFFFFF" fill-opacity="0.00000" id="Ns0-Ns1" style="stroke:#181818;stroke-width:1;"/></g><!--link Ns0 to Ns2--><g id="link_Ns0_Ns2"><path d="M455.1,236.55 C462.81,253.5 474.49,279.16 482.24,296.17 " fill="#FFFFFF" fill-opacity="0.00000" id="Ns0-Ns2" style="stroke:#181818;stroke-width:1;"/></g><!--link Ns1 to Ns3--><g id="link_Ns1_Ns3"><path d="M378.39,329.05 C343.61,347.01 282.08,378.78 247.21,396.78 " fill="#FFFFFF" fill-opacity="0.00000" id="Ns1-Ns3" style="stroke:#181818;stroke-width:1;"/></g><!--link Ns1 to Ns4--><g id="link_Ns1_Ns4"><path d="M404.22,333.04 C404.22,349.98 404.22,375.64 404.22,392.66 " fill="#FFFFFF" fill-opacity="0.00000" id="Ns1-Ns4" style="stroke:#181818;stroke-width:1;"/></g><!--link Ns2 to Ns5--><g id="link_Ns2_Ns5"><path d="M490.22,333.04 C490.22,349.98 490.22,375.64 490.22,392.66 " fill="#FFFFFF" fill-opacity="0.00000" id="Ns2-Ns5" style="stroke:#181818;stroke-width:1;"/></g><!--link Ns2 to Ns6--><g id="link_Ns2_Ns6"><path d="M516.21,327.87 C555,346.01 627.59,379.97 666.32,398.09 " fill="#FFFFFF" fill-opacity="0.00000" id="Ns2-Ns6" style="stroke:#181818;stroke-width:1;"/></g><!--link Ns3 to T0--><g id="link_Ns3_T0"><path d="M195.19,424.94 C156.71,443.78 85.35,478.72 49.68,496.18 " fill="#FFFFFF" fill-opacity="0.00000" id="Ns3-T0" style="stroke:#181818;stroke-width:1;"/></g><!--link Ns3 to T1--><g id="link_Ns3_T1"><path d="M199.67,429.75 C178.84,446.72 147.45,472.29 126.65,489.23 " fill="#FFFFFF" fill-opacity="0.00000" id="Ns3-T1" style="stroke:#181818;stroke-width:1;"/></g><!--link Ns3 to T2--><g id="link_Ns3_T2"><path d="M214.06,429.53 C207.07,446.47 196.48,472.13 189.46,489.15 " fill="#FFFFFF" fill-opacity="0.00000" id="Ns3-T2" style="stroke:#181818;stroke-width:1;"/></g><!--link Ns3 to T3--><g id="link_Ns3_T3"><path d="M228.19,429.53 C235,446.47 245.32,472.13 252.16,489.15 " fill="#FFFFFF" fill-opacity="0.00000" id="Ns3-T3" style="stroke:#181818;stroke-width:1;"/></g><!--link Ns3 to T4--><g id="link_Ns3_T4"><path d="M242.58,429.75 C263.23,446.72 294.35,472.29 314.97,489.23 " fill="#FFFFFF" fill-opacity="0.00000" id="Ns3-T4" style="stroke:#181818;stroke-width:1;"/></g><!--link Ns4 to T5n--><g id="link_Ns4_T5n"><path d="M405.13,429.53 C406.03,446.47 407.39,472.13 408.29,489.15 " fill="#FFFFFF" fill-opacity="0.00000" id="Ns4-T5n" style="stroke:#181818;stroke-width:1;stroke-dasharray:1.0,3.0;"/></g><!--link Ns5 to T6n--><g id="link_Ns5_T6n"><path d="M489.48,429.53 C488.77,446.47 487.68,472.13 486.96,489.15 " fill="#FFFFFF" fill-opacity="0.00000" id="Ns5-T6n" style="stroke:#181818;stroke-width:1;stroke-dasharray:1.0,3.0;"/></g><!--link Ns6 to T15--><g id="link_Ns6_T15"><path d="M668.26,429.75 C645.09,446.72 610.18,472.29 587.05,489.23 " fill="#FFFFFF" fill-opacity="0.00000" id="Ns6-T15" style="stroke:#181818;stroke-width:1;"/></g><!--link Ns6 to T16--><g id="link_Ns6_T16"><path d="M684.33,429.53 C676.62,446.47 664.94,472.13 657.2,489.15 " fill="#FFFFFF" fill-opacity="0.00000" id="Ns6-T16" style="stroke:#181818;stroke-width:1;"/></g><!--link Ns6 to T17--><g id="link_Ns6_T17"><path d="M700.1,429.53 C707.81,446.47 719.49,472.13 727.24,489.15 " fill="#FFFFFF" fill-opacity="0.00000" id="Ns6-T17" style="stroke:#181818;stroke-width:1;"/></g><!--link Ns6 to T18--><g id="link_Ns6_T18"><path d="M716.18,429.75 C739.35,446.72 774.26,472.29 797.38,489.23 " fill="#FFFFFF" fill-opacity="0.00000" id="Ns6-T18" style="stroke:#181818;stroke-width:1;"/></g><!--link Ns6 to T19--><g id="link_Ns6_T19"><path d="M718.15,423.6 C759.59,441.81 840.24,477.25 881.53,495.4 " fill="#FFFFFF" fill-opacity="0.00000" id="Ns6-T19" style="stroke:#181818;stroke-width:1;"/></g><!--link T0 to V0--><g id="link_T0_V0"><path d="M28.22,526.02 C28.22,542.96 28.22,568.62 28.22,585.64 " fill="#FFFFFF" fill-opacity="0.00000" id="T0-V0" style="stroke:#181818;stroke-width:1;"/></g><!--link T1 to V1--><g id="link_T1_V1"><path d="M105.22,526.02 C105.22,542.96 105.22,568.62 105.22,585.64 " fill="#FFFFFF" fill-opacity="0.00000" id="T1-V1" style="stroke:#181818;stroke-width:1;"/></g><!--link T2 to V2--><g id="link_T2_V2"><path d="M182.22,526.02 C182.22,542.96 182.22,568.62 182.22,585.64 " fill="#FFFFFF" fill-opacity="0.00000" id="T2-V2" style="stroke:#181818;stroke-width:1;"/></g><!--link T5n to V5n--><g id="link_T5n_V5n"><path d="M409.22,526.02 C409.22,542.96 409.22,568.62 409.22,585.64 " fill="#FFFFFF" fill-opacity="0.00000" id="T5n-V5n" style="stroke:#181818;stroke-width:1;stroke-dasharray:1.0,3.0;"/></g><!--link T6n to V6n--><g id="link_T6n_V6n"><path d="M486.22,526.02 C486.22,542.96 486.22,568.62 486.22,585.64 " fill="#FFFFFF" fill-opacity="0.00000" id="T6n-V6n" style="stroke:#181818;stroke-width:1;stroke-dasharray:1.0,3.0;"/></g><!--link T15 to V15--><g id="link_T15_V15"><path d="M563.22,526.02 C563.22,542.96 563.22,568.62 563.22,585.64 " fill="#FFFFFF" fill-opacity="0.00000" id="T15-V15" style="stroke:#181818;stroke-width:1;"/></g><!--link T16 to V16--><g id="link_T16_V16"><path d="M649.22,526.02 C649.22,542.96 649.22,568.62 649.22,585.64 " fill="#FFFFFF" fill-opacity="0.00000" id="T16-V16" style="stroke:#181818;stroke-width:1;"/></g><!--link T17 to V17--><g id="link_T17_V17"><path d="M735.22,526.02 C735.22,542.96 735.22,568.62 735.22,585.64 " fill="#FFFFFF" fill-opacity="0.00000" id="T17-V17" style="stroke:#181818;stroke-width:1;"/></g><!--SRC=[XPGnRyCW48LtVWLAPqS66voCKQHELOOMqQ7gO3KeYUGIrN4hzT-NWwl1YN2sP_HnFEuUxit7qDf3P-YpQRjFqe_VYoqj5xIzq6r97pPsE7rzczVZQJ1JXWM6pJ4yCFoAyIVIed0d99ebcfEqqEu57Uqkpj9J-sFitlJ4-NEiMxk66S8iWQS4Hu8d11JtzLYKDpugt5XbIzT8r5b2826oX4H2JkonuAcAiYPm1Iz5b79YMc7l5BJkT3WEsz_MJe7GByMoG6YNubaWj4LLMI1qHTKPOBbS1a3OUuIq-Ni8l8Z88n8HcKSQH9eyia9abKVMYAnJ18BZPgJAKR5HyL5Leu81rxHusv-7mUpV2sWGWUIaInAMPAWcefHHDb6kebnFSg8n9zhbvB4xzsrtyw0r9aMp6IHaHVCiyZz93RE-nqWxvqQW7J47IOJa7DGWr4mXvVy3kYJAlpZDYFAFJ7C2KKscu6v389lfaXiCPD5l50GovwKaa2ql6_87]--></g></svg>