<svg xmlns="http://www.w3.org/2000/svg" xmlns:xlink="http://www.w3.org/1999/xlink" contentStyleType="text/css" data-diagram-type="DESCRIPTION" height="821px" preserveAspectRatio="none" style="width:517px;height:821px;background:#FFFFFF;" version="1.1" viewBox="0 0 517 821" width="517px" zoomAndPan="magnify"><defs/><g><!--entity Realm--><g id="elem_Realm"><rect fill="#F1F1F1" height="36.4883" rx="2.5" ry="2.5" style="stroke:#181818;stroke-width:0.5;" width="61.501" x="228.47" y="7"/><text fill="#000000" font-family="sans-serif" font-size="14" lengthAdjust="spacing" textLength="41.501" x="238.47" y="30.5352">Realm</text></g><!--entity C0--><g id="elem_C0"><rect fill="#FAEBD7" height="36.4883" rx="2.5" ry="2.5" style="stroke:#181818;stroke-width:0.5;" width="42.9688" x="237.73" y="103.48"/><text fill="#000000" font-family="sans-serif" font-size="14" lengthAdjust="spacing" textLength="22.9688" x="247.73" y="127.0152">C 0</text></g><!--entity Ns0--><g id="elem_Ns0"><rect fill="#E6E6FA" height="36.4883" rx="2.5" ry="2.5" style="stroke:#181818;stroke-width:0.5;" width="51.165" x="233.64" y="199.97"/><text fill="#000000" font-family="sans-serif" font-size="14" lengthAdjust="spacing" textLength="31.165" x="243.64" y="223.5052">NS 0</text></g><!--entity Ns1--><g id="elem_Ns1"><rect fill="#E6E6FA" height="36.4883" rx="2.5" ry="2.5" style="stroke:#181818;stroke-width:0.5;" width="51.165" x="233.64" y="296.46"/><text fill="#000000" font-family="sans-serif" font-size="14" lengthAdjust="spacing" textLength="31.165" x="243.64" y="319.9952">NS 1</text></g><!--entity Ns2--><g id="elem_Ns2"><rect fill="#E6E6FA" height="36.4883" rx="2.5" ry="2.5" style="stroke:#181818;stroke-width:0.5;" width="51.165" x="233.64" y="392.95"/><text fill="#000000" font-family="sans-serif" font-size="14" lengthAdjust="spacing" textLength="31.165" x="243.64" y="416.4852">NS 2</text></g><!--entity Ns3--><g id="elem_Ns3"><rect fill="#E6E6FA" height="36.4883" rx="2.5" ry="2.5" style="stroke:#181818;stroke-width:0.5;" width="33.2891" x="242.57" y="489.44"/><text fill="#000000" font-family="sans-serif" font-size="14" lengthAdjust="spacing" textLength="13.2891" x="252.57" y="512.9752">...</text></g><!--entity Ns999--><g id="elem_Ns999"><rect fill="#E6E6FA" height="36.4883" rx="2.5" ry="2.5" style="stroke:#181818;stroke-width:0.5;" width="68.8701" x="224.78" y="585.93"/><text fill="#000000" font-family="sans-serif" font-size="14" lengthAdjust="spacing" textLength="48.8701" x="234.78" y="609.4652">NS 999</text></g><!--entity T0--><g id="elem_T0"><rect fill="#E0FFFF" height="36.4883" rx="2.5" ry="2.5" style="stroke:#181818;stroke-width:0.5;" width="42.1348" x="7.15" y="682.41"/><text fill="#000000" font-family="sans-serif" font-size="14" lengthAdjust="spacing" textLength="22.1348" x="17.15" y="705.9452">T 0</text></g><!--entity T1--><g id="elem_T1"><rect fill="#E0FFFF" height="36.4883" rx="2.5" ry="2.5" style="stroke:#181818;stroke-width:0.5;" width="42.1348" x="84.15" y="682.41"/><text fill="#000000" font-family="sans-serif" font-size="14" lengthAdjust="spacing" textLength="22.1348" x="94.15" y="705.9452">T 1</text></g><!--entity T2--><g id="elem_T2"><rect fill="#E0FFFF" height="36.4883" rx="2.5" ry="2.5" style="stroke:#181818;stroke-width:0.5;" width="42.1348" x="161.15" y="682.41"/><text fill="#000000" font-family="sans-serif" font-size="14" lengthAdjust="spacing" textLength="22.1348" x="171.15" y="705.9452">T 2</text></g><!--entity T3--><g id="elem_T3"><rect fill="#E0FFFF" height="36.4883" rx="2.5" ry="2.5" style="stroke:#181818;stroke-width:0.5;" width="42.1348" x="238.15" y="682.41"/><text fill="#000000" font-family="sans-serif" font-size="14" lengthAdjust="spacing" textLength="22.1348" x="248.15" y="705.9452">T 3</text></g><!--entity T4--><g id="elem_T4"><rect fill="#E0FFFF" height="36.4883" rx="2.5" ry="2.5" style="stroke:#181818;stroke-width:0.5;" width="42.1348" x="315.15" y="682.41"/><text fill="#000000" font-family="sans-serif" font-size="14" lengthAdjust="spacing" textLength="22.1348" x="325.15" y="705.9452">T 4</text></g><!--entity T5--><g id="elem_T5"><rect fill="#E0FFFF" height="36.4883" rx="2.5" ry="2.5" style="stroke:#181818;stroke-width:0.5;" width="42.1348" x="392.15" y="682.41"/><text fill="#000000" font-family="sans-serif" font-size="14" lengthAdjust="spacing" textLength="22.1348" x="402.15" y="705.9452">T 5</text></g><!--entity T6--><g id="elem_T6"><rect fill="#E0FFFF" height="36.4883" rx="2.5" ry="2.5" style="stroke:#181818;stroke-width:0.5;" width="42.1348" x="469.15" y="682.41"/><text fill="#000000" font-family="sans-serif" font-size="14" lengthAdjust="spacing" textLength="22.1348" x="479.15" y="705.9452">T 6</text></g><!--entity V0--><g id="elem_V0"><rect fill="#FFFAF0" height="36.4883" rx="2.5" ry="2.5" style="stroke:#181818;stroke-width:0.5;" width="42.4355" x="7" y="778.9"/><text fill="#000000" font-family="sans-serif" font-size="14" lengthAdjust="spacing" textLength="22.4355" x="17" y="802.4352">V 0</text></g><!--entity V1--><g id="elem_V1"><rect fill="#FFFAF0" height="36.4883" rx="2.5" ry="2.5" style="stroke:#181818;stroke-width:0.5;" width="42.4355" x="84" y="778.9"/><text fill="#000000" font-family="sans-serif" font-size="14" lengthAdjust="spacing" textLength="22.4355" x="94" y="802.4352">V 1</text></g><!--entity V2--><g id="elem_V2"><rect fill="#FFFAF0" height="36.4883" rx="2.5" ry="2.5" style="stroke:#181818;stroke-width:0.5;" width="42.4355" x="161" y="778.9"/><text fill="#000000" font-family="sans-serif" font-size="14" lengthAdjust="spacing" textLength="22.4355" x="171" y="802.4352">V 2</text></g><!--entity V3--><g id="elem_V3"><rect fill="#FFFAF0" height="36.4883" rx="2.5" ry="2.5" style="stroke:#181818;stroke-width:0.5;" width="42.4355" x="238" y="778.9"/><text fill="#000000" font-family="sans-serif" font-size="14" lengthAdjust="spacing" textLength="22.4355" x="248" y="802.4352">V 3</text></g><!--link Realm to C0--><g id="link_Realm_C0"><path d="M259.22,43.57 C259.22,60.51 259.22,86.17 259.22,103.19 " fill="#FFFFFF" fill-opacity="0.00000" id="Realm-C0" style="stroke:#181818;stroke-width:1;"/></g><!--link C0 to Ns0--><g id="link_C0_Ns0"><path d="M259.22,140.06 C259.22,157 259.22,182.66 259.22,199.68 " fill="#FFFFFF" fill-opacity="0.00000" id="C0-Ns0" style="stroke:#181818;stroke-width:1;"/></g><!--link Ns0 to Ns1--><g id="link_Ns0_Ns1"><path d="M259.22,236.55 C259.22,253.49 259.22,279.15 259.22,296.16 " fill="#FFFFFF" fill-opacity="0.00000" id="Ns0-Ns1" style="stroke:#181818;stroke-width:1;"/></g><!--link Ns1 to Ns2--><g id="link_Ns1_Ns2"><path d="M259.22,333.03 C259.22,349.98 259.22,375.64 259.22,392.65 " fill="#FFFFFF" fill-opacity="0.00000" id="Ns1-Ns2" style="stroke:#181818;stroke-width:1;"/></g><!--link Ns2 to Ns3--><g id="link_Ns2_Ns3"><path d="M259.22,429.52 C259.22,446.47 259.22,472.13 259.22,489.14 " fill="#FFFFFF" fill-opacity="0.00000" id="Ns2-Ns3" style="stroke:#181818;stroke-width:1;stroke-dasharray:1.0,3.0;"/></g><!--link Ns3 to Ns999--><g id="link_Ns3_Ns999"><path d="M259.22,526.01 C259.22,542.95 259.22,568.61 259.22,585.63 " fill="#FFFFFF" fill-opacity="0.00000" id="Ns3-Ns999" style="stroke:#181818;stroke-width:1;stroke-dasharray:1.0,3.0;"/></g><!--link Ns999 to T0--><g id="link_Ns999_T0"><path d="M224.51,618.51 C185.72,633.55 121.15,658.97 66.22,682.41 C60.75,684.75 54.89,687.35 49.45,689.82 " fill="#FFFFFF" fill-opacity="0.00000" id="Ns999-T0" style="stroke:#181818;stroke-width:1;"/></g><!--link Ns999 to T1--><g id="link_Ns999_T1"><path d="M230.61,622.72 C200.52,641.19 153.83,669.83 126.72,686.46 " fill="#FFFFFF" fill-opacity="0.00000" id="Ns999-T1" style="stroke:#181818;stroke-width:1;"/></g><!--link Ns999 to T2--><g id="link_Ns999_T2"><path d="M245.09,622.5 C231.29,639.44 210.38,665.1 196.51,682.12 " fill="#FFFFFF" fill-opacity="0.00000" id="Ns999-T2" style="stroke:#181818;stroke-width:1;"/></g><!--link Ns999 to T3--><g id="link_Ns999_T3"><path d="M259.22,622.5 C259.22,639.44 259.22,665.1 259.22,682.12 " fill="#FFFFFF" fill-opacity="0.00000" id="Ns999-T3" style="stroke:#181818;stroke-width:1;"/></g><!--link Ns999 to T4--><g id="link_Ns999_T4"><path d="M273.34,622.5 C287.15,639.44 308.06,665.1 321.92,682.12 " fill="#FFFFFF" fill-opacity="0.00000" id="Ns999-T4" style="stroke:#181818;stroke-width:1;"/></g><!--link Ns999 to T5--><g id="link_Ns999_T5"><path d="M287.82,622.72 C317.92,641.19 364.6,669.83 391.71,686.46 " fill="#FFFFFF" fill-opacity="0.00000" id="Ns999-T5" style="stroke:#181818;stroke-width:1;"/></g><!--link Ns999 to T6--><g id="link_Ns999_T6"><path d="M293.93,618.51 C332.71,633.55 397.28,658.97 452.22,682.41 C457.68,684.75 463.54,687.35 468.99,689.82 " fill="#FFFFFF" fill-opacity="0.00000" id="Ns999-T6" style="stroke:#181818;stroke-width:1;"/></g><!--link T0 to V0--><g id="link_T0_V0"><path d="M28.22,718.99 C28.22,735.93 28.22,761.59 28.22,778.61 " fill="#FFFFFF" fill-opacity="0.00000" id="T0-V0" style="stroke:#181818;stroke-width:1;"/></g><!--link T1 to V1--><g id="link_T1_V1"><path d="M105.22,718.99 C105.22,735.93 105.22,761.59 105.22,778.61 " fill="#FFFFFF" fill-opacity="0.00000" id="T1-V1" style="stroke:#181818;stroke-width:1;"/></g><!--link T2 to V2--><g id="link_T2_V2"><path d="M182.22,718.99 C182.22,735.93 182.22,761.59 182.22,778.61 " fill="#FFFFFF" fill-opacity="0.00000" id="T2-V2" style="stroke:#181818;stroke-width:1;"/></g><!--link T3 to V3--><g id="link_T3_V3"><path d="M259.22,718.99 C259.22,735.93 259.22,761.59 259.22,778.61 " fill="#FFFFFF" fill-opacity="0.00000" id="T3-V3" style="stroke:#181818;stroke-width:1;"/></g><!--SRC=[VT91QuCm60RWUtv5wCwAILJmM8ITHWzRo0wbXr13ArZBR3ROlzyNlp3o2UdjhJulahTPtDdR-J8v_kxiT6FB_-zTpwiTjm_UL_nbF_lnwzjzNaVls2fvKS0RbXOE7x5nU43bpVwuUN0BWpvOUBR58cAHu51TjTXg6RKaMg2MH9Tb6R4YMFBYEDozTyCfbDJs4rtNnHuaqbIq2Qz9LyU3wt3kyNBr_Q-TAS33Qf45U3ujiq0XK5bG8wYpe47GP46Be4q1ZW4hwoh98iaooIh9TPAR9BTaEnEtCx3TwtHVx8ItZ11SpuWd1FSpyWd11OsYHAytpbHChvV920P_GWYImTWXAFO7]--></g></svg>