<?xml version="1.0" encoding="UTF-8" standalone="no"?>
<!--
  Licensed to the Apache Software Foundation (ASF) under one
  or more contributor license agreements.  See the NOTICE file
  distributed with this work for additional information
  regarding copyright ownership.  The ASF licenses this file
  to you under the Apache License, Version 2.0 (the
  "License"); you may not use this file except in compliance
  with the License.  You may obtain a copy of the License at

   http://www.apache.org/licenses/LICENSE-2.0

  Unless required by applicable law or agreed to in writing,
  software distributed under the License is distributed on an
  "AS IS" BASIS, WITHOUT WARRANTIES OR CONDITIONS OF ANY
  KIND, either express or implied.  See the License for the
  specific language governing permissions and limitations
  under the License.
-->
<svg width="100" height="100" viewBox="0 0 100 100" fill="none" xmlns="http://www.w3.org/2000/svg">
<path d="M1.77396 5.30235C1.17886 4.57499 0 4.9958 0 5.93559V97.8878C0 99.0543 0.945669 100 2.11221 100H94.0452C94.9854 100 95.4059 98.8203 94.6778 98.2255L51.5956 63.0332C50.769 62.3579 49.5973 62.3044 48.7124 62.9013L23.4326 79.9586C21.4731 81.2806 19.1256 78.933 20.4475 76.9737L37.5039 51.6949C38.1012 50.8094 38.0472 49.6369 37.3709 48.8102L1.77396 5.30235Z" fill="#007880"/>
<path d="M98.2255 94.6778C98.8203 95.4059 100 94.9854 100 94.0452V2.11221C100 0.945669 99.0543 0 97.8878 0H5.93558C4.99579 0 4.57499 1.17886 5.30235 1.77396L48.8102 37.3709C49.6369 38.0472 50.8094 38.1014 51.6949 37.5039L76.9735 20.4475C78.9328 19.1256 81.2805 21.4732 79.9586 23.4325L62.9013 48.7125C62.3043 49.5973 62.3579 50.769 63.0332 51.5957L98.2255 94.6778Z" fill="#007880"/>
</svg>
