<?xml version="1.0" encoding="UTF-8" standalone="no"?>
<!--
  Licensed to the Apache Software Foundation (ASF) under one
  or more contributor license agreements.  See the NOTICE file
  distributed with this work for additional information
  regarding copyright ownership.  The ASF licenses this file
  to you under the Apache License, Version 2.0 (the
  "License"); you may not use this file except in compliance
  with the License.  You may obtain a copy of the License at

   http://www.apache.org/licenses/LICENSE-2.0

  Unless required by applicable law or agreed to in writing,
  software distributed under the License is distributed on an
  "AS IS" BASIS, WITHOUT WARRANTIES OR CONDITIONS OF ANY
  KIND, either express or implied.  See the License for the
  specific language governing permissions and limitations
  under the License.
-->
<svg width="387" height="100" viewBox="0 0 387 100" fill="none" xmlns="http://www.w3.org/2000/svg">
<path d="M0.491429 5.03474C-1.08469 3.10836 1.46771 0.555933 3.39409 2.13205L47.3252 38.0753C48.1183 38.7242 49.2431 38.7761 50.0926 38.2029L74.0858 22.0137C75.9658 20.7454 78.2177 22.9977 76.9494 24.8774L60.7598 48.872C60.187 49.721 60.2384 50.845 60.8863 51.6381L96.5095 95.2474C98.0833 97.1736 95.5331 99.7238 93.6069 98.15L49.9974 62.5269C49.2043 61.8791 48.0803 61.8277 47.2314 62.4004L23.2367 78.5907C21.3571 79.8589 19.1048 77.6063 20.3731 75.727L36.5622 51.7333C37.1354 50.8838 37.0835 49.7589 36.4346 48.9659L0.491429 5.03474Z" fill="#007880"/>
<path d="M374.051 70.6877C373.872 69.9585 373.59 69.3188 373.205 68.7685C372.82 68.2045 372.338 67.7299 371.76 67.3447C371.196 66.9457 370.536 66.6499 369.779 66.4573C369.036 66.251 368.218 66.1478 367.324 66.1478C365.398 66.1478 363.754 66.6087 362.392 67.5304C361.044 68.4521 360.012 69.7797 359.296 71.5131C358.595 73.2465 358.244 75.3376 358.244 77.7863C358.244 80.2626 358.581 82.3812 359.255 84.1421C359.929 85.903 360.934 87.2512 362.268 88.1867C363.602 89.1222 365.26 89.5899 367.241 89.5899C368.988 89.5899 370.44 89.3354 371.595 88.8264C372.765 88.3174 373.638 87.5951 374.216 86.6597C374.794 85.7242 375.083 84.6236 375.083 83.358L377.064 83.5643H367.406V75.3926H386.143V81.2531C386.143 85.1051 385.325 88.3999 383.688 91.1376C382.064 93.8615 379.822 95.9526 376.961 97.4108C374.113 98.8553 370.846 99.5776 367.159 99.5776C363.045 99.5776 359.434 98.704 356.325 96.9568C353.216 95.2097 350.788 92.7197 349.041 89.4867C347.307 86.2538 346.44 82.4087 346.44 77.9514C346.44 74.4571 346.97 71.3618 348.029 68.6654C349.102 65.969 350.588 63.6922 352.487 61.835C354.385 59.964 356.579 58.5539 359.069 57.6047C361.559 56.6417 364.228 56.1602 367.076 56.1602C369.58 56.1602 371.905 56.5178 374.051 57.2332C376.211 57.9348 378.116 58.9391 379.767 60.246C381.432 61.5392 382.773 63.0731 383.791 64.8478C384.809 66.6224 385.428 68.5691 385.648 70.6877H374.051Z" fill="black"/>
<path d="M341.297 77.8689C341.297 82.5738 340.382 86.5427 338.553 89.7756C336.723 92.9948 334.253 95.4367 331.144 97.1013C328.035 98.7521 324.569 99.5776 320.744 99.5776C316.892 99.5776 313.411 98.7453 310.302 97.0807C307.207 95.4023 304.745 92.9535 302.915 89.7344C301.099 86.5014 300.191 82.5463 300.191 77.8689C300.191 73.1639 301.099 69.2019 302.915 65.9827C304.745 62.7498 307.207 60.3079 310.302 58.6571C313.411 56.9925 316.892 56.1602 320.744 56.1602C324.569 56.1602 328.035 56.9925 331.144 58.6571C334.253 60.3079 336.723 62.7498 338.553 65.9827C340.382 69.2019 341.297 73.1639 341.297 77.8689ZM329.494 77.8689C329.494 75.3376 329.156 73.2052 328.482 71.4718C327.822 69.7247 326.838 68.404 325.531 67.5098C324.238 66.6018 322.643 66.1478 320.744 66.1478C318.846 66.1478 317.243 66.6018 315.936 67.5098C314.643 68.404 313.659 69.7247 312.985 71.4718C312.325 73.2052 311.995 75.3376 311.995 77.8689C311.995 80.4002 312.325 82.5394 312.985 84.2866C313.659 86.02 314.643 87.3406 315.936 88.2486C317.243 89.1428 318.846 89.5899 320.744 89.5899C322.643 89.5899 324.238 89.1428 325.531 88.2486C326.838 87.3406 327.822 86.02 328.482 84.2866C329.156 82.5394 329.494 80.4002 329.494 77.8689Z" fill="black"/>
<path d="M268.804 99.0001V56.7383H280.277V89.7553H297.364V99.0001H268.804Z" fill="black"/>
<path d="M233.533 99.0001H221.151L235.101 56.7383H250.784L264.734 99.0001H252.352L243.107 68.3768H242.777L233.533 99.0001ZM231.221 82.3265H254.498V90.9109H231.221V82.3265Z" fill="black"/>
<path d="M186.839 65.9831V56.7383H223.571V65.9831H210.859V99.0001H199.551V65.9831H186.839Z" fill="black"/>
<path d="M158.058 99.0001H145.676L159.626 56.7383H175.309L189.259 99.0001H176.877L167.633 68.3768H167.302L158.058 99.0001ZM155.746 82.3265H179.023V90.9109H155.746V82.3265Z" fill="black"/>
<path d="M143.179 72.5861H131.541C131.458 71.6231 131.238 70.7496 130.88 69.9654C130.537 69.1813 130.055 68.5072 129.436 67.9431C128.831 67.3653 128.095 66.9251 127.228 66.6224C126.361 66.306 125.378 66.1478 124.277 66.1478C122.351 66.1478 120.721 66.6156 119.386 67.551C118.066 68.4865 117.061 69.8278 116.374 71.575C115.699 73.3221 115.362 75.4201 115.362 77.8689C115.362 80.4552 115.706 82.6219 116.394 84.3691C117.096 86.1025 118.107 87.4094 119.428 88.2899C120.748 89.1566 122.337 89.5899 124.194 89.5899C125.254 89.5899 126.203 89.4592 127.042 89.1978C127.881 88.9227 128.611 88.5306 129.23 88.0216C129.849 87.5126 130.351 86.9004 130.736 86.185C131.135 85.4559 131.403 84.6374 131.541 83.7294L143.179 83.8119C143.042 85.6004 142.54 87.4232 141.673 89.2804C140.806 91.1238 139.575 92.8297 137.979 94.398C136.397 95.9526 134.437 97.2045 132.098 98.1537C129.759 99.103 127.042 99.5776 123.947 99.5776C120.067 99.5776 116.587 98.7453 113.505 97.0807C110.437 95.4161 108.009 92.9673 106.221 89.7344C104.446 86.5014 103.559 82.5463 103.559 77.8689C103.559 73.1639 104.467 69.2019 106.283 65.9827C108.099 62.7498 110.547 60.3079 113.629 58.6571C116.711 56.9925 120.15 56.1602 123.947 56.1602C126.616 56.1602 129.071 56.5247 131.314 57.2538C133.556 57.983 135.523 59.0492 137.216 60.4524C138.908 61.8418 140.27 63.5546 141.301 65.5906C142.333 67.6267 142.959 69.9585 143.179 72.5861Z" fill="black"/>
<path d="M346.064 13.9448C345.954 12.5691 345.438 11.496 344.516 10.7256C343.608 9.95521 342.226 9.57001 340.368 9.57001C339.185 9.57001 338.215 9.71446 337.459 10.0034C336.716 10.2785 336.166 10.6568 335.808 11.1383C335.45 11.6198 335.264 12.1701 335.251 12.7892C335.223 13.2982 335.313 13.7591 335.519 14.1718C335.739 14.5707 336.083 14.9353 336.551 15.2655C337.019 15.5819 337.617 15.8708 338.346 16.1322C339.075 16.3935 339.942 16.6274 340.946 16.8338L344.413 17.5766C346.752 18.0719 348.753 18.7254 350.418 19.537C352.083 20.3487 353.444 21.3048 354.504 22.4054C355.563 23.4922 356.34 24.7166 356.836 26.0785C357.345 27.4405 357.606 28.9263 357.62 30.5358C357.606 33.3148 356.911 35.6672 355.536 37.5932C354.16 39.5192 352.193 40.9844 349.634 41.9886C347.089 42.9929 344.028 43.495 340.451 43.495C336.778 43.495 333.572 42.9516 330.835 41.8648C328.111 40.778 325.992 39.1065 324.479 36.8503C322.979 34.5804 322.223 31.6777 322.209 28.1421H333.105C333.173 29.4353 333.497 30.5221 334.074 31.4025C334.652 32.283 335.464 32.9502 336.509 33.4042C337.569 33.8582 338.828 34.0852 340.286 34.0852C341.51 34.0852 342.535 33.9338 343.361 33.6312C344.186 33.3285 344.812 32.9089 345.238 32.3724C345.665 31.8359 345.885 31.2237 345.899 30.5358C345.885 29.8893 345.672 29.3252 345.259 28.8437C344.86 28.3485 344.2 27.9082 343.278 27.523C342.356 27.1241 341.111 26.7526 339.543 26.4087L335.333 25.5007C331.591 24.6891 328.64 23.334 326.481 21.4355C324.334 19.5233 323.268 16.9163 323.282 13.6146C323.268 10.932 323.984 8.58638 325.428 6.57785C326.886 4.55555 328.902 2.98036 331.474 1.85228C334.061 0.724198 337.025 0.160156 340.368 0.160156C343.78 0.160156 346.731 0.731076 349.221 1.87292C351.711 3.01476 353.63 4.62434 354.978 6.70166C356.34 8.76522 357.028 11.1796 357.042 13.9448H346.064Z" fill="black"/>
<path d="M317.845 0.738281V43.0001H306.371V0.738281H317.845Z" fill="black"/>
<path d="M267.556 43.0001V0.738281H285.798C288.934 0.738281 291.679 1.3092 294.031 2.45104C296.384 3.59288 298.213 5.23685 299.52 7.38296C300.827 9.52907 301.481 12.1016 301.481 15.1007C301.481 18.1273 300.807 20.6792 299.458 22.7565C298.124 24.8338 296.246 26.4022 293.825 27.4615C291.417 28.5208 288.604 29.0504 285.385 29.0504H274.489V20.1358H283.074C284.422 20.1358 285.571 19.9707 286.52 19.6405C287.483 19.2966 288.219 18.7532 288.728 18.0103C289.251 17.2674 289.512 16.2976 289.512 15.1007C289.512 13.8901 289.251 12.9064 288.728 12.1498C288.219 11.3794 287.483 10.8154 286.52 10.4577C285.571 10.0862 284.422 9.90051 283.074 9.90051H279.029V43.0001H267.556ZM292.318 23.6026L302.884 43.0001H290.42L280.102 23.6026H292.318Z" fill="black"/>
<path d="M232.284 43.0001H219.903L233.852 0.738281H249.535L263.485 43.0001H251.104L241.859 12.3768H241.529L232.284 43.0001ZM229.973 26.3265H253.25V34.9109H229.973V26.3265Z" fill="black"/>
<path d="M188.108 43.0001V0.738281H199.582V33.7553H216.668V43.0001H188.108Z" fill="black"/>
<path d="M182.8 21.8689C182.8 26.5738 181.885 30.5427 180.055 33.7756C178.225 36.9948 175.756 39.4367 172.647 41.1013C169.538 42.7521 166.071 43.5776 162.246 43.5776C158.394 43.5776 154.914 42.7453 151.805 41.0807C148.709 39.4023 146.247 36.9535 144.417 33.7344C142.601 30.5014 141.693 26.5463 141.693 21.8689C141.693 17.1639 142.601 13.2019 144.417 9.98273C146.247 6.74981 148.709 4.30792 151.805 2.65707C154.914 0.992461 158.394 0.160156 162.246 0.160156C166.071 0.160156 169.538 0.992461 172.647 2.65707C175.756 4.30792 178.225 6.74981 180.055 9.98273C181.885 13.2019 182.8 17.1639 182.8 21.8689ZM170.996 21.8689C170.996 19.3376 170.659 17.2052 169.985 15.4718C169.325 13.7247 168.341 12.404 167.034 11.5098C165.741 10.6018 164.145 10.1478 162.246 10.1478C160.348 10.1478 158.745 10.6018 157.438 11.5098C156.145 12.404 155.162 13.7247 154.487 15.4718C153.827 17.2052 153.497 19.3376 153.497 21.8689C153.497 24.4002 153.827 26.5394 154.487 28.2866C155.162 30.0199 156.145 31.3406 157.438 32.2486C158.745 33.1428 160.348 33.5899 162.246 33.5899C164.145 33.5899 165.741 33.1428 167.034 32.2486C168.341 31.3406 169.325 30.0199 169.985 28.2866C170.659 26.5394 170.996 24.4002 170.996 21.8689Z" fill="black"/>
<path d="M103.724 43.0001V0.738281H121.966C125.102 0.738281 127.847 1.35735 130.199 2.59549C132.552 3.83363 134.382 5.5739 135.689 7.81631C136.995 10.0587 137.649 12.6794 137.649 15.6785C137.649 18.7051 136.975 21.3258 135.627 23.5407C134.292 25.7556 132.414 27.4615 129.993 28.6583C127.586 29.8552 124.772 30.4536 121.553 30.4536H110.657V21.539H119.242C120.59 21.539 121.739 21.3051 122.688 20.8374C123.651 20.3559 124.387 19.6749 124.896 18.7945C125.419 17.914 125.68 16.8754 125.68 15.6785C125.68 14.4679 125.419 13.4361 124.896 12.5831C124.387 11.7164 123.651 11.0561 122.688 10.6021C121.739 10.1344 120.59 9.90051 119.242 9.90051H115.197V43.0001H103.724Z" fill="black"/>
</svg>
